<svg xmlns="http://www.w3.org/2000/svg" width="1680" height="644" viewBox="0 0 1680 644" version="1.1"><path d="M 764.522 0.964 C 764.170 1.534, 762.994 2, 761.909 2 C 758.069 2, 743.784 8.257, 736.499 13.129 C 722.822 22.277, 713.172 35.267, 709.479 49.500 C 707.455 57.302, 707.442 72.782, 709.452 81.450 C 713.888 100.577, 728.484 115.744, 748.873 122.412 C 758.345 125.510, 764.276 126.526, 784.416 128.503 C 803.268 130.354, 807.529 131.221, 814.070 134.535 C 823.028 139.075, 827.617 150.196, 825.126 161.329 C 823.336 169.327, 820.466 172.973, 812.964 176.779 C 797.083 184.837, 773.436 183.149, 758.027 172.859 C 750.593 167.895, 747.136 162.965, 744.893 154.131 L 743.209 147.500 736.855 147.591 C 733.360 147.641, 724.763 148.024, 717.750 148.442 L 705 149.201 705.015 153.851 C 705.038 160.828, 708.514 173.271, 712.692 181.333 C 717.986 191.549, 729.926 203.297, 740.500 208.693 C 758.328 217.791, 771.286 220.489, 793.500 219.729 C 805.745 219.310, 810.114 218.735, 817.288 216.601 C 844.497 208.507, 860.485 193.072, 866.597 169 C 869.084 159.205, 868.087 141.102, 864.488 130.707 C 858.649 113.839, 847.944 103.030, 830.623 96.510 C 821.205 92.965, 817.857 92.335, 793.304 89.485 C 781.312 88.092, 769.395 86.263, 766.822 85.420 C 760.240 83.263, 754.435 78.753, 751.819 73.763 C 749.077 68.534, 748.825 59.103, 751.302 54.356 C 757.323 42.812, 772.772 36.189, 791 37.337 C 806.735 38.327, 814.390 43.106, 820.892 56 C 823.616 61.401, 825.210 63.500, 826.587 63.500 C 832.229 63.500, 858.766 61.810, 860.331 61.351 C 861.915 60.886, 862.075 60.118, 861.514 55.657 C 859.373 38.615, 851.627 24.922, 838.690 15.308 C 831.608 10.044, 820.708 4.694, 813.463 2.924 C 810.733 2.257, 808.046 1.361, 807.492 0.934 C 805.913 -0.283, 765.275 -0.254, 764.522 0.964 M 898.607 1.582 C 898.273 2.452, 898 51.736, 898 111.102 L 898 219.040 919.250 218.770 L 940.500 218.500 941 155.108 L 941.500 91.715 948.926 107.108 C 971.520 153.943, 983.138 176.898, 985.899 180.160 C 989.533 184.453, 996.297 188, 1000.848 188 C 1007.897 188, 1014.566 183.476, 1019.979 175.024 C 1022.458 171.152, 1035.449 144.129, 1052.920 106.500 C 1055.474 101, 1058.098 95.600, 1058.751 94.500 C 1059.678 92.940, 1059.946 106.079, 1059.970 154.168 C 1059.986 188.086, 1060.273 216.548, 1060.607 217.418 C 1061.133 218.789, 1063.923 219, 1081.485 219 C 1096.524 219, 1102.002 218.677, 1102.712 217.750 C 1103.311 216.967, 1103.568 176.502, 1103.399 109.500 C 1103.251 50.650, 1103.101 2.010, 1103.065 1.412 C 1103.021 0.674, 1096.678 0.266, 1083.336 0.142 C 1064.340 -0.035, 1063.593 0.033, 1061.336 2.154 C 1060.051 3.361, 1059 4.661, 1059 5.042 C 1059 5.655, 1045.148 34.454, 1014.289 98 C 1009.080 108.725, 1004.137 119.185, 1003.304 121.244 C 1002.470 123.302, 1001.364 124.725, 1000.846 124.405 C 1000.328 124.085, 996.825 117.450, 993.062 109.661 C 959.640 40.492, 941.098 2.955, 939.626 1.483 C 938.417 0.274, 934.547 0, 918.678 0 C 901.852 0, 899.132 0.214, 898.607 1.582 M 1213.319 1.892 C 1206.438 4.221, 1202.968 7.016, 1199.335 13.153 C 1195.807 19.114, 1194.453 22.856, 1159.051 124.500 C 1145.259 164.100, 1132.240 201.225, 1130.120 207 C 1128 212.775, 1126.457 217.838, 1126.692 218.250 C 1126.926 218.663, 1136.711 219, 1148.437 219 C 1164.286 219, 1170.014 218.679, 1170.765 217.750 C 1171.320 217.063, 1174.329 208.513, 1177.452 198.750 L 1183.130 181 1218.891 181 L 1254.652 181 1259.475 196.250 C 1262.128 204.637, 1264.955 213.188, 1265.757 215.250 L 1267.217 219 1289.109 219 C 1306.261 219, 1311 218.722, 1311 217.716 C 1311 217.010, 1309.172 211.273, 1306.938 204.966 C 1304.703 198.660, 1298.434 180.675, 1293.007 165 C 1287.579 149.325, 1280.152 127.950, 1276.501 117.500 C 1272.851 107.050, 1264.025 81.625, 1256.887 61 C 1238.312 7.327, 1238.360 7.428, 1229.231 3.248 C 1222.237 0.046, 1219.468 -0.190, 1213.319 1.892 M 1380 1 C 1381.113 1.719, 1380.513 1.973, 1377.676 1.985 C 1371.733 2.008, 1359.062 6.708, 1354.200 10.692 C 1348.485 15.375, 1345.185 20.534, 1342.645 28.754 C 1340.618 35.311, 1340.550 37.756, 1340.208 116 C 1340.015 160.275, 1340.158 201.563, 1340.527 207.750 L 1341.197 219 1361.540 219 C 1376.078 219, 1382.090 218.664, 1382.610 217.821 C 1383.011 217.173, 1383.229 201.751, 1383.094 183.550 C 1382.959 165.349, 1383.166 147.654, 1383.554 144.229 L 1384.258 138 1398.606 138 C 1412.407 138, 1413.007 138.086, 1414.343 140.250 C 1415.106 141.488, 1419.554 149.925, 1424.227 159 C 1438.433 186.592, 1454.185 216.427, 1455.244 217.750 C 1456.662 219.521, 1504 219.564, 1504 217.794 C 1504 217.131, 1501.131 211.393, 1497.624 205.044 C 1494.118 198.695, 1485.963 183.825, 1479.502 172 C 1473.042 160.175, 1466.069 147.575, 1464.008 144 C 1461.947 140.425, 1459.543 136.091, 1458.666 134.369 L 1457.072 131.239 1463.428 128.110 C 1470.990 124.387, 1481.913 113.899, 1486.908 105.566 C 1488.783 102.439, 1491.466 96.644, 1492.869 92.690 C 1495.131 86.318, 1495.426 83.906, 1495.461 71.500 C 1495.506 55.466, 1494.165 49.067, 1488.232 37 C 1483.937 28.265, 1471.568 15.030, 1463.630 10.677 C 1455.547 6.245, 1444.923 2.866, 1437.183 2.267 C 1432.691 1.920, 1430.374 1.379, 1431.183 0.866 C 1431.907 0.406, 1420.350 0.031, 1405.500 0.031 C 1387.704 0.031, 1379.011 0.361, 1380 1 M 1522.253 1.750 C 1521.876 2.712, 1521.553 11.600, 1521.534 21.500 L 1521.500 39.500 1550.245 39.765 L 1578.989 40.031 1579.245 129.265 L 1579.500 218.500 1599.500 218.606 C 1610.500 218.665, 1620.082 218.411, 1620.792 218.043 C 1621.835 217.503, 1622.072 200.222, 1622.022 128.687 C 1621.962 44.483, 1622.048 39.998, 1623.729 39.970 C 1624.703 39.954, 1637.763 39.967, 1652.750 39.999 L 1680 40.058 1680 20.029 L 1680 0 1601.469 0 C 1527.604 0, 1522.897 0.104, 1522.253 1.750 M 1392.405 41.904 C 1389.948 43.019, 1387.402 45.232, 1386.042 47.432 C 1383.884 50.923, 1383.749 52.335, 1383.239 76.550 L 1382.703 102 1405.237 102 C 1431.514 102, 1435.302 101.231, 1442.959 94.347 C 1449.745 88.246, 1452.357 81.812, 1452.437 71 C 1452.524 59.295, 1450.916 54.621, 1444.647 48.358 C 1437.411 41.128, 1433.048 39.994, 1412.568 40.022 C 1399.070 40.040, 1395.845 40.341, 1392.405 41.904 M 1213.259 82.750 C 1200.673 123.510, 1194.843 142.247, 1194.322 143.602 C 1193.872 144.776, 1197.803 145, 1218.893 145 C 1238.324 145, 1243.995 144.717, 1243.978 143.750 C 1243.965 143.063, 1241.280 133.500, 1238.010 122.500 C 1234.741 111.500, 1229.502 93.612, 1226.368 82.750 C 1223.235 71.888, 1220.376 63, 1220.014 63 C 1219.653 63, 1216.613 71.888, 1213.259 82.750 M 771.660 254.988 C 752.827 258.381, 736.774 266.916, 724.703 279.954 C 713.430 292.130, 709.016 302.905, 708.252 320.110 C 707.353 340.378, 712.549 355.741, 724.260 367.438 C 738.527 381.688, 751.186 386.336, 785.718 390.005 C 808.387 392.413, 814.049 393.501, 820.259 396.639 C 829.619 401.367, 834.237 412.173, 832.099 424.344 C 830.595 432.910, 826.985 437.716, 819.088 441.668 C 804.438 449.001, 783.288 448.698, 767.509 440.930 C 755.375 434.956, 749.264 427.770, 746.693 416.450 C 745.115 409.501, 747.919 410.086, 722.250 411.349 L 705 412.198 705 416.651 C 705 424.191, 707.957 435.059, 712.695 444.933 C 716.450 452.756, 718.610 455.751, 725.361 462.491 C 732.238 469.357, 735.128 471.413, 744 475.751 C 769.207 488.075, 793.477 490.875, 819.818 484.496 C 842.347 479.041, 858.192 468.515, 868.372 452.241 C 880.374 433.055, 880.225 399.007, 868.057 380.102 C 861.044 369.207, 848.746 360.049, 835.127 355.580 C 825.699 352.486, 819.929 351.512, 794 348.637 C 776.623 346.710, 772.544 345.932, 767.223 343.533 C 757.140 338.987, 752 331.556, 752 321.527 C 752 309.230, 762.597 298.441, 778.050 295.005 C 786.933 293.030, 805.289 294.069, 811.714 296.910 C 818.788 300.038, 825.196 307.089, 828.032 314.866 C 829.274 318.274, 830.566 321.232, 830.903 321.440 C 831.628 321.888, 863.047 320.170, 867.750 319.424 C 870.655 318.964, 871 318.559, 871 315.615 C 871 310.435, 867.429 297.793, 864.107 291.213 C 856.190 275.528, 839.577 262.911, 819 256.953 C 812.874 255.180, 808.295 254.721, 794 254.449 C 784.375 254.266, 774.322 254.508, 771.660 254.988 M 1169.500 254.947 C 1159.747 256.547, 1151.392 259.169, 1143 263.264 C 1136.172 266.596, 1132.827 269.093, 1125.996 275.956 C 1119.041 282.944, 1116.633 286.230, 1112.771 294 C 1104.298 311.048, 1100.543 329.421, 1099.388 359.500 C 1098.396 385.304, 1101.114 412.816, 1106.485 431.353 C 1115.319 461.837, 1134.488 479.567, 1165 485.476 C 1176.903 487.781, 1193.760 488.454, 1205 487.074 C 1253.089 481.165, 1274.862 457.261, 1281.125 403.500 C 1282.981 387.574, 1282.704 347.386, 1280.640 332.959 C 1274.530 290.257, 1255.884 266.335, 1221.419 256.985 C 1214.902 255.217, 1210.047 254.774, 1194 254.482 C 1183.275 254.286, 1172.250 254.496, 1169.500 254.947 M 912.497 256.157 C 912.215 256.896, 912.101 308.800, 912.243 371.500 L 912.500 485.500 935 485.500 L 957.500 485.500 957.762 448.608 L 958.025 411.716 967.762 412.348 C 981.901 413.265, 1018.111 411.469, 1026 409.459 C 1050.720 403.161, 1067.653 386.169, 1074.093 361.203 C 1076.669 351.212, 1077.624 330.548, 1076.085 318.097 C 1072.861 292.027, 1060.763 273.966, 1039.539 263.538 C 1024.395 256.098, 1021.104 255.740, 963.254 255.244 C 921.823 254.889, 912.919 255.049, 912.497 256.157 M 1361.614 256.033 C 1339.369 258.561, 1328.711 266.825, 1322.833 286.102 L 1320.578 293.500 1320.242 388.341 C 1319.989 459.695, 1320.195 483.530, 1321.075 484.591 C 1322.015 485.722, 1326.443 486, 1343.563 486 C 1356.792 486, 1365.118 485.618, 1365.504 484.993 C 1365.846 484.440, 1366.084 465.315, 1366.033 442.493 L 1365.939 401 1381.917 401 L 1397.895 401 1402.316 409.250 C 1404.748 413.788, 1414.500 432.350, 1423.988 450.500 C 1433.476 468.650, 1441.690 484.063, 1442.241 484.750 C 1442.997 485.691, 1449.522 486, 1468.622 486 C 1496.471 486, 1496.222 486.062, 1492.187 480.154 C 1491.190 478.694, 1487.417 472.100, 1483.804 465.500 C 1480.190 458.900, 1472.181 444.275, 1466.006 433 C 1459.831 421.725, 1453.194 409.575, 1451.257 406 C 1449.320 402.425, 1446.878 398.069, 1445.829 396.320 L 1443.923 393.139 1450.410 390.043 C 1461.016 384.981, 1472.220 373.474, 1478.239 361.459 C 1483.777 350.406, 1484.500 346.656, 1484.500 329 C 1484.500 314.266, 1484.246 311.751, 1482.126 305.500 C 1473.398 279.762, 1454.669 262.583, 1429.657 257.374 C 1421.072 255.586, 1373.758 254.654, 1361.614 256.033 M 1512.518 255.816 C 1512.233 256.100, 1512 265.206, 1512 276.050 C 1512 295.651, 1512.013 295.770, 1514.250 296.371 C 1515.487 296.703, 1529.210 296.702, 1544.745 296.369 L 1572.990 295.762 1573.245 390.631 L 1573.500 485.500 1594 485.783 C 1605.275 485.939, 1615.513 485.818, 1616.750 485.514 L 1619 484.962 1619 390.405 L 1619 295.848 1649.501 296.174 L 1680.001 296.500 1680.001 275.690 L 1680 254.880 1596.518 255.089 C 1550.602 255.204, 1512.802 255.531, 1512.518 255.816 M 1173.856 296.865 C 1160.103 301.381, 1152.317 311.484, 1148.463 329.814 C 1146.150 340.813, 1144.678 365.305, 1145.356 381.500 C 1146.551 410.036, 1150.206 424.564, 1158.515 433.806 C 1177.582 455.013, 1220.590 449.422, 1229.904 424.526 C 1236.203 407.691, 1238.628 376.630, 1235.956 347 C 1233.339 317.973, 1226.141 303.744, 1211.079 297.822 C 1203.138 294.700, 1182.096 294.159, 1173.856 296.865 M 958 333.442 L 958 371.147 984.250 370.791 C 1013.794 370.391, 1015.819 369.960, 1023.211 362.493 C 1029.404 356.238, 1031.272 348.776, 1030.795 332.210 C 1030.446 320.129, 1030.097 317.846, 1027.859 313 C 1026.462 309.975, 1023.474 305.838, 1021.219 303.806 C 1014.508 297.760, 1009.874 296.863, 982.250 296.264 L 958 295.737 958 333.442 M 1381.112 296.964 C 1374.669 297.982, 1371.349 300.256, 1368.569 305.557 C 1366.654 309.207, 1366.476 311.496, 1366.176 336.389 L 1365.852 363.278 1390.676 362.788 C 1419.594 362.218, 1422.445 361.508, 1430.534 352.860 C 1437.588 345.319, 1439.446 340.355, 1439.476 328.979 C 1439.498 320.229, 1439.236 318.923, 1436.243 312.842 C 1430.164 300.494, 1422.540 296.948, 1401 296.448 C 1393.025 296.264, 1384.076 296.495, 1381.112 296.964 M 845.813 522.470 C 833.492 525.863, 824.759 532.679, 819.787 542.785 C 816.848 548.757, 816.500 550.369, 816.502 558.006 C 816.503 565.637, 816.853 567.259, 819.784 573.212 C 825.924 585.685, 834.057 589.979, 857 592.862 C 865.525 593.933, 873.749 595.380, 875.275 596.077 C 878.948 597.754, 881.968 602.821, 882.156 607.623 C 882.530 617.158, 875.306 622.441, 862 622.362 C 849.126 622.286, 839.526 616.381, 836.995 606.981 L 835.905 602.935 826.703 603.549 C 814.126 604.388, 814.625 604.095, 815.276 610.271 C 816.054 617.639, 819.165 624.193, 824.687 630.096 C 829.829 635.594, 831.622 636.708, 842.400 641.100 C 848.976 643.780, 850.464 643.993, 862.550 643.997 C 869.728 643.998, 876.028 643.628, 876.550 643.174 C 877.073 642.720, 879.319 641.778, 881.542 641.083 C 891.532 637.955, 902.556 626.754, 904.941 617.307 C 907.266 608.102, 905.532 594.832, 901.059 587.595 C 894.768 577.417, 885.140 573.085, 864.120 570.976 C 849.741 569.534, 846.735 568.601, 843.091 564.451 C 840.590 561.603, 840 560.048, 840 556.310 C 840 552.243, 840.465 551.248, 843.888 547.992 C 854.605 537.796, 875.707 541.040, 879.721 553.500 L 880.687 556.500 889.094 556.198 C 893.717 556.031, 898.789 555.647, 900.364 555.343 C 903.031 554.829, 903.187 554.542, 902.640 551.170 C 902.317 549.179, 900.672 544.744, 898.984 541.317 C 894.221 531.641, 884.719 524.568, 873.201 522.124 C 866.273 520.655, 851.738 520.838, 845.813 522.470 M 945.813 522.470 C 933.420 525.883, 923.974 533.302, 919.419 543.200 C 916.990 548.477, 916.518 550.799, 916.511 557.500 C 916.496 572.389, 921.832 581.372, 934.304 587.453 C 940.568 590.506, 943.537 591.217, 957.223 592.941 C 965.871 594.030, 974.248 595.594, 975.839 596.417 C 979.315 598.214, 982 603.458, 982 608.451 C 982 617.626, 975.013 622.458, 961.931 622.329 C 949.182 622.203, 940.512 617.068, 937.442 607.824 L 935.830 602.972 926.165 603.569 C 920.849 603.897, 915.983 604.322, 915.350 604.513 C 913.772 604.990, 914.601 611.118, 917.242 618.500 C 920.516 627.651, 928.857 635.525, 940.350 640.313 C 948.978 643.908, 949.519 644, 961.967 644 C 975.527 644, 980.543 642.771, 989 637.377 C 1003.896 627.876, 1009.585 611.599, 1003.909 594.718 C 998.822 579.588, 988.427 573.328, 964.500 570.987 C 949.453 569.515, 946.675 568.642, 943.053 564.248 C 940.667 561.353, 940 559.578, 940 556.117 C 940 552.275, 940.513 551.202, 943.888 547.992 C 954.605 537.797, 975.731 541.045, 979.714 553.500 L 980.673 556.500 990.587 556.142 C 996.039 555.945, 1001.012 555.369, 1001.637 554.863 C 1003.155 553.634, 1001.710 547.115, 998.404 540.276 C 994.240 531.663, 984.251 524.469, 973.201 522.124 C 966.273 520.655, 951.738 520.838, 945.813 522.470 M 1097.500 522.389 C 1090.350 524.132, 1080.555 529.643, 1076.367 534.279 C 1070.468 540.808, 1067.588 548.235, 1067.556 557 C 1067.502 571.701, 1073.256 581.587, 1085.257 587.414 C 1091.581 590.485, 1094.473 591.173, 1108.055 592.839 C 1124.957 594.912, 1129.100 596.360, 1131.520 601.039 C 1133.610 605.081, 1133.657 612.349, 1131.612 615.470 C 1125.399 624.952, 1101.792 624.699, 1092.548 615.051 C 1091.071 613.508, 1089.276 610.278, 1088.561 607.873 L 1087.260 603.500 1077.380 603.866 C 1071.946 604.067, 1067.112 604.462, 1066.638 604.744 C 1065.055 605.685, 1067.026 615.427, 1070.068 621.697 C 1074.676 631.198, 1082.854 637.479, 1097.060 642.425 C 1101.936 644.123, 1126.451 644.698, 1127.415 643.137 C 1127.709 642.663, 1130.033 641.691, 1132.582 640.977 C 1142.320 638.251, 1152.749 627.855, 1156.002 617.632 C 1157.876 611.743, 1156.865 597.618, 1154.132 591.500 C 1148.391 578.653, 1137.934 573.160, 1115 570.946 C 1097.240 569.232, 1091.500 565.818, 1091.500 556.968 C 1091.500 547.378, 1098.378 542.527, 1112 542.511 C 1122.644 542.497, 1126.357 544.351, 1130.066 551.532 C 1131.992 555.260, 1133.178 556.482, 1134.816 556.429 C 1136.017 556.389, 1140.614 556.277, 1145.031 556.179 C 1154.798 555.961, 1155.173 555.420, 1152.120 545.941 C 1148.321 534.145, 1137.474 524.886, 1124.201 522.109 C 1117.393 520.684, 1103.912 520.826, 1097.500 522.389 M 1521.741 522.562 C 1514.756 524.255, 1511.153 526.049, 1506.455 530.174 C 1498.413 537.235, 1492.961 549.337, 1490.923 564.655 C 1489.392 576.155, 1490.247 603.502, 1492.377 611.214 C 1496.224 625.139, 1503.542 634.542, 1515.102 640.415 L 1522.159 644 1535.914 644 C 1549.657 644, 1549.676 643.997, 1557.027 640.419 C 1565.936 636.083, 1570.870 631.069, 1575.535 621.612 C 1578.152 616.305, 1579.284 612.371, 1579.993 606.110 C 1580.516 601.495, 1580.705 597.332, 1580.413 596.860 C 1580.121 596.387, 1575.021 596, 1569.080 596 L 1558.279 596 1557.673 600.750 C 1555.890 614.742, 1550.925 620.807, 1539.947 622.402 C 1528.526 624.061, 1519.539 618.833, 1516.492 608.758 C 1514.314 601.556, 1513.447 577.993, 1514.919 566 C 1517.020 548.881, 1521.562 543.763, 1535.210 543.143 C 1547.496 542.584, 1551.497 545.154, 1555.484 556.166 L 1557.778 562.500 1568.639 562.500 L 1579.500 562.500 1579.353 555.858 C 1579.087 543.875, 1571.259 531.744, 1560.130 526.066 C 1550.366 521.085, 1534.002 519.591, 1521.741 522.562 M 749.054 524.608 C 747.350 526.042, 745.482 528.100, 744.904 529.180 C 744.325 530.261, 738.225 547.424, 731.348 567.322 C 724.471 587.220, 715.729 612.452, 711.922 623.393 C 708.115 634.334, 705 643.460, 705 643.673 C 705 643.886, 710.701 643.934, 717.669 643.780 L 730.339 643.500 733.371 633.500 C 735.039 628, 736.718 623.275, 737.101 623 C 737.485 622.725, 746.507 622.725, 757.149 623 L 776.500 623.500 779.913 633.750 L 783.326 644 795.663 644 C 802.448 644, 808 643.594, 808 643.097 C 808 642.600, 806.459 637.763, 804.576 632.347 C 802.694 626.931, 794.337 602.759, 786.007 578.631 C 768.535 528.024, 767.093 524.577, 762.766 523.068 C 757.394 521.196, 752.449 521.751, 749.054 524.608 M 1023.828 568.750 C 1023.636 620.644, 1023.640 631.064, 1023.854 638.750 L 1024 644 1036 644 L 1048 644 1048 583 L 1048 522 1036 522 L 1024 522 1023.828 568.750 M 1165.369 532.750 L 1165.649 543.500 1181.574 543.677 L 1197.500 543.853 1197.759 593.927 L 1198.018 644 1210 644 L 1221.982 644 1222.241 593.750 L 1222.500 543.500 1237 543.332 C 1244.975 543.239, 1252.063 543.126, 1252.750 543.082 C 1253.665 543.022, 1254 540.190, 1254 532.500 L 1254 522 1209.544 522 L 1165.088 522 1165.369 532.750 M 1307 522.709 C 1302.300 524.438, 1299.498 529.356, 1293.758 545.955 C 1291.562 552.305, 1285.958 568.525, 1281.304 582 C 1276.651 595.475, 1270.356 613.700, 1267.317 622.500 C 1264.277 631.300, 1261.415 639.751, 1260.957 641.279 L 1260.123 644.059 1272.754 643.779 L 1285.385 643.500 1288.475 633.500 L 1291.566 623.500 1310.952 623 L 1330.337 622.500 1332.049 625.318 C 1332.990 626.868, 1334.777 631.705, 1336.019 636.068 L 1338.278 644 1351.139 644 C 1358.213 644, 1364 643.806, 1364 643.568 C 1364 643.331, 1362.613 639.393, 1360.919 634.818 C 1359.224 630.243, 1351.994 609.625, 1344.852 589 C 1322.062 523.186, 1322.726 524.797, 1317.690 523.042 C 1314.535 521.942, 1309.512 521.786, 1307 522.709 M 1378 583 L 1378 644 1390.045 644 L 1402.089 644 1401.795 605.499 C 1401.633 584.324, 1401.585 566.999, 1401.689 566.999 C 1401.998 567, 1413.917 585.278, 1425.490 603.500 C 1442.032 629.544, 1445.867 635.145, 1450.313 639.750 C 1454.330 643.911, 1454.556 644, 1461.053 644 C 1468.246 644, 1469.303 643.374, 1472.379 637.300 C 1473.816 634.462, 1474 627.742, 1474 578.050 L 1474 522 1461.977 522 L 1449.954 522 1450.227 560.500 C 1450.377 581.676, 1450.265 599.001, 1449.978 599 C 1449.415 599, 1446.746 594.809, 1421.001 553.500 C 1411.745 538.650, 1403.438 525.487, 1402.540 524.250 C 1401.010 522.143, 1400.180 522, 1389.453 522 L 1378 522 1378 583 M 1600 570.596 C 1600 624.477, 1600.231 626.776, 1606.334 633.727 C 1609.517 637.353, 1617.816 641.913, 1621.500 642.061 L 1623.500 642.141 1621.500 643 C 1620.322 643.506, 1631.930 643.888, 1649.750 643.930 L 1680 644 1680 633.139 L 1680 622.278 1655.725 621.794 C 1639.892 621.479, 1630.684 620.901, 1629.248 620.133 C 1625.681 618.224, 1624.772 615.271, 1624.230 603.826 L 1623.717 593 1641.608 592.985 C 1651.449 592.976, 1660.051 592.619, 1660.724 592.191 C 1661.523 591.684, 1662.045 587.952, 1662.224 581.457 L 1662.500 571.500 1643.222 571.228 L 1623.944 570.957 1624.222 557.245 L 1624.500 543.534 1652.250 543.864 L 1680 544.194 1680 533.097 L 1680 522 1640 522 L 1600 522 1600 570.596 M 756.721 557.683 C 756.457 558.133, 753.426 567.725, 749.987 579 C 746.547 590.275, 743.519 600.063, 743.259 600.750 C 742.895 601.713, 745.992 602, 756.746 602 L 770.706 602 765.771 585.250 C 763.057 576.038, 760.252 566.117, 759.539 563.204 C 758.174 557.632, 757.512 556.336, 756.721 557.683 M 1309.169 566.187 C 1307.498 571.309, 1304.464 580.900, 1302.426 587.500 C 1300.389 594.100, 1298.511 600.063, 1298.254 600.750 C 1297.894 601.713, 1301.006 602, 1311.801 602 L 1325.816 602 1324.380 597.250 C 1323.590 594.638, 1320.706 584.662, 1317.972 575.083 C 1315.237 565.504, 1312.821 557.488, 1312.603 557.270 C 1312.385 557.052, 1310.840 561.065, 1309.169 566.187" stroke="none" fill="#0564a5" fill-rule="evenodd"/><path d="M 211.952 0.377 C 211.704 0.624, 207 1.591, 201.500 2.527 C 196 3.463, 185.135 5.974, 177.355 8.107 C 135.122 19.686, 101.403 39.348, 70.492 70.419 C 49.720 91.298, 36.581 109.696, 24.016 135.500 C 14.147 155.766, 9.054 171.204, 2.736 200 C 0.945 208.166, 0.602 213.684, 0.297 239.289 C -0.087 271.585, -0.091 271.550, 6.987 301.242 C 22.454 366.122, 70.336 426.060, 131 456.480 C 144.136 463.068, 158.870 469.484, 159.440 468.865 C 159.804 468.469, 160.949 270.717, 160.981 202.750 L 161 161 314.500 161 C 398.925 161, 468 160.627, 468 160.172 C 468 159.163, 458.366 137.619, 454.507 130 C 445.610 112.430, 429.581 90.066, 414.574 74.283 C 390.651 49.123, 359.156 28.103, 326.419 15.446 C 314.594 10.875, 288.209 3.627, 278.891 2.391 C 276.222 2.037, 274.259 1.390, 274.529 0.952 C 275.033 0.138, 212.770 -0.434, 211.952 0.377 M 214.250 214.713 C 213.259 215.073, 213 242.346, 213 346.518 C 213 423.956, 213.377 478.862, 213.919 480.287 C 214.791 482.582, 215.376 482.732, 225.440 483.246 C 238.254 483.900, 260.525 482.668, 275.500 480.478 C 349.084 469.714, 414.209 425.073, 450.454 360.554 C 472.537 321.242, 483.344 276.549, 481.642 231.571 C 481.218 220.364, 480.663 215.396, 479.770 214.811 C 478.485 213.970, 216.561 213.873, 214.250 214.713 M 533.893 214.899 C 533.834 215.229, 533.868 224.500, 533.967 235.500 C 534.496 294.241, 521.419 344.236, 492.862 392.649 C 452.175 461.627, 379.198 513.594, 300.061 529.945 C 279.232 534.249, 270.030 535.136, 241.500 535.591 L 213.500 536.038 213.241 590.019 L 212.983 644 427.335 644 L 641.687 644 642.409 506.143 C 643.219 351.424, 642.381 215.965, 640.605 214.734 C 639.317 213.841, 534.052 214.003, 533.893 214.899" stroke="none" fill="#666767" fill-rule="evenodd"/></svg>