<?xml version='1.0' encoding='UTF-8' standalone='no'?>
<svg height="210mm" xmlns:svg="http://www.w3.org/2000/svg" xmlns:dc="http://purl.org/dc/elements/1.1/" viewBox="0 0 2970 2100" xmlns="http://www.w3.org/2000/svg" xmlns:xlink="http://www.w3.org/1999/xlink" baseProfile="tiny" xmlns:freecad="https://www.freecad.org/wiki/index.php?title=Svg_Namespace" version="1.2" xmlns:cc="http://creativecommons.org/ns#" xmlns:inkscape="http://www.inkscape.org/namespaces/inkscape" width="297mm" xmlns:rdf="http://www.w3.org/1999/02/22-rdf-syntax-ns#" xmlns:sodipodi="http://sodipodi.sourceforge.net/DTD/sodipodi-0.dtd">
 <title>FreeCAD SVG Export</title>
 <desc>Drawing page: Page002 exported from FreeCAD document: LeoIoT_Goalfinder_Housing</desc>
 <defs/>
 <g id="Page002" inkscape:groupmode="layer" inkscape:label="TechDraw">
  <g style="stroke: none;" id="A4_Landscape_ISO7200TD2.svg" transform="scale(10.000000, 10.000000)">
   <!-- Working space 10 10 287 200 -->
   <!-- Title block 107 162 287 200 -->
   <g>
    <rect height="180" x="10" style="fill:none;stroke:#000000;stroke-width:0.35;stroke-linecap:miter;stroke-miterlimit:4" id="drawing-border" width="277" y="20"/>
    <!-- width-20, height-20 -->
    <g transform="translate(87,-65)">
     <!-- A4 Portrait based for other formats width-210, height-297 -->
     <!--        page       rect   translation
                     w    h    rw   rh   tx   ty
              A4-P  210  297  180  277    0    0
              A3-L  420  297  390  277  210    0
              A2-L  594  420  564  400  384  123
              A1-L  841  594  811  574  631  297
              A0-L 1189  841 1159  821  979  544
      -->
     <g style="fill:none;stroke:#000000;stroke-width:0.35;stroke-linecap:miter;stroke-miterlimit:4" id="titleblock-structure">
      <rect height="38" x="20" width="180" y="227"/>
      <path d="m 20,238 h 180"/>
      <path d="m 80,227 v 11"/>
      <path d="m 140,227 v 38"/>
      <path d="m 160,227 v 11"/>
      <path d="m 180,227 v 11"/>
      <path d="m 140,254 h 60"/>
      <path d="m 180,254 v 11"/>
     </g>
     <g style="font-size:3px;text-anchor:start;fill:#000000;font-family:osifont" id="titleblock-text-non-editable">
      <text x="21" y="230.5">Created by:</text>
      <text x="81" y="230.5">Title:</text>
      <text x="21" y="241.5">Supplementary information:</text>
      <text x="141" y="230.5">Size:</text>
      <text x="161" y="230.5">Sheet:</text>
      <text x="181" y="230.5">Scale:</text>
      <text x="141" y="241.5">Part number:</text>
      <text x="141" y="249.5">Drawing no.:</text>
      <text x="141" y="257.5">Date:</text>
      <text x="181" y="257.5">Revision:</text>
     </g>
     <!-- Set display:none to hide FreeCAD Logo -->
     <g stroke="#000" style="display:inline" id="freecad-logo" fill="none" transform="translate(128.5,254)" stroke-width="0.35" fill-rule="evenodd">
      <path d="m0.1524 0.15254v8.8549h1.9744v-3.4652h1.396v-1.3661h-1.396v-1.4745h3.4391v-2.5441l-5.4135-0.005z"/>
      <path d="m7.7927 3.4504-0.50715-0.176-0.48387-1.2366-0.76115 0.04-0.34718 1.2787-0.4859 0.23269-1.2119-0.53015-0.51188 0.56882 0.65892 1.1485-0.18006 0.50567-1.2366 0.48387 0.044064 0.76263 1.2787 0.34718 0.23269 0.4859-0.53421 1.2104 0.56882 0.51188 1.1485-0.65891 0.50973 0.18155 0.4798 1.2351 0.7667-0.04258 0.34311-1.2802 0.4859-0.23269 1.2145 0.5357 0.51188-0.56882-0.65891-1.1485 0.17748-0.51122 1.2351-0.4798-0.03851-0.76521-1.2802-0.34311-0.23269-0.4859 0.53163-1.216-0.56881-0.51184zm-0.5715 1.2244 0.23576 0.13679 0.20426 0.18519 0.16353 0.22101 0.11763 0.24572 0.06916 0.26489 0.01146 0.27146-0.03921 0.27139-0.08948 0.25764-0.14234 0.23834-0.17964 0.20167-0.22101 0.16353-0.24572 0.11763-0.26489 0.06916-0.27295 0.01553-0.2719-0.04-0.2576-0.089-0.2383-0.143-0.2002-0.183-0.165-0.217-0.1177-0.246-0.0676-0.269-0.0156-0.273 0.039206-0.2714 0.089484-0.25764 0.14085-0.23427 0.18113-0.20574 0.22101-0.16352 0.24572-0.11763 0.26895-0.06768 0.27147-0.01146 0.27139 0.03921 0.25764 0.08948z"/>
     </g>
    </g>
   </g>
   <g style="font-size:5px;text-anchor:start;fill:#000000;font-family:osifont" id="titleblock-text-editable">
    <text freecad:editable="AUTHOR_NAME" x="108" y="171">
     <tspan xml:space="preserve">HTL Leonding</tspan>
    </text>
    <text freecad:editable="DRAWING_TITLE" x="168" y="171">
     <tspan xml:space="preserve">LeoIoT - Goalfinder</tspan>
    </text>
    <text freecad:editable="SI-1" x="108" y="182">
     <tspan xml:space="preserve">Case for LeoIoT "Goalfinder r1.4" hardware</tspan>
    </text>
    <text freecad:editable="FreeCAD_DRAWING" x="108" y="189">
     <tspan xml:space="preserve">Material: 4mm PMMA (acrylic glass)</tspan>
    </text>
    <text freecad:editable="SI-3" x="108" y="196">
     <tspan xml:space="preserve"/>
    </text>
    <text freecad:editable="FC-SI" x="233" y="171">
     <tspan xml:space="preserve">A4</tspan>
    </text>
    <text freecad:editable="FC-SH" x="251" y="171">
     <tspan xml:space="preserve">4 / 7</tspan>
    </text>
    <text freecad:editable="FC-SC" x="271" y="171">
     <tspan xml:space="preserve">1 : 1</tspan>
    </text>
    <text freecad:editable="PN" x="231" y="181">
     <tspan xml:space="preserve">Left Wall</tspan>
    </text>
    <text freecad:editable="DN" x="231" y="189">
     <tspan xml:space="preserve">01</tspan>
    </text>
    <text freecad:editable="FC-DATE" x="231" y="197">
     <tspan xml:space="preserve">30/05/2024</tspan>
    </text>
    <text freecad:editable="FC-REV" x="269" y="197">
     <tspan xml:space="preserve">r 01.00</tspan>
    </text>
   </g>
   <!-- DrawingContent -->
  </g>
  <g stroke="black" stroke-linecap="square" fill="none" id="DrawingContent" stroke-width="1" fill-rule="evenodd" stroke-linejoin="bevel">
   <g stroke="none" font-style="normal" fill-opacity="1" font-family="MS Shell Dlg 2" fill="#f1f3f5" transform="matrix(1,0,0,1,1500,900)" font-weight="400" font-size="29.1042">
    <path fill-rule="evenodd" d="M318,111 L362,111 L362,185 L400,185 L400,37 L318,37 L318,-111 L362,-111 L362,-37 L400,-37 L400,-185 L238,-185 L238,-225 L82,-225 L82,-185 L-82,-185 L-82,-225 L-238,-225 L-238,-185 L-400,-185 L-400,-37 L-362,-37 L-362,-111 L-318,-111 L-318,37 L-400,37 L-400,185 L-362,185 L-362,111 L-318,111 L-318,185 L-238,185 L-238,225 L-82,225 L-82,185 L82,185 L82,225 L238,225 L238,185 L318,185 L318,111" vector-effect="non-scaling-stroke"/>
   </g>
   <g stroke="#212529" font-style="normal" stroke-linecap="round" font-family="MS Shell Dlg 2" fill="none" transform="matrix(1,0,0,1,1500,900)" stroke-width="2.5" stroke-opacity="1" font-weight="400" stroke-linejoin="bevel" font-size="29.1042">
    <path fill-rule="evenodd" d="M318,111 L362,111" vector-effect="none"/>
   </g>
   <g stroke="#212529" font-style="normal" stroke-linecap="round" font-family="MS Shell Dlg 2" fill="none" transform="matrix(1,0,0,1,1500,900)" stroke-width="2.5" stroke-opacity="1" font-weight="400" stroke-linejoin="bevel" font-size="29.1042">
    <path fill-rule="evenodd" d="M362,111 L362,185" vector-effect="none"/>
   </g>
   <g stroke="#212529" font-style="normal" stroke-linecap="round" font-family="MS Shell Dlg 2" fill="none" transform="matrix(1,0,0,1,1500,900)" stroke-width="2.5" stroke-opacity="1" font-weight="400" stroke-linejoin="bevel" font-size="29.1042">
    <path fill-rule="evenodd" d="M362,185 L400,185" vector-effect="none"/>
   </g>
   <g stroke="#212529" font-style="normal" stroke-linecap="round" font-family="MS Shell Dlg 2" fill="none" transform="matrix(1,0,0,1,1500,900)" stroke-width="2.5" stroke-opacity="1" font-weight="400" stroke-linejoin="bevel" font-size="29.1042">
    <path fill-rule="evenodd" d="M400,185 L400,37" vector-effect="none"/>
   </g>
   <g stroke="#212529" font-style="normal" stroke-linecap="round" font-family="MS Shell Dlg 2" fill="none" transform="matrix(1,0,0,1,1500,900)" stroke-width="2.5" stroke-opacity="1" font-weight="400" stroke-linejoin="bevel" font-size="29.1042">
    <path fill-rule="evenodd" d="M400,37 L318,37" vector-effect="none"/>
   </g>
   <g stroke="#212529" font-style="normal" stroke-linecap="round" font-family="MS Shell Dlg 2" fill="none" transform="matrix(1,0,0,1,1500,900)" stroke-width="2.5" stroke-opacity="1" font-weight="400" stroke-linejoin="bevel" font-size="29.1042">
    <path fill-rule="evenodd" d="M318,-111 L318,37" vector-effect="none"/>
   </g>
   <g stroke="#212529" font-style="normal" stroke-linecap="round" font-family="MS Shell Dlg 2" fill="none" transform="matrix(1,0,0,1,1500,900)" stroke-width="2.5" stroke-opacity="1" font-weight="400" stroke-linejoin="bevel" font-size="29.1042">
    <path fill-rule="evenodd" d="M318,-111 L362,-111" vector-effect="none"/>
   </g>
   <g stroke="#212529" font-style="normal" stroke-linecap="round" font-family="MS Shell Dlg 2" fill="none" transform="matrix(1,0,0,1,1500,900)" stroke-width="2.5" stroke-opacity="1" font-weight="400" stroke-linejoin="bevel" font-size="29.1042">
    <path fill-rule="evenodd" d="M362,-111 L362,-37" vector-effect="none"/>
   </g>
   <g stroke="#212529" font-style="normal" stroke-linecap="round" font-family="MS Shell Dlg 2" fill="none" transform="matrix(1,0,0,1,1500,900)" stroke-width="2.5" stroke-opacity="1" font-weight="400" stroke-linejoin="bevel" font-size="29.1042">
    <path fill-rule="evenodd" d="M362,-37 L400,-37" vector-effect="none"/>
   </g>
   <g stroke="#212529" font-style="normal" stroke-linecap="round" font-family="MS Shell Dlg 2" fill="none" transform="matrix(1,0,0,1,1500,900)" stroke-width="2.5" stroke-opacity="1" font-weight="400" stroke-linejoin="bevel" font-size="29.1042">
    <path fill-rule="evenodd" d="M400,-37 L400,-185" vector-effect="none"/>
   </g>
   <g stroke="#212529" font-style="normal" stroke-linecap="round" font-family="MS Shell Dlg 2" fill="none" transform="matrix(1,0,0,1,1500,900)" stroke-width="2.5" stroke-opacity="1" font-weight="400" stroke-linejoin="bevel" font-size="29.1042">
    <path fill-rule="evenodd" d="M400,-185 L238,-185" vector-effect="none"/>
   </g>
   <g stroke="#212529" font-style="normal" stroke-linecap="round" font-family="MS Shell Dlg 2" fill="none" transform="matrix(1,0,0,1,1500,900)" stroke-width="2.5" stroke-opacity="1" font-weight="400" stroke-linejoin="bevel" font-size="29.1042">
    <path fill-rule="evenodd" d="M238,-185 L238,-225" vector-effect="none"/>
   </g>
   <g stroke="#212529" font-style="normal" stroke-linecap="round" font-family="MS Shell Dlg 2" fill="none" transform="matrix(1,0,0,1,1500,900)" stroke-width="2.5" stroke-opacity="1" font-weight="400" stroke-linejoin="bevel" font-size="29.1042">
    <path fill-rule="evenodd" d="M238,-225 L82,-225" vector-effect="none"/>
   </g>
   <g stroke="#212529" font-style="normal" stroke-linecap="round" font-family="MS Shell Dlg 2" fill="none" transform="matrix(1,0,0,1,1500,900)" stroke-width="2.5" stroke-opacity="1" font-weight="400" stroke-linejoin="bevel" font-size="29.1042">
    <path fill-rule="evenodd" d="M82,-225 L82,-185" vector-effect="none"/>
   </g>
   <g stroke="#212529" font-style="normal" stroke-linecap="round" font-family="MS Shell Dlg 2" fill="none" transform="matrix(1,0,0,1,1500,900)" stroke-width="2.5" stroke-opacity="1" font-weight="400" stroke-linejoin="bevel" font-size="29.1042">
    <path fill-rule="evenodd" d="M82,-185 L-82,-185" vector-effect="none"/>
   </g>
   <g stroke="#212529" font-style="normal" stroke-linecap="round" font-family="MS Shell Dlg 2" fill="none" transform="matrix(1,0,0,1,1500,900)" stroke-width="2.5" stroke-opacity="1" font-weight="400" stroke-linejoin="bevel" font-size="29.1042">
    <path fill-rule="evenodd" d="M-82,-185 L-82,-225" vector-effect="none"/>
   </g>
   <g stroke="#212529" font-style="normal" stroke-linecap="round" font-family="MS Shell Dlg 2" fill="none" transform="matrix(1,0,0,1,1500,900)" stroke-width="2.5" stroke-opacity="1" font-weight="400" stroke-linejoin="bevel" font-size="29.1042">
    <path fill-rule="evenodd" d="M-82,-225 L-238,-225" vector-effect="none"/>
   </g>
   <g stroke="#212529" font-style="normal" stroke-linecap="round" font-family="MS Shell Dlg 2" fill="none" transform="matrix(1,0,0,1,1500,900)" stroke-width="2.5" stroke-opacity="1" font-weight="400" stroke-linejoin="bevel" font-size="29.1042">
    <path fill-rule="evenodd" d="M-238,-225 L-238,-185" vector-effect="none"/>
   </g>
   <g stroke="#212529" font-style="normal" stroke-linecap="round" font-family="MS Shell Dlg 2" fill="none" transform="matrix(1,0,0,1,1500,900)" stroke-width="2.5" stroke-opacity="1" font-weight="400" stroke-linejoin="bevel" font-size="29.1042">
    <path fill-rule="evenodd" d="M-238,-185 L-400,-185" vector-effect="none"/>
   </g>
   <g stroke="#212529" font-style="normal" stroke-linecap="round" font-family="MS Shell Dlg 2" fill="none" transform="matrix(1,0,0,1,1500,900)" stroke-width="2.5" stroke-opacity="1" font-weight="400" stroke-linejoin="bevel" font-size="29.1042">
    <path fill-rule="evenodd" d="M-400,-185 L-400,-37" vector-effect="none"/>
   </g>
   <g stroke="#212529" font-style="normal" stroke-linecap="round" font-family="MS Shell Dlg 2" fill="none" transform="matrix(1,0,0,1,1500,900)" stroke-width="2.5" stroke-opacity="1" font-weight="400" stroke-linejoin="bevel" font-size="29.1042">
    <path fill-rule="evenodd" d="M-400,-37 L-362,-37" vector-effect="none"/>
   </g>
   <g stroke="#212529" font-style="normal" stroke-linecap="round" font-family="MS Shell Dlg 2" fill="none" transform="matrix(1,0,0,1,1500,900)" stroke-width="2.5" stroke-opacity="1" font-weight="400" stroke-linejoin="bevel" font-size="29.1042">
    <path fill-rule="evenodd" d="M-362,-111 L-362,-37" vector-effect="none"/>
   </g>
   <g stroke="#212529" font-style="normal" stroke-linecap="round" font-family="MS Shell Dlg 2" fill="none" transform="matrix(1,0,0,1,1500,900)" stroke-width="2.5" stroke-opacity="1" font-weight="400" stroke-linejoin="bevel" font-size="29.1042">
    <path fill-rule="evenodd" d="M-362,-111 L-318,-111" vector-effect="none"/>
   </g>
   <g stroke="#212529" font-style="normal" stroke-linecap="round" font-family="MS Shell Dlg 2" fill="none" transform="matrix(1,0,0,1,1500,900)" stroke-width="2.5" stroke-opacity="1" font-weight="400" stroke-linejoin="bevel" font-size="29.1042">
    <path fill-rule="evenodd" d="M-318,-111 L-318,37" vector-effect="none"/>
   </g>
   <g stroke="#212529" font-style="normal" stroke-linecap="round" font-family="MS Shell Dlg 2" fill="none" transform="matrix(1,0,0,1,1500,900)" stroke-width="2.5" stroke-opacity="1" font-weight="400" stroke-linejoin="bevel" font-size="29.1042">
    <path fill-rule="evenodd" d="M-318,37 L-400,37" vector-effect="none"/>
   </g>
   <g stroke="#212529" font-style="normal" stroke-linecap="round" font-family="MS Shell Dlg 2" fill="none" transform="matrix(1,0,0,1,1500,900)" stroke-width="2.5" stroke-opacity="1" font-weight="400" stroke-linejoin="bevel" font-size="29.1042">
    <path fill-rule="evenodd" d="M-400,37 L-400,185" vector-effect="none"/>
   </g>
   <g stroke="#212529" font-style="normal" stroke-linecap="round" font-family="MS Shell Dlg 2" fill="none" transform="matrix(1,0,0,1,1500,900)" stroke-width="2.5" stroke-opacity="1" font-weight="400" stroke-linejoin="bevel" font-size="29.1042">
    <path fill-rule="evenodd" d="M-400,185 L-362,185" vector-effect="none"/>
   </g>
   <g stroke="#212529" font-style="normal" stroke-linecap="round" font-family="MS Shell Dlg 2" fill="none" transform="matrix(1,0,0,1,1500,900)" stroke-width="2.5" stroke-opacity="1" font-weight="400" stroke-linejoin="bevel" font-size="29.1042">
    <path fill-rule="evenodd" d="M-362,111 L-362,185" vector-effect="none"/>
   </g>
   <g stroke="#212529" font-style="normal" stroke-linecap="round" font-family="MS Shell Dlg 2" fill="none" transform="matrix(1,0,0,1,1500,900)" stroke-width="2.5" stroke-opacity="1" font-weight="400" stroke-linejoin="bevel" font-size="29.1042">
    <path fill-rule="evenodd" d="M-362,111 L-318,111" vector-effect="none"/>
   </g>
   <g stroke="#212529" font-style="normal" stroke-linecap="round" font-family="MS Shell Dlg 2" fill="none" transform="matrix(1,0,0,1,1500,900)" stroke-width="2.5" stroke-opacity="1" font-weight="400" stroke-linejoin="bevel" font-size="29.1042">
    <path fill-rule="evenodd" d="M-318,111 L-318,185" vector-effect="none"/>
   </g>
   <g stroke="#212529" font-style="normal" stroke-linecap="round" font-family="MS Shell Dlg 2" fill="none" transform="matrix(1,0,0,1,1500,900)" stroke-width="2.5" stroke-opacity="1" font-weight="400" stroke-linejoin="bevel" font-size="29.1042">
    <path fill-rule="evenodd" d="M-318,185 L-238,185" vector-effect="none"/>
   </g>
   <g stroke="#212529" font-style="normal" stroke-linecap="round" font-family="MS Shell Dlg 2" fill="none" transform="matrix(1,0,0,1,1500,900)" stroke-width="2.5" stroke-opacity="1" font-weight="400" stroke-linejoin="bevel" font-size="29.1042">
    <path fill-rule="evenodd" d="M-238,185 L-238,225" vector-effect="none"/>
   </g>
   <g stroke="#212529" font-style="normal" stroke-linecap="round" font-family="MS Shell Dlg 2" fill="none" transform="matrix(1,0,0,1,1500,900)" stroke-width="2.5" stroke-opacity="1" font-weight="400" stroke-linejoin="bevel" font-size="29.1042">
    <path fill-rule="evenodd" d="M-238,225 L-82,225" vector-effect="none"/>
   </g>
   <g stroke="#212529" font-style="normal" stroke-linecap="round" font-family="MS Shell Dlg 2" fill="none" transform="matrix(1,0,0,1,1500,900)" stroke-width="2.5" stroke-opacity="1" font-weight="400" stroke-linejoin="bevel" font-size="29.1042">
    <path fill-rule="evenodd" d="M-82,225 L-82,185" vector-effect="none"/>
   </g>
   <g stroke="#212529" font-style="normal" stroke-linecap="round" font-family="MS Shell Dlg 2" fill="none" transform="matrix(1,0,0,1,1500,900)" stroke-width="2.5" stroke-opacity="1" font-weight="400" stroke-linejoin="bevel" font-size="29.1042">
    <path fill-rule="evenodd" d="M-82,185 L82,185" vector-effect="none"/>
   </g>
   <g stroke="#212529" font-style="normal" stroke-linecap="round" font-family="MS Shell Dlg 2" fill="none" transform="matrix(1,0,0,1,1500,900)" stroke-width="2.5" stroke-opacity="1" font-weight="400" stroke-linejoin="bevel" font-size="29.1042">
    <path fill-rule="evenodd" d="M82,185 L82,225" vector-effect="none"/>
   </g>
   <g stroke="#212529" font-style="normal" stroke-linecap="round" font-family="MS Shell Dlg 2" fill="none" transform="matrix(1,0,0,1,1500,900)" stroke-width="2.5" stroke-opacity="1" font-weight="400" stroke-linejoin="bevel" font-size="29.1042">
    <path fill-rule="evenodd" d="M82,225 L238,225" vector-effect="none"/>
   </g>
   <g stroke="#212529" font-style="normal" stroke-linecap="round" font-family="MS Shell Dlg 2" fill="none" transform="matrix(1,0,0,1,1500,900)" stroke-width="2.5" stroke-opacity="1" font-weight="400" stroke-linejoin="bevel" font-size="29.1042">
    <path fill-rule="evenodd" d="M238,225 L238,185" vector-effect="none"/>
   </g>
   <g stroke="#212529" font-style="normal" stroke-linecap="round" font-family="MS Shell Dlg 2" fill="none" transform="matrix(1,0,0,1,1500,900)" stroke-width="2.5" stroke-opacity="1" font-weight="400" stroke-linejoin="bevel" font-size="29.1042">
    <path fill-rule="evenodd" d="M238,185 L318,185" vector-effect="none"/>
   </g>
   <g stroke="#212529" font-style="normal" stroke-linecap="round" font-family="MS Shell Dlg 2" fill="none" transform="matrix(1,0,0,1,1500,900)" stroke-width="2.5" stroke-opacity="1" font-weight="400" stroke-linejoin="bevel" font-size="29.1042">
    <path fill-rule="evenodd" d="M318,111 L318,185" vector-effect="none"/>
   </g>
   <g stroke="#000000" font-style="normal" stroke-linecap="square" font-family="MS Shell Dlg 2" fill="none" transform="matrix(1,0,0,1,1665.37,742.062)" stroke-width="1" stroke-opacity="1" font-weight="400" stroke-linejoin="bevel" font-size="29.1042">
    <text stroke="none" x="4" font-style="normal" fill-opacity="1" font-family="Arial" fill="#000000" font-weight="400" xml:space="preserve" y="66" font-size="69">4,4</text>
   </g>
   <g stroke="#000000" font-style="normal" stroke-linecap="round" font-family="MS Shell Dlg 2" fill="none" transform="matrix(1,0,0,1,1500,900)" stroke-width="1.3" stroke-opacity="1" font-weight="400" stroke-linejoin="bevel" font-size="29.1042">
    <path fill-rule="evenodd" d="M167.067,-75.3382 L432,-75.3382 M362,-111 L362,-64.9382 M318,-111 L318,-64.9382" vector-effect="none"/>
   </g>
   <g stroke="#000000" font-style="normal" fill-opacity="1" stroke-linecap="round" font-family="MS Shell Dlg 2" fill="#000000" transform="matrix(1,0,0,1,1862,824.662)" stroke-width="1.3" stroke-opacity="1" font-weight="400" stroke-linejoin="bevel" font-size="29.1042">
    <path fill-rule="evenodd" d="M0,0 L35,5.83333 L35,-5.83333 L0,0" vector-effect="none"/>
   </g>
   <g stroke="#000000" font-style="normal" fill-opacity="1" stroke-linecap="round" font-family="MS Shell Dlg 2" fill="#000000" transform="matrix(1,0,0,1,1818,824.662)" stroke-width="1.3" stroke-opacity="1" font-weight="400" stroke-linejoin="bevel" font-size="29.1042">
    <path fill-rule="evenodd" d="M0,0 L-35,-5.83333 L-35,5.83333 L0,0" vector-effect="none"/>
   </g>
   <g stroke="#000000" font-style="normal" stroke-linecap="square" font-family="MS Shell Dlg 2" fill="none" transform="matrix(1,0,0,1,1269.5,553.818)" stroke-width="1" stroke-opacity="1" font-weight="400" stroke-linejoin="bevel" font-size="29.1042">
    <text stroke="none" x="4" font-style="normal" fill-opacity="1" font-family="Arial" fill="#000000" font-weight="400" xml:space="preserve" y="66" font-size="69">15,6</text>
   </g>
   <g stroke="#000000" font-style="normal" stroke-linecap="round" font-family="MS Shell Dlg 2" fill="none" transform="matrix(1,0,0,1,1500,900)" stroke-width="1.3" stroke-opacity="1" font-weight="400" stroke-linejoin="bevel" font-size="29.1042">
    <path fill-rule="evenodd" d="M-238,-263.332 L-82,-263.332 M-82,-225 L-82,-273.732 M-238,-225 L-238,-273.732" vector-effect="none"/>
   </g>
   <g stroke="#000000" font-style="normal" fill-opacity="1" stroke-linecap="round" font-family="MS Shell Dlg 2" fill="#000000" transform="matrix(1,0,0,1,1418,636.668)" stroke-width="1.3" stroke-opacity="1" font-weight="400" stroke-linejoin="bevel" font-size="29.1042">
    <path fill-rule="evenodd" d="M0,0 L-35,-5.83333 L-35,5.83333 L0,0" vector-effect="none"/>
   </g>
   <g stroke="#000000" font-style="normal" fill-opacity="1" stroke-linecap="round" font-family="MS Shell Dlg 2" fill="#000000" transform="matrix(1,0,0,1,1262,636.668)" stroke-width="1.3" stroke-opacity="1" font-weight="400" stroke-linejoin="bevel" font-size="29.1042">
    <path fill-rule="evenodd" d="M0,0 L35,5.83333 L35,-5.83333 L0,0" vector-effect="none"/>
   </g>
   <g stroke="#000000" font-style="normal" stroke-linecap="square" font-family="MS Shell Dlg 2" fill="none" transform="matrix(1,0,0,1,1458,1123.14)" stroke-width="1" stroke-opacity="1" font-weight="400" stroke-linejoin="bevel" font-size="29.1042">
    <text stroke="none" x="4" font-style="normal" fill-opacity="1" font-family="Arial" fill="#000000" font-weight="400" xml:space="preserve" y="66" font-size="69">80</text>
   </g>
   <g stroke="#000000" font-style="normal" stroke-linecap="round" font-family="MS Shell Dlg 2" fill="none" transform="matrix(1,0,0,1,1500,900)" stroke-width="1.3" stroke-opacity="1" font-weight="400" stroke-linejoin="bevel" font-size="29.1042">
    <path fill-rule="evenodd" d="M400,303.744 L-400,303.744 M-400,-37 L-400,314.144 M400,-37 L400,314.144" vector-effect="none"/>
   </g>
   <g stroke="#000000" font-style="normal" fill-opacity="1" stroke-linecap="round" font-family="MS Shell Dlg 2" fill="#000000" transform="matrix(1,0,0,1,1100,1203.74)" stroke-width="1.3" stroke-opacity="1" font-weight="400" stroke-linejoin="bevel" font-size="29.1042">
    <path fill-rule="evenodd" d="M0,0 L35,5.83333 L35,-5.83333 L0,0" vector-effect="none"/>
   </g>
   <g stroke="#000000" font-style="normal" fill-opacity="1" stroke-linecap="round" font-family="MS Shell Dlg 2" fill="#000000" transform="matrix(1,0,0,1,1900,1203.74)" stroke-width="1.3" stroke-opacity="1" font-weight="400" stroke-linejoin="bevel" font-size="29.1042">
    <path fill-rule="evenodd" d="M0,0 L-35,-5.83333 L-35,5.83333 L0,0" vector-effect="none"/>
   </g>
   <g stroke="#000000" font-style="normal" stroke-linecap="square" font-family="MS Shell Dlg 2" fill="none" transform="matrix(0,-1,1,0,1917.6,942)" stroke-width="1" stroke-opacity="1" font-weight="400" stroke-linejoin="bevel" font-size="29.1042">
    <text stroke="none" x="4" font-style="normal" fill-opacity="1" font-family="Arial" fill="#000000" font-weight="400" xml:space="preserve" y="66" font-size="69">37</text>
   </g>
   <g stroke="#000000" font-style="normal" stroke-linecap="round" font-family="MS Shell Dlg 2" fill="none" transform="matrix(1,0,0,1,1500,900)" stroke-width="1.3" stroke-opacity="1" font-weight="400" stroke-linejoin="bevel" font-size="29.1042">
    <path fill-rule="evenodd" d="M498.202,-185 L498.202,185 M400,185 L508.602,185 M400,-185 L508.602,-185" vector-effect="none"/>
   </g>
   <g stroke="#000000" font-style="normal" fill-opacity="1" stroke-linecap="round" font-family="MS Shell Dlg 2" fill="#000000" transform="matrix(1,0,0,1,1998.2,1085)" stroke-width="1.3" stroke-opacity="1" font-weight="400" stroke-linejoin="bevel" font-size="29.1042">
    <path fill-rule="evenodd" d="M0,0 L5.83333,-35 L-5.83333,-35 L0,0" vector-effect="none"/>
   </g>
   <g stroke="#000000" font-style="normal" fill-opacity="1" stroke-linecap="round" font-family="MS Shell Dlg 2" fill="#000000" transform="matrix(1,0,0,1,1998.2,715)" stroke-width="1.3" stroke-opacity="1" font-weight="400" stroke-linejoin="bevel" font-size="29.1042">
    <path fill-rule="evenodd" d="M0,0 L-5.83333,35 L5.83333,35 L0,0" vector-effect="none"/>
   </g>
   <g stroke="#000000" font-style="normal" stroke-linecap="square" font-family="MS Shell Dlg 2" fill="none" transform="matrix(0,-1,1,0,1917.41,718)" stroke-width="1" stroke-opacity="1" font-weight="400" stroke-linejoin="bevel" font-size="29.1042">
    <text stroke="none" x="4" font-style="normal" fill-opacity="1" font-family="Arial" fill="#000000" font-weight="400" xml:space="preserve" y="66" font-size="69">4</text>
   </g>
   <g stroke="#000000" font-style="normal" stroke-linecap="round" font-family="MS Shell Dlg 2" fill="none" transform="matrix(1,0,0,1,1500,900)" stroke-width="1.3" stroke-opacity="1" font-weight="400" stroke-linejoin="bevel" font-size="29.1042">
    <path fill-rule="evenodd" d="M497.514,-115 L497.514,-295 M238,-225 L507.914,-225 M238,-185 L507.914,-185" vector-effect="none"/>
   </g>
   <g stroke="#000000" font-style="normal" fill-opacity="1" stroke-linecap="round" font-family="MS Shell Dlg 2" fill="#000000" transform="matrix(1,0,0,1,1997.51,675)" stroke-width="1.3" stroke-opacity="1" font-weight="400" stroke-linejoin="bevel" font-size="29.1042">
    <path fill-rule="evenodd" d="M0,0 L5.83333,-35 L-5.83333,-35 L0,0" vector-effect="none"/>
   </g>
   <g stroke="#000000" font-style="normal" fill-opacity="1" stroke-linecap="round" font-family="MS Shell Dlg 2" fill="#000000" transform="matrix(1,0,0,1,1997.51,715)" stroke-width="1.3" stroke-opacity="1" font-weight="400" stroke-linejoin="bevel" font-size="29.1042">
    <path fill-rule="evenodd" d="M0,0 L-5.83333,35 L5.83333,35 L0,0" vector-effect="none"/>
   </g>
   <g stroke="#000000" font-style="normal" stroke-linecap="square" font-family="MS Shell Dlg 2" fill="none" transform="matrix(0,-1,1,0,1917.41,1128)" stroke-width="1" stroke-opacity="1" font-weight="400" stroke-linejoin="bevel" font-size="29.1042">
    <text stroke="none" x="4" font-style="normal" fill-opacity="1" font-family="Arial" fill="#000000" font-weight="400" xml:space="preserve" y="66" font-size="69">4</text>
   </g>
   <g stroke="#000000" font-style="normal" stroke-linecap="round" font-family="MS Shell Dlg 2" fill="none" transform="matrix(1,0,0,1,1500,900)" stroke-width="1.3" stroke-opacity="1" font-weight="400" stroke-linejoin="bevel" font-size="29.1042">
    <path fill-rule="evenodd" d="M497.514,295 L497.514,115 M238,185 L507.914,185 M238,225 L507.914,225" vector-effect="none"/>
   </g>
   <g stroke="#000000" font-style="normal" fill-opacity="1" stroke-linecap="round" font-family="MS Shell Dlg 2" fill="#000000" transform="matrix(1,0,0,1,1997.51,1085)" stroke-width="1.3" stroke-opacity="1" font-weight="400" stroke-linejoin="bevel" font-size="29.1042">
    <path fill-rule="evenodd" d="M0,0 L5.83333,-35 L-5.83333,-35 L0,0" vector-effect="none"/>
   </g>
   <g stroke="#000000" font-style="normal" fill-opacity="1" stroke-linecap="round" font-family="MS Shell Dlg 2" fill="#000000" transform="matrix(1,0,0,1,1997.51,1125)" stroke-width="1.3" stroke-opacity="1" font-weight="400" stroke-linejoin="bevel" font-size="29.1042">
    <path fill-rule="evenodd" d="M0,0 L-5.83333,35 L5.83333,35 L0,0" vector-effect="none"/>
   </g>
   <g stroke="#000000" font-style="normal" stroke-linecap="square" font-family="MS Shell Dlg 2" fill="none" transform="matrix(1,0,0,1,1710.76,812.517)" stroke-width="1" stroke-opacity="1" font-weight="400" stroke-linejoin="bevel" font-size="29.1042">
    <text stroke="none" x="4" font-style="normal" fill-opacity="1" font-family="Arial" fill="#000000" font-weight="400" xml:space="preserve" y="66" font-size="69">3,8</text>
   </g>
   <g stroke="#000000" font-style="normal" stroke-linecap="round" font-family="MS Shell Dlg 2" fill="none" transform="matrix(1,0,0,1,1500,900)" stroke-width="1.3" stroke-opacity="1" font-weight="400" stroke-linejoin="bevel" font-size="29.1042">
    <path fill-rule="evenodd" d="M212.965,-4.63268 L470,-4.63268 M400,-37 L400,5.76732 M362,-37 L362,5.76732" vector-effect="none"/>
   </g>
   <g stroke="#000000" font-style="normal" fill-opacity="1" stroke-linecap="round" font-family="MS Shell Dlg 2" fill="#000000" transform="matrix(1,0,0,1,1900,895.367)" stroke-width="1.3" stroke-opacity="1" font-weight="400" stroke-linejoin="bevel" font-size="29.1042">
    <path fill-rule="evenodd" d="M0,0 L35,5.83333 L35,-5.83333 L0,0" vector-effect="none"/>
   </g>
   <g stroke="#000000" font-style="normal" fill-opacity="1" stroke-linecap="round" font-family="MS Shell Dlg 2" fill="#000000" transform="matrix(1,0,0,1,1862,895.367)" stroke-width="1.3" stroke-opacity="1" font-weight="400" stroke-linejoin="bevel" font-size="29.1042">
    <path fill-rule="evenodd" d="M0,0 L-35,-5.83333 L-35,5.83333 L0,0" vector-effect="none"/>
   </g>
   <g stroke="#000000" font-style="normal" stroke-linecap="square" font-family="MS Shell Dlg 2" fill="none" transform="matrix(1,0,0,1,1110.5,553.818)" stroke-width="1" stroke-opacity="1" font-weight="400" stroke-linejoin="bevel" font-size="29.1042">
    <text stroke="none" x="4" font-style="normal" fill-opacity="1" font-family="Arial" fill="#000000" font-weight="400" xml:space="preserve" y="66" font-size="69">16,2</text>
   </g>
   <g stroke="#000000" font-style="normal" stroke-linecap="round" font-family="MS Shell Dlg 2" fill="none" transform="matrix(1,0,0,1,1500,900)" stroke-width="1.3" stroke-opacity="1" font-weight="400" stroke-linejoin="bevel" font-size="29.1042">
    <path fill-rule="evenodd" d="M-400,-263.332 L-238,-263.332 M-238,-185 L-238,-273.732 M-400,-185 L-400,-273.732" vector-effect="none"/>
   </g>
   <g stroke="#000000" font-style="normal" fill-opacity="1" stroke-linecap="round" font-family="MS Shell Dlg 2" fill="#000000" transform="matrix(1,0,0,1,1262,636.668)" stroke-width="1.3" stroke-opacity="1" font-weight="400" stroke-linejoin="bevel" font-size="29.1042">
    <path fill-rule="evenodd" d="M0,0 L-35,-5.83333 L-35,5.83333 L0,0" vector-effect="none"/>
   </g>
   <g stroke="#000000" font-style="normal" fill-opacity="1" stroke-linecap="round" font-family="MS Shell Dlg 2" fill="#000000" transform="matrix(1,0,0,1,1100,636.668)" stroke-width="1.3" stroke-opacity="1" font-weight="400" stroke-linejoin="bevel" font-size="29.1042">
    <path fill-rule="evenodd" d="M0,0 L35,5.83333 L35,-5.83333 L0,0" vector-effect="none"/>
   </g>
   <g stroke="#000000" font-style="normal" stroke-linecap="square" font-family="MS Shell Dlg 2" fill="none" transform="matrix(1,0,0,1,1429.5,553.818)" stroke-width="1" stroke-opacity="1" font-weight="400" stroke-linejoin="bevel" font-size="29.1042">
    <text stroke="none" x="4" font-style="normal" fill-opacity="1" font-family="Arial" fill="#000000" font-weight="400" xml:space="preserve" y="66" font-size="69">16,4</text>
   </g>
   <g stroke="#000000" font-style="normal" stroke-linecap="round" font-family="MS Shell Dlg 2" fill="none" transform="matrix(1,0,0,1,1500,900)" stroke-width="1.3" stroke-opacity="1" font-weight="400" stroke-linejoin="bevel" font-size="29.1042">
    <path fill-rule="evenodd" d="M-82,-263.332 L82,-263.332 M82,-185 L82,-273.732 M-82,-185 L-82,-273.732" vector-effect="none"/>
   </g>
   <g stroke="#000000" font-style="normal" fill-opacity="1" stroke-linecap="round" font-family="MS Shell Dlg 2" fill="#000000" transform="matrix(1,0,0,1,1582,636.668)" stroke-width="1.3" stroke-opacity="1" font-weight="400" stroke-linejoin="bevel" font-size="29.1042">
    <path fill-rule="evenodd" d="M0,0 L-35,-5.83333 L-35,5.83333 L0,0" vector-effect="none"/>
   </g>
   <g stroke="#000000" font-style="normal" fill-opacity="1" stroke-linecap="round" font-family="MS Shell Dlg 2" fill="#000000" transform="matrix(1,0,0,1,1418,636.668)" stroke-width="1.3" stroke-opacity="1" font-weight="400" stroke-linejoin="bevel" font-size="29.1042">
    <path fill-rule="evenodd" d="M0,0 L35,5.83333 L35,-5.83333 L0,0" vector-effect="none"/>
   </g>
  </g>
 </g>
</svg>
