<?xml version="1.0"?>
<!DOCTYPE svg PUBLIC "-//W3C//DTD SVG 1.1//EN" "http://www.w3.org/Graphics/SVG/1.1/DTD/svg11.dtd">
<svg width="122.40000000000003mm" height="87.60000000000002mm" viewBox="0 0 122.40000000000003 87.60000000000002" xmlns="http://www.w3.org/2000/svg" version="1.1">
<g id="Body001007002" transform="translate(1.200000,5.200000) scale(1,-1)">
<path id="Body001007002_f0000"  d="M 0.0 -37.0 L 3.8 -37.0 L 3.8 -37.0 L 7.395570986446986e-31 -37.0 L 7.395570986446986e-31 -37.0 Z " stroke="#000000" stroke-width="0.7 px" style="stroke-width:0.7;stroke-miterlimit:4;stroke-dasharray:none;stroke-linecap:square;fill:#cb496e;fill-opacity:0.19999999999999996;fill-rule: evenodd"/>
<path id="Body001007002_f0001"  d="M 7.395570986446986e-31 -22.2 L 7.395570986446986e-31 -37.0 L 7.395570986446986e-31 -37.0 L 7.395570986446986e-31 -22.200000000000003 L 7.395570986446986e-31 -22.200000000000003 Z " stroke="#000000" stroke-width="0.7 px" style="stroke-width:0.7;stroke-miterlimit:4;stroke-dasharray:none;stroke-linecap:square;fill:#cb496e;fill-opacity:0.19999999999999996;fill-rule: evenodd"/>
<path id="Body001007002_f0002"  d="M 8.200000000000001 -22.2 L 7.395570986446986e-31 -22.2 L 7.395570986446986e-31 -22.200000000000003 L 8.200000000000001 -22.200000000000003 L 8.200000000000001 -22.200000000000003 Z " stroke="#000000" stroke-width="0.7 px" style="stroke-width:0.7;stroke-miterlimit:4;stroke-dasharray:none;stroke-linecap:square;fill:#cb496e;fill-opacity:0.19999999999999996;fill-rule: evenodd"/>
<path id="Body001007002_f0003"  d="M 8.200000000000001 -7.4 L 8.200000000000001 -7.4 L 8.200000000000001 -22.200000000000003 L 8.200000000000001 -22.200000000000003 L 8.200000000000001 -7.4 Z " stroke="#000000" stroke-width="0.7 px" style="stroke-width:0.7;stroke-miterlimit:4;stroke-dasharray:none;stroke-linecap:square;fill:#cb496e;fill-opacity:0.19999999999999996;fill-rule: evenodd"/>
<path id="Body001007002_f0004"  d="M 3.8 -7.4 L 3.8 -7.4 L 8.200000000000001 -7.4 L 8.200000000000001 -7.4 L 3.8 -7.4 Z " stroke="#000000" stroke-width="0.7 px" style="stroke-width:0.7;stroke-miterlimit:4;stroke-dasharray:none;stroke-linecap:square;fill:#cb496e;fill-opacity:0.19999999999999996;fill-rule: evenodd"/>
<path id="Body001007002_f0005"  d="M 3.8 -14.8 L 3.8 -14.8 L 3.8 -7.4 L 3.8 -7.4 L 3.8 -14.800000000000002 Z " stroke="#000000" stroke-width="0.7 px" style="stroke-width:0.7;stroke-miterlimit:4;stroke-dasharray:none;stroke-linecap:square;fill:#cb496e;fill-opacity:0.19999999999999996;fill-rule: evenodd"/>
<path id="Body001007002_f0006"  d="M 0.0 -14.800000000000002 L 3.8 -14.800000000000002 L 3.8 -14.8 L 0.0 -14.8 L 0.0 -14.800000000000002 Z " stroke="#000000" stroke-width="0.7 px" style="stroke-width:0.7;stroke-miterlimit:4;stroke-dasharray:none;stroke-linecap:square;fill:#cb496e;fill-opacity:0.19999999999999996;fill-rule: evenodd"/>
<path id="Body001007002_f0007"  d="M 7.395570986446986e-31 -1.7763568394002505e-15 L 7.395570986446986e-31 -14.800000000000002 L 0.0 -14.8 L 7.395570986446986e-31 -3.944304526105059e-31 L 7.395570986446986e-31 -1.9721522630525295e-31 Z " stroke="#000000" stroke-width="0.7 px" style="stroke-width:0.7;stroke-miterlimit:4;stroke-dasharray:none;stroke-linecap:square;fill:#cb496e;fill-opacity:0.19999999999999996;fill-rule: evenodd"/>
<path id="Body001007002_f0008"  d="M 23.2 0.0 L 7.395570986446986e-31 0.0 L 7.395570986446986e-31 -3.944304526105059e-31 L 23.2 -3.944304526105059e-31 L 23.2 -1.9721522630525295e-31 Z " stroke="#000000" stroke-width="0.7 px" style="stroke-width:0.7;stroke-miterlimit:4;stroke-dasharray:none;stroke-linecap:square;fill:#cb496e;fill-opacity:0.19999999999999996;fill-rule: evenodd"/>
<path id="Body001007002_f0009"  d="M 23.2 4.0 L 23.2 0.0 L 23.2 -3.944304526105059e-31 L 23.2 4.0 L 23.2 4.0 Z " stroke="#000000" stroke-width="0.7 px" style="stroke-width:0.7;stroke-miterlimit:4;stroke-dasharray:none;stroke-linecap:square;fill:#cb496e;fill-opacity:0.19999999999999996;fill-rule: evenodd"/>
<path id="Body001007002_f0010"  d="M 37.6 3.999999999999999 L 23.2 3.999999999999999 L 23.2 4.0 L 37.6 4.0 L 37.6 4.0 Z " stroke="#000000" stroke-width="0.7 px" style="stroke-width:0.7;stroke-miterlimit:4;stroke-dasharray:none;stroke-linecap:square;fill:#cb496e;fill-opacity:0.19999999999999996;fill-rule: evenodd"/>
<path id="Body001007002_f0011"  d="M 37.6 -8.881784197001252e-16 L 37.6 3.999999999999999 L 37.6 4.0 L 37.6 -3.944304526105059e-31 L 37.6 -1.9721522630525295e-31 Z " stroke="#000000" stroke-width="0.7 px" style="stroke-width:0.7;stroke-miterlimit:4;stroke-dasharray:none;stroke-linecap:square;fill:#cb496e;fill-opacity:0.19999999999999996;fill-rule: evenodd"/>
<path id="Body001007002_f0012"  d="M 52.8 0.0 L 37.6 0.0 L 37.6 -3.944304526105059e-31 L 52.8 -3.944304526105059e-31 L 52.8 -1.9721522630525295e-31 Z " stroke="#000000" stroke-width="0.7 px" style="stroke-width:0.7;stroke-miterlimit:4;stroke-dasharray:none;stroke-linecap:square;fill:#cb496e;fill-opacity:0.19999999999999996;fill-rule: evenodd"/>
<path id="Body001007002_f0013"  d="M 52.8 4.0 L 52.8 0.0 L 52.8 -3.944304526105059e-31 L 52.8 4.0 L 52.8 4.0 Z " stroke="#000000" stroke-width="0.7 px" style="stroke-width:0.7;stroke-miterlimit:4;stroke-dasharray:none;stroke-linecap:square;fill:#cb496e;fill-opacity:0.19999999999999996;fill-rule: evenodd"/>
<path id="Body001007002_f0014"  d="M 67.2 3.999999999999999 L 52.8 3.999999999999999 L 52.8 4.0 L 67.2 4.0 L 67.2 4.0 Z " stroke="#000000" stroke-width="0.7 px" style="stroke-width:0.7;stroke-miterlimit:4;stroke-dasharray:none;stroke-linecap:square;fill:#cb496e;fill-opacity:0.19999999999999996;fill-rule: evenodd"/>
<path id="Body001007002_f0015"  d="M 67.2 -8.881784197001252e-16 L 67.2 3.999999999999999 L 67.2 4.0 L 67.2 -3.944304526105059e-31 L 67.2 -1.9721522630525295e-31 Z " stroke="#000000" stroke-width="0.7 px" style="stroke-width:0.7;stroke-miterlimit:4;stroke-dasharray:none;stroke-linecap:square;fill:#cb496e;fill-opacity:0.19999999999999996;fill-rule: evenodd"/>
<path id="Body001007002_f0016"  d="M 82.4 0.0 L 67.2 0.0 L 67.2 -3.944304526105059e-31 L 82.4 -3.944304526105059e-31 L 82.4 -1.9721522630525295e-31 Z " stroke="#000000" stroke-width="0.7 px" style="stroke-width:0.7;stroke-miterlimit:4;stroke-dasharray:none;stroke-linecap:square;fill:#cb496e;fill-opacity:0.19999999999999996;fill-rule: evenodd"/>
<path id="Body001007002_f0017"  d="M 82.4 4.0 L 82.4 0.0 L 82.4 -3.944304526105059e-31 L 82.4 4.0 L 82.4 4.0 Z " stroke="#000000" stroke-width="0.7 px" style="stroke-width:0.7;stroke-miterlimit:4;stroke-dasharray:none;stroke-linecap:square;fill:#cb496e;fill-opacity:0.19999999999999996;fill-rule: evenodd"/>
<path id="Body001007002_f0018"  d="M 96.8 3.999999999999999 L 82.4 3.999999999999999 L 82.4 4.0 L 96.8 4.0 L 96.8 4.0 Z " stroke="#000000" stroke-width="0.7 px" style="stroke-width:0.7;stroke-miterlimit:4;stroke-dasharray:none;stroke-linecap:square;fill:#cb496e;fill-opacity:0.19999999999999996;fill-rule: evenodd"/>
<path id="Body001007002_f0019"  d="M 96.8 -8.881784197001252e-16 L 96.8 3.999999999999999 L 96.8 4.0 L 96.8 -3.944304526105059e-31 L 96.8 -1.9721522630525295e-31 Z " stroke="#000000" stroke-width="0.7 px" style="stroke-width:0.7;stroke-miterlimit:4;stroke-dasharray:none;stroke-linecap:square;fill:#cb496e;fill-opacity:0.19999999999999996;fill-rule: evenodd"/>
<path id="Body001007002_f0020"  d="M 120.0 0.0 L 96.8 0.0 L 96.8 -3.944304526105059e-31 L 120.0 -3.944304526105059e-31 L 120.0 -1.9721522630525295e-31 Z " stroke="#000000" stroke-width="0.7 px" style="stroke-width:0.7;stroke-miterlimit:4;stroke-dasharray:none;stroke-linecap:square;fill:#cb496e;fill-opacity:0.19999999999999996;fill-rule: evenodd"/>
<path id="Body001007002_f0021"  d="M 120.0 -14.8 L 120.0 0.0 L 120.0 -3.944304526105059e-31 L 120.0 -14.8 L 120.0 -14.800000000000002 Z " stroke="#000000" stroke-width="0.7 px" style="stroke-width:0.7;stroke-miterlimit:4;stroke-dasharray:none;stroke-linecap:square;fill:#cb496e;fill-opacity:0.19999999999999996;fill-rule: evenodd"/>
<path id="Body001007002_f0022"  d="M 116.2 -14.800000000000002 L 120.0 -14.800000000000002 L 120.0 -14.8 L 116.2 -14.8 L 116.2 -14.800000000000002 Z " stroke="#000000" stroke-width="0.7 px" style="stroke-width:0.7;stroke-miterlimit:4;stroke-dasharray:none;stroke-linecap:square;fill:#cb496e;fill-opacity:0.19999999999999996;fill-rule: evenodd"/>
<path id="Body001007002_f0023"  d="M 116.2 -7.400000000000002 L 116.2 -14.800000000000002 L 116.2 -14.8 L 116.2 -7.4 L 116.2 -7.4 Z " stroke="#000000" stroke-width="0.7 px" style="stroke-width:0.7;stroke-miterlimit:4;stroke-dasharray:none;stroke-linecap:square;fill:#cb496e;fill-opacity:0.19999999999999996;fill-rule: evenodd"/>
<path id="Body001007002_f0024"  d="M 111.8 -7.4 L 116.2 -7.4 L 116.2 -7.4 L 111.8 -7.4 L 111.8 -7.4 Z " stroke="#000000" stroke-width="0.7 px" style="stroke-width:0.7;stroke-miterlimit:4;stroke-dasharray:none;stroke-linecap:square;fill:#cb496e;fill-opacity:0.19999999999999996;fill-rule: evenodd"/>
<path id="Body001007002_f0025"  d="M 111.8 -22.2 L 111.8 -7.4 L 111.8 -7.4 L 111.8 -22.200000000000003 L 111.8 -22.200000000000003 Z " stroke="#000000" stroke-width="0.7 px" style="stroke-width:0.7;stroke-miterlimit:4;stroke-dasharray:none;stroke-linecap:square;fill:#cb496e;fill-opacity:0.19999999999999996;fill-rule: evenodd"/>
<path id="Body001007002_f0026"  d="M 120.0 -22.2 L 111.8 -22.2 L 111.8 -22.200000000000003 L 120.0 -22.200000000000003 L 120.0 -22.200000000000003 Z " stroke="#000000" stroke-width="0.7 px" style="stroke-width:0.7;stroke-miterlimit:4;stroke-dasharray:none;stroke-linecap:square;fill:#cb496e;fill-opacity:0.19999999999999996;fill-rule: evenodd"/>
<path id="Body001007002_f0027"  d="M 120.0 -37.0 L 120.0 -22.2 L 120.0 -22.200000000000003 L 120.0 -37.0 L 120.0 -37.0 Z " stroke="#000000" stroke-width="0.7 px" style="stroke-width:0.7;stroke-miterlimit:4;stroke-dasharray:none;stroke-linecap:square;fill:#cb496e;fill-opacity:0.19999999999999996;fill-rule: evenodd"/>
<path id="Body001007002_f0028"  d="M 116.2 -37.0 L 116.2 -37.0 L 120.0 -37.0 L 120.0 -37.0 L 116.2 -37.0 Z " stroke="#000000" stroke-width="0.7 px" style="stroke-width:0.7;stroke-miterlimit:4;stroke-dasharray:none;stroke-linecap:square;fill:#cb496e;fill-opacity:0.19999999999999996;fill-rule: evenodd"/>
<path id="Body001007002_f0029"  d="M 116.2 -29.6 L 116.2 -37.0 L 116.2 -37.0 L 116.2 -29.6 L 116.2 -29.6 Z " stroke="#000000" stroke-width="0.7 px" style="stroke-width:0.7;stroke-miterlimit:4;stroke-dasharray:none;stroke-linecap:square;fill:#cb496e;fill-opacity:0.19999999999999996;fill-rule: evenodd"/>
<path id="Body001007002_f0030"  d="M 111.8 -29.6 L 111.8 -29.6 L 116.2 -29.6 L 116.2 -29.6 L 111.8 -29.6 Z " stroke="#000000" stroke-width="0.7 px" style="stroke-width:0.7;stroke-miterlimit:4;stroke-dasharray:none;stroke-linecap:square;fill:#cb496e;fill-opacity:0.19999999999999996;fill-rule: evenodd"/>
<path id="Body001007002_f0031"  d="M 3.8 -37.0 L 3.8 -37.0 L 3.8 -29.6 L 3.8 -29.6 L 3.8 -37.0 Z " stroke="#000000" stroke-width="0.7 px" style="stroke-width:0.7;stroke-miterlimit:4;stroke-dasharray:none;stroke-linecap:square;fill:#cb496e;fill-opacity:0.19999999999999996;fill-rule: evenodd"/>
<path id="Body001007002_f0032"  d="M 3.8 -29.6 L 3.8 -29.6 L 8.2 -29.6 L 8.2 -29.6 L 3.8 -29.6 Z " stroke="#000000" stroke-width="0.7 px" style="stroke-width:0.7;stroke-miterlimit:4;stroke-dasharray:none;stroke-linecap:square;fill:#cb496e;fill-opacity:0.19999999999999996;fill-rule: evenodd"/>
<circle cx="81.80000000000001" cy="-71.0" r="2.7" stroke="#000000" stroke-width="0.7 px" style="stroke-width:0.7;stroke-miterlimit:4;stroke-dasharray:none;stroke-linecap:square;fill:#cb496e"/>
<path id="Body001007002_f0034"  d="M 107.8 -81.2 A 4 4 0 0 1 111.8 -77.2L 111.8 -77.2 A 4 4 0 0 0 107.8 -81.2L 107.8 -81.2 Z " stroke="#000000" stroke-width="0.7 px" style="stroke-width:0.7;stroke-miterlimit:4;stroke-dasharray:none;stroke-linecap:square;fill:#cb496e;fill-opacity:0.19999999999999996;fill-rule: evenodd"/>
<path id="Body001007002_f0035"  d="M 12.200000000000001 -81.2 L 12.200000000000001 -81.2 L 107.8 -81.2 L 107.8 -81.2 L 12.200000000000001 -81.2 Z " stroke="#000000" stroke-width="0.7 px" style="stroke-width:0.7;stroke-miterlimit:4;stroke-dasharray:none;stroke-linecap:square;fill:#cb496e;fill-opacity:0.19999999999999996;fill-rule: evenodd"/>
<path id="Body001007002_f0036"  d="M 8.2 -77.2 A 4 4 0 0 1 12.2 -81.2L 12.200000000000001 -81.2 A 4 4 0 0 0 8.2 -77.2L 8.2 -77.2 Z " stroke="#000000" stroke-width="0.7 px" style="stroke-width:0.7;stroke-miterlimit:4;stroke-dasharray:none;stroke-linecap:square;fill:#cb496e;fill-opacity:0.19999999999999996;fill-rule: evenodd"/>
<path id="Body001007002_f0037"  d="M 81.99999999999997 -41.2 L 81.99999999999997 -36.8 L 81.99999999999997 -36.8 L 81.99999999999997 -41.2 L 81.99999999999997 -41.2 Z " stroke="#000000" stroke-width="0.7 px" style="stroke-width:0.7;stroke-miterlimit:4;stroke-dasharray:none;stroke-linecap:square;fill:#cb496e;fill-opacity:0.19999999999999996;fill-rule: evenodd"/>
<path id="Body001007002_f0038"  d="M 97.20000000000002 -41.2 L 81.99999999999997 -41.2 L 81.99999999999997 -41.2 L 97.20000000000002 -41.2 L 97.20000000000002 -41.2 Z " stroke="#000000" stroke-width="0.7 px" style="stroke-width:0.7;stroke-miterlimit:4;stroke-dasharray:none;stroke-linecap:square;fill:#cb496e;fill-opacity:0.19999999999999996;fill-rule: evenodd"/>
<path id="Body001007002_f0039"  d="M 97.20000000000002 -36.8 L 97.20000000000002 -36.8 L 97.20000000000002 -41.2 L 97.20000000000002 -41.2 L 97.20000000000002 -36.8 Z " stroke="#000000" stroke-width="0.7 px" style="stroke-width:0.7;stroke-miterlimit:4;stroke-dasharray:none;stroke-linecap:square;fill:#cb496e;fill-opacity:0.19999999999999996;fill-rule: evenodd"/>
<path id="Body001007002_f0040"  d="M 52.4 -41.2 L 52.4 -36.8 L 52.4 -36.8 L 52.4 -41.2 L 52.4 -41.2 Z " stroke="#000000" stroke-width="0.7 px" style="stroke-width:0.7;stroke-miterlimit:4;stroke-dasharray:none;stroke-linecap:square;fill:#cb496e;fill-opacity:0.19999999999999996;fill-rule: evenodd"/>
<path id="Body001007002_f0041"  d="M 67.60000000000002 -41.2 L 52.4 -41.2 L 52.4 -41.2 L 67.60000000000002 -41.2 L 67.60000000000002 -41.2 Z " stroke="#000000" stroke-width="0.7 px" style="stroke-width:0.7;stroke-miterlimit:4;stroke-dasharray:none;stroke-linecap:square;fill:#cb496e;fill-opacity:0.19999999999999996;fill-rule: evenodd"/>
<path id="Body001007002_f0042"  d="M 67.60000000000002 -36.8 L 67.60000000000002 -36.8 L 67.60000000000002 -41.2 L 67.60000000000002 -41.2 L 67.60000000000002 -36.8 Z " stroke="#000000" stroke-width="0.7 px" style="stroke-width:0.7;stroke-miterlimit:4;stroke-dasharray:none;stroke-linecap:square;fill:#cb496e;fill-opacity:0.19999999999999996;fill-rule: evenodd"/>
<path id="Body001007002_f0043"  d="M 38.0 -41.2 L 22.799999999999986 -41.2 L 22.799999999999986 -41.2 L 38.0 -41.2 L 38.0 -41.2 Z " stroke="#000000" stroke-width="0.7 px" style="stroke-width:0.7;stroke-miterlimit:4;stroke-dasharray:none;stroke-linecap:square;fill:#cb496e;fill-opacity:0.19999999999999996;fill-rule: evenodd"/>
<path id="Body001007002_f0044"  d="M 38.0 -36.8 L 38.0 -36.8 L 38.0 -41.2 L 38.0 -41.2 L 38.0 -36.8 Z " stroke="#000000" stroke-width="0.7 px" style="stroke-width:0.7;stroke-miterlimit:4;stroke-dasharray:none;stroke-linecap:square;fill:#cb496e;fill-opacity:0.19999999999999996;fill-rule: evenodd"/>
<circle cx="81.80000000000001" cy="-71.0" r="2.7" stroke="#000000" stroke-width="0.7 px" style="stroke-width:0.7;stroke-miterlimit:4;stroke-dasharray:none;stroke-linecap:square;fill:#cb496e"/>
<circle cx="38.2" cy="-71.0" r="2.7" stroke="#000000" stroke-width="0.7 px" style="stroke-width:0.7;stroke-miterlimit:4;stroke-dasharray:none;stroke-linecap:square;fill:#cb496e"/>
<circle cx="91.80000000000001" cy="-61.0" r="2.7" stroke="#000000" stroke-width="0.7 px" style="stroke-width:0.7;stroke-miterlimit:4;stroke-dasharray:none;stroke-linecap:square;fill:#cb496e"/>
<circle cx="28.200000000000003" cy="-61.0" r="2.7" stroke="#000000" stroke-width="0.7 px" style="stroke-width:0.7;stroke-miterlimit:4;stroke-dasharray:none;stroke-linecap:square;fill:#cb496e"/>
<circle cx="81.80000000000001" cy="-71.0" r="2.7" stroke="#000000" stroke-width="0.7 px" style="stroke-width:0.7;stroke-miterlimit:4;stroke-dasharray:none;stroke-linecap:square;fill:#cb496e"/>
<path id="Body001007002_f0050"  d="M 8.2 -29.6 L 8.2 -29.6 L 8.2 -77.2 L 8.2 -77.2 L 8.2 -29.600000000000005 Z " stroke="#000000" stroke-width="0.7 px" style="stroke-width:0.7;stroke-miterlimit:4;stroke-dasharray:none;stroke-linecap:square;fill:#cb496e;fill-opacity:0.19999999999999996;fill-rule: evenodd"/>
<path id="Body001007002_f0051"  d="M 111.8 -77.2 L 111.8 -77.2 L 111.8 -29.6 L 111.8 -29.6 L 111.8 -77.2 Z " stroke="#000000" stroke-width="0.7 px" style="stroke-width:0.7;stroke-miterlimit:4;stroke-dasharray:none;stroke-linecap:square;fill:#cb496e;fill-opacity:0.19999999999999996;fill-rule: evenodd"/>
<path id="Body001007002_f0052"  d="M 81.99999999999997 -36.8 L 81.99999999999997 -36.8 L 97.20000000000002 -36.8 L 97.20000000000002 -36.8 L 81.99999999999997 -36.8 Z " stroke="#000000" stroke-width="0.7 px" style="stroke-width:0.7;stroke-miterlimit:4;stroke-dasharray:none;stroke-linecap:square;fill:#cb496e;fill-opacity:0.19999999999999996;fill-rule: evenodd"/>
<path id="Body001007002_f0053"  d="M 52.4 -36.8 L 52.4 -36.8 L 67.60000000000002 -36.8 L 67.60000000000002 -36.8 L 52.4 -36.8 Z " stroke="#000000" stroke-width="0.7 px" style="stroke-width:0.7;stroke-miterlimit:4;stroke-dasharray:none;stroke-linecap:square;fill:#cb496e;fill-opacity:0.19999999999999996;fill-rule: evenodd"/>
<path id="Body001007002_f0054"  d="M 22.799999999999986 -36.8 L 22.799999999999986 -36.8 L 38.0 -36.8 L 38.0 -36.8 L 22.799999999999986 -36.8 Z " stroke="#000000" stroke-width="0.7 px" style="stroke-width:0.7;stroke-miterlimit:4;stroke-dasharray:none;stroke-linecap:square;fill:#cb496e;fill-opacity:0.19999999999999996;fill-rule: evenodd"/>
<path id="Body001007002_f0055"  d="M 22.799999999999986 -41.2 L 22.799999999999986 -41.2 L 22.799999999999986 -36.8 L 22.799999999999986 -36.8 L 22.799999999999986 -41.2 Z " stroke="#000000" stroke-width="0.7 px" style="stroke-width:0.7;stroke-miterlimit:4;stroke-dasharray:none;stroke-linecap:square;fill:#cb496e;fill-opacity:0.19999999999999996;fill-rule: evenodd"/>
<title>b'B-Long Wall With backmount'</title>
</g>
</svg>