999
FreeCAD v0.20 29603 (Git)
  0
SECTION
  2
HEADER
  9
$ACADVER
  1
AC1014
  9
$ACADMAINTVER
 70
     9
  9
$DWGCODEPAGE
  3
ANSI_1252
  9
$TEXTSTYLE
  7
STANDARD
  9
$DIMSTYLE
  2
STANDARD
  9
$DIMTXSTY
  7
STANDARD
  9
$CMLSTYLE
  2
STANDARD
  9
$LUNITS
 70
2
  9
$INSUNITS
 70
4
  9
$PEXTMAX
 10
50
 20
50
 30
50
  9
$PEXTMIN
 10
0
 20
0
 30
0
  9
$HANDSEED
  5
FFFF
  0
ENDSEC
  0
SECTION
  2
CLASSES
  0
CLASS
  1
ACDBDICTIONARYWDFLT
  2
AcDbDictionaryWithDefault
  3
ObjectDBX Classes
 90
        0
280
     0
281
     0
  0
CLASS
  1
XRECORD
  2
AcDbXrecord
  3
ObjectDBX Classes
 90
        0
280
     0
281
     0
  0
CLASS
  1
LWPOLYLINE
  2
AcDbPolyline
  3
ObjectDBX Classes
 90
        0
280
     0
281
     1
  0
ENDSEC
  0
SECTION
  2
TABLES
  0
TABLE
  2
VPORT
  5
20
330
0
100
AcDbSymbolTable
 70
     1
  0
VPORT
  5
21
330
20
100
AcDbSymbolTableRecord
100
AcDbViewportTableRecord
  2
*ACTIVE
 70
     0
  0
ENDTAB
  0
TABLE
  2
LTYPE
  5
22
330
0
100
AcDbSymbolTable
 70
     1
  0
LTYPE
  5
23
330
21
100
AcDbSymbolTableRecord
100
AcDbLinetypeTableRecord
  2
BYBLOCK
 70
     0
  3

 72
    65
 73
     0
 40
0.0
  0
LTYPE
  5
24
330
21
100
AcDbSymbolTableRecord
100
AcDbLinetypeTableRecord
  2
BYLAYER
 70
     0
  3

 72
    65
 73
     0
 40
0.0
  0
LTYPE
  5
25
330
21
100
AcDbSymbolTableRecord
100
AcDbLinetypeTableRecord
  2
CONTINUOUS
 70
     0
  3
Solid line
 72
    65
 73
     0
 40
0.0
  0
ENDTAB
  0
TABLE
  2
LAYER
  5
AD8
330
0
100
AcDbSymbolTable
 70
17
  0
LAYER
  5
AD9
330
AD8
100
AcDbSymbolTableRecord
100
AcDbLayerTableRecord
  2
0
 70
   0
 62
   7
  6
CONTINUOUS
  0
LAYER
  5
ADA
330
AD8
100
AcDbSymbolTableRecord
100
AcDbLayerTableRecord
  2
View001
 70
    0
 62
    7
  6
CONTINUOUS
  0
LAYER
  5
ADB
330
AD8
100
AcDbSymbolTableRecord
100
AcDbLayerTableRecord
  2
Dimension020
 70
    0
 62
    7
  6
CONTINUOUS
  0
LAYER
  5
ADC
330
AD8
100
AcDbSymbolTableRecord
100
AcDbLayerTableRecord
  2
Dimension021
 70
    0
 62
    7
  6
CONTINUOUS
  0
LAYER
  5
ADD
330
AD8
100
AcDbSymbolTableRecord
100
AcDbLayerTableRecord
  2
Dimension032
 70
    0
 62
    7
  6
CONTINUOUS
  0
LAYER
  5
ADE
330
AD8
100
AcDbSymbolTableRecord
100
AcDbLayerTableRecord
  2
Dimension033
 70
    0
 62
    7
  6
CONTINUOUS
  0
LAYER
  5
ADF
330
AD8
100
AcDbSymbolTableRecord
100
AcDbLayerTableRecord
  2
Dimension034
 70
    0
 62
    7
  6
CONTINUOUS
  0
LAYER
  5
AE0
330
AD8
100
AcDbSymbolTableRecord
100
AcDbLayerTableRecord
  2
Dimension035
 70
    0
 62
    7
  6
CONTINUOUS
  0
LAYER
  5
AE1
330
AD8
100
AcDbSymbolTableRecord
100
AcDbLayerTableRecord
  2
Dimension036
 70
    0
 62
    7
  6
CONTINUOUS
  0
LAYER
  5
AE2
330
AD8
100
AcDbSymbolTableRecord
100
AcDbLayerTableRecord
  2
Dimension037
 70
    0
 62
    7
  6
CONTINUOUS
  0
LAYER
  5
AE3
330
AD8
100
AcDbSymbolTableRecord
100
AcDbLayerTableRecord
  2
Dimension038
 70
    0
 62
    7
  6
CONTINUOUS
  0
LAYER
  5
AE4
330
AD8
100
AcDbSymbolTableRecord
100
AcDbLayerTableRecord
  2
Dimension039
 70
    0
 62
    7
  6
CONTINUOUS
  0
LAYER
  5
AE5
330
AD8
100
AcDbSymbolTableRecord
100
AcDbLayerTableRecord
  2
Dimension040
 70
    0
 62
    7
  6
CONTINUOUS
  0
LAYER
  5
AE6
330
AD8
100
AcDbSymbolTableRecord
100
AcDbLayerTableRecord
  2
Dimension041
 70
    0
 62
    7
  6
CONTINUOUS
  0
LAYER
  5
AE7
330
AD8
100
AcDbSymbolTableRecord
100
AcDbLayerTableRecord
  2
Dimension042
 70
    0
 62
    7
  6
CONTINUOUS
  0
LAYER
  5
AE8
330
AD8
100
AcDbSymbolTableRecord
100
AcDbLayerTableRecord
  2
Dimension043
 70
    0
 62
    7
  6
CONTINUOUS
  0
LAYER
  5
AE9
330
AD8
100
AcDbSymbolTableRecord
100
AcDbLayerTableRecord
  2
Dimension044
 70
    0
 62
    7
  6
CONTINUOUS
  0
ENDTAB
  0
TABLE
  2
STYLE
  5
70
330
0
100
AcDbSymbolTable
 70
     2
  0
STYLE
  5
71
330
70
100
AcDbSymbolTableRecord
100
AcDbTextStyleTableRecord
  2
STANDARD
 70
     0
 40
0.0
 41
1.0
 50
0.0
 71
     0
 42
2.5
  3
arial.ttf
  4

  0
STYLE
  5
72
330
70
100
AcDbSymbolTableRecord
100
AcDbTextStyleTableRecord
  2
ANNOTATIVE
 70
     0
 40
0.0
 41
1.0
 50
0.0
 71
     0
 42
2.5
  3
arial.ttf
  4

  0
ENDTAB
  0
TABLE
  2
VIEW
  5
73
330
0
100
AcDbSymbolTable
 70
     0
  0
ENDTAB
  0
TABLE
  2
UCS
  5
74
330
0
100
AcDbSymbolTable
 70
     0
  0
ENDTAB
  0
TABLE
  2
APPID
  5
75
330
0
100
AcDbSymbolTable
 70
     2
  0
APPID
  5
76
330
75
100
AcDbSymbolTableRecord
100
AcDbRegAppTableRecord
  2
ACAD
 70
     0
  0
APPID
  5
77
330
75
100
AcDbSymbolTableRecord
100
AcDbRegAppTableRecord
  2
ACADANNOTATIVE
 70
     0
  0
ENDTAB
  0
TABLE
  2
DIMSTYLE
  5
78
330
0
100
AcDbSymbolTable
 70
     2
  0
DIMSTYLE
105
79
330
78
100
AcDbSymbolTableRecord
100
AcDbDimStyleTableRecord
  2
STANDARD
 70
     0
  3

  4

  5

  6

  7

 40
0.0
 41
2.5
 42
0.625
 43
3.75
 44
1.25
 45
0.0
 46
0.0
 47
0.0
 48
0.0
140
2.5
141
2.5
142
0.0
143
0.03937007874016
144
1.0
145
0.0
146
1.0
147
0.625
 71
     0
 72
     0
 73
     0
 74
     0
 75
     0
 76
     0
 77
     1
 78
     8
170
     0
171
     3
172
     1
173
     0
174
     0
175
     0
176
     0
177
     0
178
     0
270
     2
271
     2
272
     2
273
     2
274
     3
340
71
275
     0
280
     0
281
     0
282
     0
283
     0
284
     8
285
     0
286
     0
287
     3
288
     0
  0
ENDTAB
  0
TABLE
  2
BLOCK_RECORD
  5
A01
330
0
100
AcDbSymbolTable
  70
5
  0
BLOCK_RECORD
  5
A02
330
A01
100
AcDbSymbolTableRecord
100
AcDbBlockTableRecord
  2
*MODEL_SPACE
  0
BLOCK_RECORD
  5
A03
330
A01
100
AcDbSymbolTableRecord
100
AcDbBlockTableRecord
  2
*PAPER_SPACE
  0
BLOCK_RECORD
  5
A45
330
A01
100
AcDbSymbolTableRecord
100
AcDbBlockTableRecord
  2
*Dimension020
  0
BLOCK_RECORD
  5
A4F
330
A01
100
AcDbSymbolTableRecord
100
AcDbBlockTableRecord
  2
*Dimension021
  0
BLOCK_RECORD
  5
A59
330
A01
100
AcDbSymbolTableRecord
100
AcDbBlockTableRecord
  2
*Dimension032
  0
BLOCK_RECORD
  5
A63
330
A01
100
AcDbSymbolTableRecord
100
AcDbBlockTableRecord
  2
*Dimension033
  0
BLOCK_RECORD
  5
A6D
330
A01
100
AcDbSymbolTableRecord
100
AcDbBlockTableRecord
  2
*Dimension034
  0
BLOCK_RECORD
  5
A77
330
A01
100
AcDbSymbolTableRecord
100
AcDbBlockTableRecord
  2
*Dimension035
  0
BLOCK_RECORD
  5
A81
330
A01
100
AcDbSymbolTableRecord
100
AcDbBlockTableRecord
  2
*Dimension036
  0
BLOCK_RECORD
  5
A8B
330
A01
100
AcDbSymbolTableRecord
100
AcDbBlockTableRecord
  2
*Dimension037
  0
BLOCK_RECORD
  5
A95
330
A01
100
AcDbSymbolTableRecord
100
AcDbBlockTableRecord
  2
*Dimension038
  0
BLOCK_RECORD
  5
A9F
330
A01
100
AcDbSymbolTableRecord
100
AcDbBlockTableRecord
  2
*Dimension039
  0
BLOCK_RECORD
  5
AA9
330
A01
100
AcDbSymbolTableRecord
100
AcDbBlockTableRecord
  2
*Dimension040
  0
BLOCK_RECORD
  5
AB3
330
A01
100
AcDbSymbolTableRecord
100
AcDbBlockTableRecord
  2
*Dimension041
  0
BLOCK_RECORD
  5
ABD
330
A01
100
AcDbSymbolTableRecord
100
AcDbBlockTableRecord
  2
*Dimension042
  0
BLOCK_RECORD
  5
AC5
330
A01
100
AcDbSymbolTableRecord
100
AcDbBlockTableRecord
  2
*Dimension043
  0
BLOCK_RECORD
  5
ACF
330
A01
100
AcDbSymbolTableRecord
100
AcDbBlockTableRecord
  2
*Dimension044
  0
ENDTAB
  0
ENDSEC
  0
SECTION
  2
BLOCKS
  0
BLOCK
  5
A04
330
A02
100
AcDbEntity
  8
0
100
AcDbBlockBegin
  2
*MODEL_SPACE
 70
   0
 10
0
 20
0
 30
0
  3
*MODEL_SPACE
  1
 
  0
ENDBLK
  5
A05
330
A02
100
AcDbEntity
  8
0
100
AcDbBlockEnd
  0
BLOCK
  5
A06
330
A03
100
AcDbEntity
 67
1
  8
0
100
AcDbBlockBegin
  2
*PAPER_SPACE
 70
   0
 10
0
 20
0
 30
0
  3
*PAPER_SPACE
  1
 
  0
ENDBLK
  5
A07
330
A03
100
AcDbEntity
 67
    1
  8
0
100
AcDbBlockEnd
  0
BLOCK
  5
A46
330
A45
100
AcDbEntity
  8
Dimension020
100
AcDbBlockBegin
  2
*Dimension020
 70
   1
 10
0
 20
0
 30
0
  3
*Dimension020
  1
 
  0
LINE
  5
A47
330
A45
100
AcDbEntity
  8
Dimension020
100
AcDbLine
 10
210
 20
156
 30
0
 11
210
 21
72.1486
 31
0
  0
LINE
  5
A48
330
A45
100
AcDbEntity
  8
Dimension020
100
AcDbLine
 10
90
 20
156
 30
0
 11
90
 21
72.1486
 31
0
  0
LINE
  5
A49
330
A45
100
AcDbEntity
  8
Dimension020
100
AcDbLine
 10
90
 20
72.1486
 30
0
 11
210
 21
72.1486
 31
0
  0
TEXT
  5
A4A
330
A45
100
AcDbEntity
  8
Dimension020
100
AcDbText
 10
150
 20
77.1486
 30
0
 40
3.5
  1
120
  7
STANDARD
 72
1
 11
150
 21
72.1486
 31
0
100
AcDbText
  0
SOLID
  5
A4B
330
A45
100
AcDbEntity
  8
0
 62
     0
100
AcDbTrace
 10
85
 20
71.732
 30
0
 11
85
 21
72.5653
 31
0
 12
90
 22
72.1486
 32
0
 13
90
 23
72.1486
 33
0
  0
SOLID
  5
A4C
330
A45
100
AcDbEntity
  8
0
 62
     0
100
AcDbTrace
 10
215
 20
71.732
 30
0
 11
215
 21
72.5653
 31
0
 12
210
 22
72.1486
 32
0
 13
210
 23
72.1486
 33
0
  0
ENDBLK
  5
A4D
330
A45
100
AcDbEntity
  8
Dimension020
100
AcDbBlockEnd
  0
BLOCK
  5
A50
330
A4F
100
AcDbEntity
  8
Dimension021
100
AcDbBlockBegin
  2
*Dimension021
 70
   1
 10
0
 20
0
 30
0
  3
*Dimension021
  1
 
  0
LINE
  5
A51
330
A4F
100
AcDbEntity
  8
Dimension021
100
AcDbLine
 10
94
 20
160
 30
0
 11
209.871
 21
160
 31
0
  0
LINE
  5
A52
330
A4F
100
AcDbEntity
  8
Dimension021
100
AcDbLine
 10
94
 20
80
 30
0
 11
209.871
 21
80
 31
0
  0
LINE
  5
A53
330
A4F
100
AcDbEntity
  8
Dimension021
100
AcDbLine
 10
209.871
 20
80
 30
0
 11
209.871
 21
160
 31
0
  0
TEXT
  5
A54
330
A4F
100
AcDbEntity
  8
Dimension021
100
AcDbText
 10
214.871
 20
121.239
 30
0
 40
3.5
  1
80
  7
STANDARD
 72
1
 11
209.871
 21
121.239
 31
0
100
AcDbText
  0
SOLID
  5
A55
330
A4F
100
AcDbEntity
  8
0
 62
     0
100
AcDbTrace
 10
210.288
 20
75
 30
0
 11
209.454
 21
75
 31
0
 12
209.871
 22
80
 32
0
 13
209.871
 23
80
 33
0
  0
SOLID
  5
A56
330
A4F
100
AcDbEntity
  8
0
 62
     0
100
AcDbTrace
 10
210.288
 20
165
 30
0
 11
209.454
 21
165
 31
0
 12
209.871
 22
160
 32
0
 13
209.871
 23
160
 33
0
  0
ENDBLK
  5
A57
330
A4F
100
AcDbEntity
  8
Dimension021
100
AcDbBlockEnd
  0
BLOCK
  5
A5A
330
A59
100
AcDbEntity
  8
Dimension032
100
AcDbBlockBegin
  2
*Dimension032
 70
   1
 10
0
 20
0
 30
0
  3
*Dimension032
  1
 
  0
LINE
  5
A5B
330
A59
100
AcDbEntity
  8
Dimension032
100
AcDbLine
 10
113
 20
156
 30
0
 11
113
 21
164.186
 31
0
  0
LINE
  5
A5C
330
A59
100
AcDbEntity
  8
Dimension032
100
AcDbLine
 10
90
 20
156
 30
0
 11
90
 21
164.186
 31
0
  0
LINE
  5
A5D
330
A59
100
AcDbEntity
  8
Dimension032
100
AcDbLine
 10
90
 20
164.186
 30
0
 11
113
 21
164.186
 31
0
  0
TEXT
  5
A5E
330
A59
100
AcDbEntity
  8
Dimension032
100
AcDbText
 10
101.15
 20
169.186
 30
0
 40
3.5
  1
23
  7
STANDARD
 72
1
 11
101.15
 21
164.186
 31
0
100
AcDbText
  0
SOLID
  5
A5F
330
A59
100
AcDbEntity
  8
0
 62
     0
100
AcDbTrace
 10
85
 20
164.602
 30
0
 11
85
 21
163.769
 31
0
 12
90
 22
164.186
 32
0
 13
90
 23
164.186
 33
0
  0
SOLID
  5
A60
330
A59
100
AcDbEntity
  8
0
 62
     0
100
AcDbTrace
 10
118
 20
164.602
 30
0
 11
118
 21
163.769
 31
0
 12
113
 22
164.186
 32
0
 13
113
 23
164.186
 33
0
  0
ENDBLK
  5
A61
330
A59
100
AcDbEntity
  8
Dimension032
100
AcDbBlockEnd
  0
BLOCK
  5
A64
330
A63
100
AcDbEntity
  8
Dimension033
100
AcDbBlockBegin
  2
*Dimension033
 70
   1
 10
0
 20
0
 30
0
  3
*Dimension033
  1
 
  0
LINE
  5
A65
330
A63
100
AcDbEntity
  8
Dimension033
100
AcDbLine
 10
113
 20
156.2
 30
0
 11
113
 21
174.186
 31
0
  0
LINE
  5
A66
330
A63
100
AcDbEntity
  8
Dimension033
100
AcDbLine
 10
127.8
 20
156.2
 30
0
 11
127.8
 21
174.186
 31
0
  0
LINE
  5
A67
330
A63
100
AcDbEntity
  8
Dimension033
100
AcDbLine
 10
127.8
 20
174.186
 30
0
 11
113
 21
174.186
 31
0
  0
TEXT
  5
A68
330
A63
100
AcDbEntity
  8
Dimension033
100
AcDbText
 10
120.05
 20
169.186
 30
0
 40
3.5
  1
14,8
  7
STANDARD
 72
1
 11
120.05
 21
174.186
 31
0
100
AcDbText
  0
SOLID
  5
A69
330
A63
100
AcDbEntity
  8
0
 62
     0
100
AcDbTrace
 10
132.8
 20
174.602
 30
0
 11
132.8
 21
173.769
 31
0
 12
127.8
 22
174.186
 32
0
 13
127.8
 23
174.186
 33
0
  0
SOLID
  5
A6A
330
A63
100
AcDbEntity
  8
0
 62
     0
100
AcDbTrace
 10
108
 20
174.602
 30
0
 11
108
 21
173.769
 31
0
 12
113
 22
174.186
 32
0
 13
113
 23
174.186
 33
0
  0
ENDBLK
  5
A6B
330
A63
100
AcDbEntity
  8
Dimension033
100
AcDbBlockEnd
  0
BLOCK
  5
A6E
330
A6D
100
AcDbEntity
  8
Dimension034
100
AcDbBlockBegin
  2
*Dimension034
 70
   1
 10
0
 20
0
 30
0
  3
*Dimension034
  1
 
  0
LINE
  5
A6F
330
A6D
100
AcDbEntity
  8
Dimension034
100
AcDbLine
 10
142.6
 20
151.8
 30
0
 11
142.6
 21
164.186
 31
0
  0
LINE
  5
A70
330
A6D
100
AcDbEntity
  8
Dimension034
100
AcDbLine
 10
127.8
 20
151.8
 30
0
 11
127.8
 21
164.186
 31
0
  0
LINE
  5
A71
330
A6D
100
AcDbEntity
  8
Dimension034
100
AcDbLine
 10
127.8
 20
164.186
 30
0
 11
142.6
 21
164.186
 31
0
  0
TEXT
  5
A72
330
A6D
100
AcDbEntity
  8
Dimension034
100
AcDbText
 10
134.85
 20
169.186
 30
0
 40
3.5
  1
14,8
  7
STANDARD
 72
1
 11
134.85
 21
164.186
 31
0
100
AcDbText
  0
SOLID
  5
A73
330
A6D
100
AcDbEntity
  8
0
 62
     0
100
AcDbTrace
 10
122.8
 20
164.602
 30
0
 11
122.8
 21
163.769
 31
0
 12
127.8
 22
164.186
 32
0
 13
127.8
 23
164.186
 33
0
  0
SOLID
  5
A74
330
A6D
100
AcDbEntity
  8
0
 62
     0
100
AcDbTrace
 10
147.6
 20
164.602
 30
0
 11
147.6
 21
163.769
 31
0
 12
142.6
 22
164.186
 32
0
 13
142.6
 23
164.186
 33
0
  0
ENDBLK
  5
A75
330
A6D
100
AcDbEntity
  8
Dimension034
100
AcDbBlockEnd
  0
BLOCK
  5
A78
330
A77
100
AcDbEntity
  8
Dimension035
100
AcDbBlockBegin
  2
*Dimension035
 70
   1
 10
0
 20
0
 30
0
  3
*Dimension035
  1
 
  0
LINE
  5
A79
330
A77
100
AcDbEntity
  8
Dimension035
100
AcDbLine
 10
93.8
 20
144
 30
0
 11
93.8
 21
94.9184
 31
0
  0
LINE
  5
A7A
330
A77
100
AcDbEntity
  8
Dimension035
100
AcDbLine
 10
98.2
 20
144
 30
0
 11
98.2
 21
94.9184
 31
0
  0
LINE
  5
A7B
330
A77
100
AcDbEntity
  8
Dimension035
100
AcDbLine
 10
98.2
 20
94.9184
 30
0
 11
93.8
 21
94.9184
 31
0
  0
TEXT
  5
A7C
330
A77
100
AcDbEntity
  8
Dimension035
100
AcDbText
 10
84.6136
 20
89.9184
 30
0
 40
3.5
  1
4,4
  7
STANDARD
 72
1
 11
84.6136
 21
94.9184
 31
0
100
AcDbText
  0
SOLID
  5
A7D
330
A77
100
AcDbEntity
  8
0
 62
     0
100
AcDbTrace
 10
103.2
 20
94.5018
 30
0
 11
103.2
 21
95.3351
 31
0
 12
98.2
 22
94.9184
 32
0
 13
98.2
 23
94.9184
 33
0
  0
SOLID
  5
A7E
330
A77
100
AcDbEntity
  8
0
 62
     0
100
AcDbTrace
 10
88.8
 20
94.5018
 30
0
 11
88.8
 21
95.3351
 31
0
 12
93.8
 22
94.9184
 32
0
 13
93.8
 23
94.9184
 33
0
  0
ENDBLK
  5
A7F
330
A77
100
AcDbEntity
  8
Dimension035
100
AcDbBlockEnd
  0
BLOCK
  5
A82
330
A81
100
AcDbEntity
  8
Dimension036
100
AcDbBlockBegin
  2
*Dimension036
 70
   1
 10
0
 20
0
 30
0
  3
*Dimension036
  1
 
  0
LINE
  5
A83
330
A81
100
AcDbEntity
  8
Dimension036
100
AcDbLine
 10
113
 20
151.8
 30
0
 11
196.303
 21
151.8
 31
0
  0
LINE
  5
A84
330
A81
100
AcDbEntity
  8
Dimension036
100
AcDbLine
 10
113
 20
156.2
 30
0
 11
196.303
 21
156.2
 31
0
  0
LINE
  5
A85
330
A81
100
AcDbEntity
  8
Dimension036
100
AcDbLine
 10
196.303
 20
156.2
 30
0
 11
196.303
 21
151.8
 31
0
  0
TEXT
  5
A86
330
A81
100
AcDbEntity
  8
Dimension036
100
AcDbText
 10
191.303
 20
146.515
 30
0
 40
3.5
  1
4,4
  7
STANDARD
 72
1
 11
196.303
 21
146.515
 31
0
100
AcDbText
  0
SOLID
  5
A87
330
A81
100
AcDbEntity
  8
0
 62
     0
100
AcDbTrace
 10
196.72
 20
161.2
 30
0
 11
195.887
 21
161.2
 31
0
 12
196.303
 22
156.2
 32
0
 13
196.303
 23
156.2
 33
0
  0
SOLID
  5
A88
330
A81
100
AcDbEntity
  8
0
 62
     0
100
AcDbTrace
 10
196.72
 20
146.8
 30
0
 11
195.887
 21
146.8
 31
0
 12
196.303
 22
151.8
 32
0
 13
196.303
 23
151.8
 33
0
  0
ENDBLK
  5
A89
330
A81
100
AcDbEntity
  8
Dimension036
100
AcDbBlockEnd
  0
BLOCK
  5
A8C
330
A8B
100
AcDbEntity
  8
Dimension037
100
AcDbBlockBegin
  2
*Dimension037
 70
   1
 10
0
 20
0
 30
0
  3
*Dimension037
  1
 
  0
LINE
  5
A8D
330
A8B
100
AcDbEntity
  8
Dimension037
100
AcDbLine
 10
127.8
 20
156.2
 30
0
 11
200.943
 21
156.2
 31
0
  0
LINE
  5
A8E
330
A8B
100
AcDbEntity
  8
Dimension037
100
AcDbLine
 10
127.8
 20
160
 30
0
 11
200.943
 21
160
 31
0
  0
LINE
  5
A8F
330
A8B
100
AcDbEntity
  8
Dimension037
100
AcDbLine
 10
200.943
 20
160
 30
0
 11
200.943
 21
156.2
 31
0
  0
TEXT
  5
A90
330
A8B
100
AcDbEntity
  8
Dimension037
100
AcDbText
 10
195.943
 20
166.556
 30
0
 40
3.5
  1
3,8
  7
STANDARD
 72
1
 11
200.943
 21
166.556
 31
0
100
AcDbText
  0
SOLID
  5
A91
330
A8B
100
AcDbEntity
  8
0
 62
     0
100
AcDbTrace
 10
201.36
 20
165
 30
0
 11
200.526
 21
165
 31
0
 12
200.943
 22
160
 32
0
 13
200.943
 23
160
 33
0
  0
SOLID
  5
A92
330
A8B
100
AcDbEntity
  8
0
 62
     0
100
AcDbTrace
 10
201.36
 20
151.2
 30
0
 11
200.526
 21
151.2
 31
0
 12
200.943
 22
156.2
 32
0
 13
200.943
 23
156.2
 33
0
  0
ENDBLK
  5
A93
330
A8B
100
AcDbEntity
  8
Dimension037
100
AcDbBlockEnd
  0
BLOCK
  5
A96
330
A95
100
AcDbEntity
  8
Dimension038
100
AcDbBlockBegin
  2
*Dimension038
 70
   1
 10
0
 20
0
 30
0
  3
*Dimension038
  1
 
  0
LINE
  5
A97
330
A95
100
AcDbEntity
  8
Dimension038
100
AcDbLine
 10
93.8
 20
144
 30
0
 11
93.8
 21
91.2247
 31
0
  0
LINE
  5
A98
330
A95
100
AcDbEntity
  8
Dimension038
100
AcDbLine
 10
90
 20
144
 30
0
 11
90
 21
91.2247
 31
0
  0
LINE
  5
A99
330
A95
100
AcDbEntity
  8
Dimension038
100
AcDbLine
 10
90
 20
91.2247
 30
0
 11
93.8
 21
91.2247
 31
0
  0
TEXT
  5
A9A
330
A95
100
AcDbEntity
  8
Dimension038
100
AcDbText
 10
81.7398
 20
96.2247
 30
0
 40
3.5
  1
3,8
  7
STANDARD
 72
1
 11
81.7398
 21
91.2247
 31
0
100
AcDbText
  0
SOLID
  5
A9B
330
A95
100
AcDbEntity
  8
0
 62
     0
100
AcDbTrace
 10
85
 20
90.8081
 30
0
 11
85
 21
91.6414
 31
0
 12
90
 22
91.2247
 32
0
 13
90
 23
91.2247
 33
0
  0
SOLID
  5
A9C
330
A95
100
AcDbEntity
  8
0
 62
     0
100
AcDbTrace
 10
98.8
 20
90.8081
 30
0
 11
98.8
 21
91.6414
 31
0
 12
93.8
 22
91.2247
 32
0
 13
93.8
 23
91.2247
 33
0
  0
ENDBLK
  5
A9D
330
A95
100
AcDbEntity
  8
Dimension038
100
AcDbBlockEnd
  0
BLOCK
  5
AA0
330
A9F
100
AcDbEntity
  8
Dimension039
100
AcDbBlockBegin
  2
*Dimension039
 70
   1
 10
0
 20
0
 30
0
  3
*Dimension039
  1
 
  0
LINE
  5
AA1
330
A9F
100
AcDbEntity
  8
Dimension039
100
AcDbLine
 10
94
 20
144
 30
0
 11
85.3115
 21
144
 31
0
  0
LINE
  5
AA2
330
A9F
100
AcDbEntity
  8
Dimension039
100
AcDbLine
 10
94
 20
160
 30
0
 11
85.3115
 21
160
 31
0
  0
LINE
  5
AA3
330
A9F
100
AcDbEntity
  8
Dimension039
100
AcDbLine
 10
85.3115
 20
160
 30
0
 11
85.3115
 21
144
 31
0
  0
TEXT
  5
AA4
330
A9F
100
AcDbEntity
  8
Dimension039
100
AcDbText
 10
80.3115
 20
154.15
 30
0
 40
3.5
  1
16
  7
STANDARD
 72
1
 11
85.3115
 21
154.15
 31
0
100
AcDbText
  0
SOLID
  5
AA5
330
A9F
100
AcDbEntity
  8
0
 62
     0
100
AcDbTrace
 10
84.8949
 20
165
 30
0
 11
85.7282
 21
165
 31
0
 12
85.3115
 22
160
 32
0
 13
85.3115
 23
160
 33
0
  0
SOLID
  5
AA6
330
A9F
100
AcDbEntity
  8
0
 62
     0
100
AcDbTrace
 10
84.8949
 20
139
 30
0
 11
85.7282
 21
139
 31
0
 12
85.3115
 22
144
 32
0
 13
85.3115
 23
144
 33
0
  0
ENDBLK
  5
AA7
330
A9F
100
AcDbEntity
  8
Dimension039
100
AcDbBlockEnd
  0
BLOCK
  5
AAA
330
AA9
100
AcDbEntity
  8
Dimension040
100
AcDbBlockBegin
  2
*Dimension040
 70
   1
 10
0
 20
0
 30
0
  3
*Dimension040
  1
 
  0
LINE
  5
AAB
330
AA9
100
AcDbEntity
  8
Dimension040
100
AcDbLine
 10
93.8
 20
128
 30
0
 11
85.3115
 21
128
 31
0
  0
LINE
  5
AAC
330
AA9
100
AcDbEntity
  8
Dimension040
100
AcDbLine
 10
93.8
 20
144
 30
0
 11
85.3115
 21
144
 31
0
  0
LINE
  5
AAD
330
AA9
100
AcDbEntity
  8
Dimension040
100
AcDbLine
 10
85.3115
 20
144
 30
0
 11
85.3115
 21
128
 31
0
  0
TEXT
  5
AAE
330
AA9
100
AcDbEntity
  8
Dimension040
100
AcDbText
 10
80.3115
 20
138.15
 30
0
 40
3.5
  1
16
  7
STANDARD
 72
1
 11
85.3115
 21
138.15
 31
0
100
AcDbText
  0
SOLID
  5
AAF
330
AA9
100
AcDbEntity
  8
0
 62
     0
100
AcDbTrace
 10
84.8949
 20
149
 30
0
 11
85.7282
 21
149
 31
0
 12
85.3115
 22
144
 32
0
 13
85.3115
 23
144
 33
0
  0
SOLID
  5
AB0
330
AA9
100
AcDbEntity
  8
0
 62
     0
100
AcDbTrace
 10
84.8949
 20
123
 30
0
 11
85.7282
 21
123
 31
0
 12
85.3115
 22
128
 32
0
 13
85.3115
 23
128
 33
0
  0
ENDBLK
  5
AB1
330
AA9
100
AcDbEntity
  8
Dimension040
100
AcDbBlockEnd
  0
BLOCK
  5
AB4
330
AB3
100
AcDbEntity
  8
Dimension041
100
AcDbBlockBegin
  2
*Dimension041
 70
   1
 10
0
 20
0
 30
0
  3
*Dimension041
  1
 
  0
LINE
  5
AB5
330
AB3
100
AcDbEntity
  8
Dimension041
100
AcDbLine
 10
93.8
 20
112
 30
0
 11
85.3115
 21
112
 31
0
  0
LINE
  5
AB6
330
AB3
100
AcDbEntity
  8
Dimension041
100
AcDbLine
 10
93.8
 20
128
 30
0
 11
85.3115
 21
128
 31
0
  0
LINE
  5
AB7
330
AB3
100
AcDbEntity
  8
Dimension041
100
AcDbLine
 10
85.3115
 20
128
 30
0
 11
85.3115
 21
112
 31
0
  0
TEXT
  5
AB8
330
AB3
100
AcDbEntity
  8
Dimension041
100
AcDbText
 10
80.3115
 20
122.15
 30
0
 40
3.5
  1
16
  7
STANDARD
 72
1
 11
85.3115
 21
122.15
 31
0
100
AcDbText
  0
SOLID
  5
AB9
330
AB3
100
AcDbEntity
  8
0
 62
     0
100
AcDbTrace
 10
84.8949
 20
133
 30
0
 11
85.7282
 21
133
 31
0
 12
85.3115
 22
128
 32
0
 13
85.3115
 23
128
 33
0
  0
SOLID
  5
ABA
330
AB3
100
AcDbEntity
  8
0
 62
     0
100
AcDbTrace
 10
84.8949
 20
107
 30
0
 11
85.7282
 21
107
 31
0
 12
85.3115
 22
112
 32
0
 13
85.3115
 23
112
 33
0
  0
ENDBLK
  5
ABB
330
AB3
100
AcDbEntity
  8
Dimension041
100
AcDbBlockEnd
  0
BLOCK
  5
ABE
330
ABD
100
AcDbEntity
  8
Dimension042
100
AcDbBlockBegin
  2
*Dimension042
 70
   1
 10
0
 20
0
 30
0
  3
*Dimension042
  1
 
  0
LINE
  5
ABF
330
ABD
100
AcDbEntity
  8
Dimension042
100
AcDbLine
 10
105.654
 20
136.393
 30
0
 11
102.346
 21
135.607
 31
0
  0
TEXT
  5
AC0
330
ABD
100
AcDbEntity
  8
Dimension042
100
AcDbText
 10
111.286
 20
142.247
 30
0
 40
3.5
  1
⌀3,4
  7
STANDARD
 72
1
 11
111.286
 21
142.247
 31
0
100
AcDbText
  0
SOLID
  5
AC1
330
ABD
100
AcDbEntity
  8
0
 62
     0
100
AcDbTrace
 10
100.885
 20
134.832
 30
0
 11
100.693
 21
135.643
 31
0
 12
105.654
 22
136.393
 32
0
 13
105.654
 23
136.393
 33
0
  0
SOLID
  5
AC2
330
ABD
100
AcDbEntity
  8
0
 62
     0
100
AcDbTrace
 10
107.307
 20
136.357
 30
0
 11
107.115
 21
137.168
 31
0
 12
102.346
 22
135.607
 32
0
 13
102.346
 23
135.607
 33
0
  0
ENDBLK
  5
AC3
330
ABD
100
AcDbEntity
  8
Dimension042
100
AcDbBlockEnd
  0
BLOCK
  5
AC6
330
AC5
100
AcDbEntity
  8
Dimension043
100
AcDbBlockBegin
  2
*Dimension043
 70
   1
 10
0
 20
0
 30
0
  3
*Dimension043
  1
 
  0
LINE
  5
AC7
330
AC5
100
AcDbEntity
  8
Dimension043
100
AcDbLine
 10
191
 20
104.25
 30
0
 11
191
 21
105.604
 31
0
  0
LINE
  5
AC8
330
AC5
100
AcDbEntity
  8
Dimension043
100
AcDbLine
 10
185
 20
104.25
 30
0
 11
185
 21
105.604
 31
0
  0
LINE
  5
AC9
330
AC5
100
AcDbEntity
  8
Dimension043
100
AcDbLine
 10
185
 20
105.604
 30
0
 11
191
 21
105.604
 31
0
  0
TEXT
  5
ACA
330
AC5
100
AcDbEntity
  8
Dimension043
100
AcDbText
 10
188.876
 20
110.604
 30
0
 40
3.5
  1
6
  7
STANDARD
 72
1
 11
188.876
 21
105.604
 31
0
100
AcDbText
  0
SOLID
  5
ACB
330
AC5
100
AcDbEntity
  8
0
 62
     0
100
AcDbTrace
 10
180
 20
106.021
 30
0
 11
180
 21
105.187
 31
0
 12
185
 22
105.604
 32
0
 13
185
 23
105.604
 33
0
  0
SOLID
  5
ACC
330
AC5
100
AcDbEntity
  8
0
 62
     0
100
AcDbTrace
 10
196
 20
106.021
 30
0
 11
196
 21
105.187
 31
0
 12
191
 22
105.604
 32
0
 13
191
 23
105.604
 33
0
  0
ENDBLK
  5
ACD
330
AC5
100
AcDbEntity
  8
Dimension043
100
AcDbBlockEnd
  0
BLOCK
  5
AD0
330
ACF
100
AcDbEntity
  8
Dimension044
100
AcDbBlockBegin
  2
*Dimension044
 70
   1
 10
0
 20
0
 30
0
  3
*Dimension044
  1
 
  0
LINE
  5
AD1
330
ACF
100
AcDbEntity
  8
Dimension044
100
AcDbLine
 10
190
 20
91.25
 30
0
 11
184.139
 21
91.25
 31
0
  0
LINE
  5
AD2
330
ACF
100
AcDbEntity
  8
Dimension044
100
AcDbLine
 10
190
 20
105.25
 30
0
 11
184.139
 21
105.25
 31
0
  0
LINE
  5
AD3
330
ACF
100
AcDbEntity
  8
Dimension044
100
AcDbLine
 10
184.139
 20
105.25
 30
0
 11
184.139
 21
91.25
 31
0
  0
TEXT
  5
AD4
330
ACF
100
AcDbEntity
  8
Dimension044
100
AcDbText
 10
179.139
 20
99.5238
 30
0
 40
3.5
  1
14
  7
STANDARD
 72
1
 11
184.139
 21
99.5238
 31
0
100
AcDbText
  0
SOLID
  5
AD5
330
ACF
100
AcDbEntity
  8
0
 62
     0
100
AcDbTrace
 10
183.722
 20
110.25
 30
0
 11
184.556
 21
110.25
 31
0
 12
184.139
 22
105.25
 32
0
 13
184.139
 23
105.25
 33
0
  0
SOLID
  5
AD6
330
ACF
100
AcDbEntity
  8
0
 62
     0
100
AcDbTrace
 10
183.722
 20
86.25
 30
0
 11
184.556
 21
86.25
 31
0
 12
184.139
 22
91.25
 32
0
 13
184.139
 23
91.25
 33
0
  0
ENDBLK
  5
AD7
330
ACF
100
AcDbEntity
  8
Dimension044
100
AcDbBlockEnd
  0
ENDSEC
  0
SECTION
  2
ENTITIES
  0
LINE
  5
A08
330
A02
100
AcDbEntity
  8
View001
100
AcDbLine
 10
90
 20
156
 30
0
 11
90
 21
84
 31
0
  0
ARC
  5
A09
330
A02
100
AcDbEntity
  8
View001
100
AcDbCircle
 10
94
 20
156
 30
0
 40
4
100
AcDbArc
 50
90
 51
180
  0
ARC
  5
A0A
330
A02
100
AcDbEntity
  8
View001
100
AcDbCircle
 10
94
 20
84
 30
0
 40
4
100
AcDbArc
 50
180
 51
-90
  0
LINE
  5
A0B
330
A02
100
AcDbEntity
  8
View001
100
AcDbLine
 10
206
 20
160
 30
0
 11
94
 21
160
 31
0
  0
LINE
  5
A0C
330
A02
100
AcDbEntity
  8
View001
100
AcDbLine
 10
94
 20
80
 30
0
 11
206
 21
80
 31
0
  0
ARC
  5
A0D
330
A02
100
AcDbEntity
  8
View001
100
AcDbCircle
 10
206
 20
156
 30
0
 40
4
100
AcDbArc
 50
0
 51
90
  0
ARC
  5
A0E
330
A02
100
AcDbEntity
  8
View001
100
AcDbCircle
 10
206
 20
84
 30
0
 40
4
100
AcDbArc
 50
-90
 51
0
  0
LINE
  5
A0F
330
A02
100
AcDbEntity
  8
View001
100
AcDbLine
 10
210
 20
84
 30
0
 11
210
 21
156
 31
0
  0
LINE
  5
A10
330
A02
100
AcDbEntity
  8
View001
100
AcDbLine
 10
113
 20
151.8
 30
0
 11
127.8
 21
151.8
 31
0
  0
LINE
  5
A11
330
A02
100
AcDbEntity
  8
View001
100
AcDbLine
 10
113
 20
156.2
 30
0
 11
113
 21
151.8
 31
0
  0
LINE
  5
A12
330
A02
100
AcDbEntity
  8
View001
100
AcDbLine
 10
127.8
 20
151.8
 30
0
 11
127.8
 21
156.2
 31
0
  0
LINE
  5
A13
330
A02
100
AcDbEntity
  8
View001
100
AcDbLine
 10
127.8
 20
156.2
 30
0
 11
113
 21
156.2
 31
0
  0
LINE
  5
A14
330
A02
100
AcDbEntity
  8
View001
100
AcDbLine
 10
93.8
 20
128
 30
0
 11
98.2
 21
128
 31
0
  0
LINE
  5
A15
330
A02
100
AcDbEntity
  8
View001
100
AcDbLine
 10
93.8
 20
144
 30
0
 11
93.8
 21
128
 31
0
  0
LINE
  5
A16
330
A02
100
AcDbEntity
  8
View001
100
AcDbLine
 10
98.2
 20
128
 30
0
 11
98.2
 21
144
 31
0
  0
LINE
  5
A17
330
A02
100
AcDbEntity
  8
View001
100
AcDbLine
 10
98.2
 20
144
 30
0
 11
93.8
 21
144
 31
0
  0
CIRCLE
  5
A18
330
A02
100
AcDbEntity
  8
View001
100
AcDbCircle
 10
104
 20
136
 40
1.7
  0
LINE
  5
A19
330
A02
100
AcDbEntity
  8
View001
100
AcDbLine
 10
142.6
 20
151.8
 30
0
 11
157.4
 21
151.8
 31
0
  0
LINE
  5
A1A
330
A02
100
AcDbEntity
  8
View001
100
AcDbLine
 10
142.6
 20
156.2
 30
0
 11
142.6
 21
151.8
 31
0
  0
LINE
  5
A1B
330
A02
100
AcDbEntity
  8
View001
100
AcDbLine
 10
157.4
 20
151.8
 30
0
 11
157.4
 21
156.2
 31
0
  0
LINE
  5
A1C
330
A02
100
AcDbEntity
  8
View001
100
AcDbLine
 10
157.4
 20
156.2
 30
0
 11
142.6
 21
156.2
 31
0
  0
LINE
  5
A1D
330
A02
100
AcDbEntity
  8
View001
100
AcDbLine
 10
172.2
 20
151.8
 30
0
 11
187
 21
151.8
 31
0
  0
LINE
  5
A1E
330
A02
100
AcDbEntity
  8
View001
100
AcDbLine
 10
172.2
 20
156.2
 30
0
 11
172.2
 21
151.8
 31
0
  0
LINE
  5
A1F
330
A02
100
AcDbEntity
  8
View001
100
AcDbLine
 10
187
 20
151.8
 30
0
 11
187
 21
156.2
 31
0
  0
LINE
  5
A20
330
A02
100
AcDbEntity
  8
View001
100
AcDbLine
 10
187
 20
156.2
 30
0
 11
172.2
 21
156.2
 31
0
  0
CIRCLE
  5
A21
330
A02
100
AcDbEntity
  8
View001
100
AcDbCircle
 10
196
 20
136
 40
1.7
  0
LINE
  5
A22
330
A02
100
AcDbEntity
  8
View001
100
AcDbLine
 10
201.8
 20
128
 30
0
 11
206.2
 21
128
 31
0
  0
LINE
  5
A23
330
A02
100
AcDbEntity
  8
View001
100
AcDbLine
 10
201.8
 20
144
 30
0
 11
201.8
 21
128
 31
0
  0
LINE
  5
A24
330
A02
100
AcDbEntity
  8
View001
100
AcDbLine
 10
206.2
 20
128
 30
0
 11
206.2
 21
144
 31
0
  0
LINE
  5
A25
330
A02
100
AcDbEntity
  8
View001
100
AcDbLine
 10
206.2
 20
144
 30
0
 11
201.8
 21
144
 31
0
  0
LINE
  5
A26
330
A02
100
AcDbEntity
  8
View001
100
AcDbLine
 10
93.8
 20
96
 30
0
 11
98.2
 21
96
 31
0
  0
LINE
  5
A27
330
A02
100
AcDbEntity
  8
View001
100
AcDbLine
 10
93.8
 20
112
 30
0
 11
93.8
 21
96
 31
0
  0
LINE
  5
A28
330
A02
100
AcDbEntity
  8
View001
100
AcDbLine
 10
98.2
 20
96
 30
0
 11
98.2
 21
112
 31
0
  0
LINE
  5
A29
330
A02
100
AcDbEntity
  8
View001
100
AcDbLine
 10
98.2
 20
112
 30
0
 11
93.8
 21
112
 31
0
  0
LINE
  5
A2A
330
A02
100
AcDbEntity
  8
View001
100
AcDbLine
 10
113
 20
83.8
 30
0
 11
127.8
 21
83.8
 31
0
  0
LINE
  5
A2B
330
A02
100
AcDbEntity
  8
View001
100
AcDbLine
 10
113
 20
88.2
 30
0
 11
113
 21
83.8
 31
0
  0
LINE
  5
A2C
330
A02
100
AcDbEntity
  8
View001
100
AcDbLine
 10
127.8
 20
83.8
 30
0
 11
127.8
 21
88.2
 31
0
  0
LINE
  5
A2D
330
A02
100
AcDbEntity
  8
View001
100
AcDbLine
 10
127.8
 20
88.2
 30
0
 11
113
 21
88.2
 31
0
  0
CIRCLE
  5
A2E
330
A02
100
AcDbEntity
  8
View001
100
AcDbCircle
 10
124
 20
94
 40
1.7
  0
LINE
  5
A2F
330
A02
100
AcDbEntity
  8
View001
100
AcDbLine
 10
201.8
 20
96
 30
0
 11
206.2
 21
96
 31
0
  0
LINE
  5
A30
330
A02
100
AcDbEntity
  8
View001
100
AcDbLine
 10
201.8
 20
112
 30
0
 11
201.8
 21
96
 31
0
  0
LINE
  5
A31
330
A02
100
AcDbEntity
  8
View001
100
AcDbLine
 10
206.2
 20
96
 30
0
 11
206.2
 21
112
 31
0
  0
LINE
  5
A32
330
A02
100
AcDbEntity
  8
View001
100
AcDbLine
 10
206.2
 20
112
 30
0
 11
201.8
 21
112
 31
0
  0
LINE
  5
A33
330
A02
100
AcDbEntity
  8
View001
100
AcDbLine
 10
142.6
 20
83.8
 30
0
 11
157.4
 21
83.8
 31
0
  0
LINE
  5
A34
330
A02
100
AcDbEntity
  8
View001
100
AcDbLine
 10
142.6
 20
88.2
 30
0
 11
142.6
 21
83.8
 31
0
  0
LINE
  5
A35
330
A02
100
AcDbEntity
  8
View001
100
AcDbLine
 10
157.4
 20
83.8
 30
0
 11
157.4
 21
88.2
 31
0
  0
LINE
  5
A36
330
A02
100
AcDbEntity
  8
View001
100
AcDbLine
 10
157.4
 20
88.2
 30
0
 11
142.6
 21
88.2
 31
0
  0
ARC
  5
A37
330
A02
100
AcDbEntity
  8
View001
100
AcDbCircle
 10
186
 20
92.25
 30
0
 40
1
100
AcDbArc
 50
180
 51
-90
  0
LINE
  5
A38
330
A02
100
AcDbEntity
  8
View001
100
AcDbLine
 10
185
 20
104.25
 30
0
 11
185
 21
92.25
 31
0
  0
ARC
  5
A39
330
A02
100
AcDbEntity
  8
View001
100
AcDbCircle
 10
186
 20
104.25
 30
0
 40
1
100
AcDbArc
 50
90
 51
180
  0
LINE
  5
A3A
330
A02
100
AcDbEntity
  8
View001
100
AcDbLine
 10
190
 20
105.25
 30
0
 11
186
 21
105.25
 31
0
  0
ARC
  5
A3B
330
A02
100
AcDbEntity
  8
View001
100
AcDbCircle
 10
190
 20
104.25
 30
0
 40
1
100
AcDbArc
 50
0
 51
90
  0
LINE
  5
A3C
330
A02
100
AcDbEntity
  8
View001
100
AcDbLine
 10
191
 20
92.25
 30
0
 11
191
 21
104.25
 31
0
  0
ARC
  5
A3D
330
A02
100
AcDbEntity
  8
View001
100
AcDbCircle
 10
190
 20
92.25
 30
0
 40
1
100
AcDbArc
 50
-90
 51
0
  0
LINE
  5
A3E
330
A02
100
AcDbEntity
  8
View001
100
AcDbLine
 10
186
 20
91.25
 30
0
 11
190
 21
91.25
 31
0
  0
CIRCLE
  5
A3F
330
A02
100
AcDbEntity
  8
View001
100
AcDbCircle
 10
196
 20
94
 40
1.7
  0
LINE
  5
A40
330
A02
100
AcDbEntity
  8
View001
100
AcDbLine
 10
172.2
 20
83.8
 30
0
 11
187
 21
83.8
 31
0
  0
LINE
  5
A41
330
A02
100
AcDbEntity
  8
View001
100
AcDbLine
 10
172.2
 20
88.2
 30
0
 11
172.2
 21
83.8
 31
0
  0
LINE
  5
A42
330
A02
100
AcDbEntity
  8
View001
100
AcDbLine
 10
187
 20
83.8
 30
0
 11
187
 21
88.2
 31
0
  0
LINE
  5
A43
330
A02
100
AcDbEntity
  8
View001
100
AcDbLine
 10
187
 20
88.2
 30
0
 11
172.2
 21
88.2
 31
0
  0
DIMENSION
  5
A44
330
A02
100
AcDbEntity
  8
Dimension020
100
AcDbDimension
  2
*Dimension020
 10
150
 20
72.1486
 30
0
 11
150
 21
77.1486
 31
0
 70
32
  1
120
  3
STANDARD
100
AcDbAlignedDimension
 13
90
 23
156
 33
0
 14
210
 24
156
 34
0
100
AcDbRotatedDimension
  0
DIMENSION
  5
A4E
330
A02
100
AcDbEntity
  8
Dimension021
100
AcDbDimension
  2
*Dimension021
 10
209.871
 20
121.239
 30
0
 11
214.871
 21
121.239
 31
0
 70
32
  1
80
  3
STANDARD
100
AcDbAlignedDimension
 13
94
 23
80
 33
0
 14
94
 24
160
 34
0
 50
90
100
AcDbRotatedDimension
  0
DIMENSION
  5
A58
330
A02
100
AcDbEntity
  8
Dimension032
100
AcDbDimension
  2
*Dimension032
 10
101.15
 20
164.186
 30
0
 11
101.15
 21
169.186
 31
0
 70
32
  1
23
  3
STANDARD
100
AcDbAlignedDimension
 13
90
 23
156
 33
0
 14
113
 24
156
 34
0
100
AcDbRotatedDimension
  0
DIMENSION
  5
A62
330
A02
100
AcDbEntity
  8
Dimension033
100
AcDbDimension
  2
*Dimension033
 10
120.05
 20
174.186
 30
0
 11
120.05
 21
169.186
 31
0
 70
32
  1
14,8
  3
STANDARD
100
AcDbAlignedDimension
 13
127.8
 23
156.2
 33
0
 14
113
 24
156.2
 34
0
100
AcDbRotatedDimension
  0
DIMENSION
  5
A6C
330
A02
100
AcDbEntity
  8
Dimension034
100
AcDbDimension
  2
*Dimension034
 10
134.85
 20
164.186
 30
0
 11
134.85
 21
169.186
 31
0
 70
32
  1
14,8
  3
STANDARD
100
AcDbAlignedDimension
 13
127.8
 23
151.8
 33
0
 14
142.6
 24
151.8
 34
0
100
AcDbRotatedDimension
  0
DIMENSION
  5
A76
330
A02
100
AcDbEntity
  8
Dimension035
100
AcDbDimension
  2
*Dimension035
 10
84.6136
 20
94.9184
 30
0
 11
84.6136
 21
89.9184
 31
0
 70
32
  1
4,4
  3
STANDARD
100
AcDbAlignedDimension
 13
98.2
 23
144
 33
0
 14
93.8
 24
144
 34
0
100
AcDbRotatedDimension
  0
DIMENSION
  5
A80
330
A02
100
AcDbEntity
  8
Dimension036
100
AcDbDimension
  2
*Dimension036
 10
196.303
 20
146.515
 30
0
 11
191.303
 21
146.515
 31
0
 70
32
  1
4,4
  3
STANDARD
100
AcDbAlignedDimension
 13
113
 23
156.2
 33
0
 14
113
 24
151.8
 34
0
 50
90
100
AcDbRotatedDimension
  0
DIMENSION
  5
A8A
330
A02
100
AcDbEntity
  8
Dimension037
100
AcDbDimension
  2
*Dimension037
 10
200.943
 20
166.556
 30
0
 11
195.943
 21
166.556
 31
0
 70
32
  1
3,8
  3
STANDARD
100
AcDbAlignedDimension
 13
127.8
 23
160
 33
0
 14
127.8
 24
156.2
 34
0
 50
90
100
AcDbRotatedDimension
  0
DIMENSION
  5
A94
330
A02
100
AcDbEntity
  8
Dimension038
100
AcDbDimension
  2
*Dimension038
 10
81.7398
 20
91.2247
 30
0
 11
81.7398
 21
96.2247
 31
0
 70
32
  1
3,8
  3
STANDARD
100
AcDbAlignedDimension
 13
90
 23
144
 33
0
 14
93.8
 24
144
 34
0
100
AcDbRotatedDimension
  0
DIMENSION
  5
A9E
330
A02
100
AcDbEntity
  8
Dimension039
100
AcDbDimension
  2
*Dimension039
 10
85.3115
 20
154.15
 30
0
 11
80.3115
 21
154.15
 31
0
 70
32
  1
16
  3
STANDARD
100
AcDbAlignedDimension
 13
94
 23
160
 33
0
 14
94
 24
144
 34
0
 50
90
100
AcDbRotatedDimension
  0
DIMENSION
  5
AA8
330
A02
100
AcDbEntity
  8
Dimension040
100
AcDbDimension
  2
*Dimension040
 10
85.3115
 20
138.15
 30
0
 11
80.3115
 21
138.15
 31
0
 70
32
  1
16
  3
STANDARD
100
AcDbAlignedDimension
 13
93.8
 23
144
 33
0
 14
93.8
 24
128
 34
0
 50
90
100
AcDbRotatedDimension
  0
DIMENSION
  5
AB2
330
A02
100
AcDbEntity
  8
Dimension041
100
AcDbDimension
  2
*Dimension041
 10
85.3115
 20
122.15
 30
0
 11
80.3115
 21
122.15
 31
0
 70
32
  1
16
  3
STANDARD
100
AcDbAlignedDimension
 13
93.8
 23
128
 33
0
 14
93.8
 24
112
 34
0
 50
90
100
AcDbRotatedDimension
  0
DIMENSION
  5
ABC
330
A02
100
AcDbEntity
  8
Dimension042
100
AcDbDimension
  2
*Dimension042
 10
105.654
 20
136.393
 30
0
 11
111.286
 21
142.247
 31
0
 70
3
  1
⌀3,4
  3
STANDARD
100
AcDbDiametricDimension
 15
102.346
 25
135.607
 35
0
 40
0
  0
DIMENSION
  5
AC4
330
A02
100
AcDbEntity
  8
Dimension043
100
AcDbDimension
  2
*Dimension043
 10
188.876
 20
105.604
 30
0
 11
188.876
 21
110.604
 31
0
 70
32
  1
6
  3
STANDARD
100
AcDbAlignedDimension
 13
185
 23
104.25
 33
0
 14
191
 24
104.25
 34
0
100
AcDbRotatedDimension
  0
DIMENSION
  5
ACE
330
A02
100
AcDbEntity
  8
Dimension044
100
AcDbDimension
  2
*Dimension044
 10
184.139
 20
99.5238
 30
0
 11
179.139
 21
99.5238
 31
0
 70
32
  1
14
  3
STANDARD
100
AcDbAlignedDimension
 13
190
 23
105.25
 33
0
 14
190
 24
91.25
 34
0
 50
90
100
AcDbRotatedDimension
  0
ENDSEC
  0
SECTION
  2
OBJECTS
  0
DICTIONARY
  5
F000
330
0
100
AcDbDictionary
  3
ACAD_GROUP
350
F001
  0
DICTIONARY
  5
F001
330
F000
100
AcDbDictionary
  0
ENDSEC
  0
EOF