<?xml version='1.0' encoding='UTF-8' standalone='no'?>
<svg xmlns:inkscape="http://www.inkscape.org/namespaces/inkscape" width="297mm" xmlns:xlink="http://www.w3.org/1999/xlink" xmlns:cc="http://creativecommons.org/ns#" height="210mm" xmlns:freecad="http://www.freecadweb.org/wiki/index.php?title=Svg_Namespace" xmlns:sodipodi="http://sodipodi.sourceforge.net/DTD/sodipodi-0.dtd" viewBox="0 0 2970 2100" xmlns="http://www.w3.org/2000/svg" xmlns:dc="http://purl.org/dc/elements/1.1/" xmlns:rdf="http://www.w3.org/1999/02/22-rdf-syntax-ns#" xmlns:svg="http://www.w3.org/2000/svg" version="1.2" baseProfile="tiny">
 <title>FreeCAD SVG Export</title>
 <desc>Drawing page: Page004 exported from FreeCAD document: LeoIoT_Goalfinder_Housing</desc>
 <defs/>
 <g inkscape:groupmode="layer" inkscape:label="TechDraw" id="Page004">
  <g style="stroke: none;" transform="scale(10.000000, 10.000000)" id="A4_Landscape_ISO7200TD.svg">
   <!-- Working space 10 10 287 200 -->
   <!-- Title block 107 162 287 200 -->
   <g>
    <rect width="277" style="fill:none;stroke:#000000;stroke-width:0.35;stroke-linecap:miter;stroke-miterlimit:4" y="20" height="180" x="10" id="drawing-border"/>
    <!-- width-20, height-20 -->
    <g transform="translate(87,-65)">
     <!-- A4 Portrait based for other formats width-210, height-297 -->
     <!--        page       rect   translation
                     w    h    rw   rh   tx   ty
              A4-P  210  297  180  277    0    0
              A3-L  420  297  390  277  210    0
              A2-L  594  420  564  400  384  123
              A1-L  841  594  811  574  631  297
              A0-L 1189  841 1159  821  979  544
      -->
     <g style="fill:none;stroke:#000000;stroke-width:0.35;stroke-linecap:miter;stroke-miterlimit:4" id="titleblock-structure">
      <rect width="180" y="227" height="38" x="20"/>
      <path d="m 20,238 h 180"/>
      <path d="m 80,227 v 11"/>
      <path d="m 140,227 v 38"/>
      <path d="m 160,227 v 11"/>
      <path d="m 180,227 v 11"/>
      <path d="m 140,254 h 60"/>
      <path d="m 180,254 v 11"/>
     </g>
     <g style="font-size:3px;text-anchor:start;fill:#000000;font-family:osifont" id="titleblock-text-non-editable">
      <text y="230.5" x="21">Created by:</text>
      <text y="230.5" x="81">Title:</text>
      <text y="241.5" x="21">Supplementary information:</text>
      <text y="230.5" x="141">Size:</text>
      <text y="230.5" x="161">Sheet:</text>
      <text y="230.5" x="181">Scale:</text>
      <text y="241.5" x="141">Part number:</text>
      <text y="249.5" x="141">Drawing no.:</text>
      <text y="257.5" x="141">Date:</text>
      <text y="257.5" x="181">Revision:</text>
     </g>
     <!-- Set display:none to hide FreeCAD Logo -->
     <g stroke="#000" style="display:inline" stroke-width="0.35" transform="translate(128.5,254)" id="freecad-logo" fill-rule="evenodd" fill="none">
      <path d="m0.1524 0.15254v8.8549h1.9744v-3.4652h1.396v-1.3661h-1.396v-1.4745h3.4391v-2.5441l-5.4135-0.005z"/>
      <path d="m7.7927 3.4504-0.50715-0.176-0.48387-1.2366-0.76115 0.04-0.34718 1.2787-0.4859 0.23269-1.2119-0.53015-0.51188 0.56882 0.65892 1.1485-0.18006 0.50567-1.2366 0.48387 0.044064 0.76263 1.2787 0.34718 0.23269 0.4859-0.53421 1.2104 0.56882 0.51188 1.1485-0.65891 0.50973 0.18155 0.4798 1.2351 0.7667-0.04258 0.34311-1.2802 0.4859-0.23269 1.2145 0.5357 0.51188-0.56882-0.65891-1.1485 0.17748-0.51122 1.2351-0.4798-0.03851-0.76521-1.2802-0.34311-0.23269-0.4859 0.53163-1.216-0.56881-0.51184zm-0.5715 1.2244 0.23576 0.13679 0.20426 0.18519 0.16353 0.22101 0.11763 0.24572 0.06916 0.26489 0.01146 0.27146-0.03921 0.27139-0.08948 0.25764-0.14234 0.23834-0.17964 0.20167-0.22101 0.16353-0.24572 0.11763-0.26489 0.06916-0.27295 0.01553-0.2719-0.04-0.2576-0.089-0.2383-0.143-0.2002-0.183-0.165-0.217-0.1177-0.246-0.0676-0.269-0.0156-0.273 0.039206-0.2714 0.089484-0.25764 0.14085-0.23427 0.18113-0.20574 0.22101-0.16352 0.24572-0.11763 0.26895-0.06768 0.27147-0.01146 0.27139 0.03921 0.25764 0.08948z"/>
     </g>
    </g>
   </g>
   <g style="font-size:5px;text-anchor:start;fill:#000000;font-family:osifont" id="titleblock-text-editable">
    <text y="171" freecad:editable="AUTHOR_NAME" x="108">
     <tspan xml:space="preserve">HTL Leonding, 2BHIF 2324</tspan>
    </text>
    <text y="171" freecad:editable="DRAWING_TITLE" x="168">
     <tspan xml:space="preserve">LeoIoT - Goalfinder</tspan>
    </text>
    <text y="182" freecad:editable="SI-1" x="108">
     <tspan xml:space="preserve">Case for LeoIoT "Goalfinder" hardware</tspan>
    </text>
    <text y="189" freecad:editable="FreeCAD_DRAWING" x="108">
     <tspan xml:space="preserve">Material: 4mm PMMA (acrylic glass)</tspan>
    </text>
    <text y="196" freecad:editable="SI-3" x="108">
     <tspan xml:space="preserve"/>
    </text>
    <text y="171" freecad:editable="FC-SI" x="233">
     <tspan xml:space="preserve">A4</tspan>
    </text>
    <text y="171" freecad:editable="FC-SH" x="251">
     <tspan xml:space="preserve">5 / 5</tspan>
    </text>
    <text y="171" freecad:editable="FC-SC" x="271">
     <tspan xml:space="preserve">1 : 1</tspan>
    </text>
    <text y="181" freecad:editable="PN" x="231">
     <tspan xml:space="preserve">Front and Back Wall</tspan>
    </text>
    <text y="189" freecad:editable="DN" x="231">
     <tspan xml:space="preserve">01</tspan>
    </text>
    <text y="197" freecad:editable="FC-DATE" x="231">
     <tspan xml:space="preserve">30/05/2024</tspan>
    </text>
    <text y="197" freecad:editable="FC-REV" x="269">
     <tspan xml:space="preserve">r 01.00</tspan>
    </text>
   </g>
   <!-- DrawingContent -->
  </g>
  <g stroke-linecap="square" stroke="black" stroke-width="1" id="DrawingContent" fill-rule="evenodd" fill="none" stroke-linejoin="bevel">
   <g stroke="none" font-family="MS Shell Dlg 2" transform="matrix(1,0,0,1,1497.9,900)" font-style="normal" font-size="29.1042" fill="#ffffff" fill-opacity="1" font-weight="400">
    <path d="M-562,-37 L-600,-37 L-600,-185 L-368,-185 L-368,-225 L-224,-225 L-224,-185 L-72,-185 L-72,-225 L72,-225 L72,-185 L224,-185 L224,-225 L368,-225 L368,-185 L600,-185 L600,-37 L562,-37 L562,-111 L518,-111 L518,37 L600,37 L600,185 L562,185 L562,111 L518,111 L518,185 L368,185 L368,225 L224,225 L224,185 L72,185 L72,225 L-72,225 L-72,185 L-224,185 L-224,225 L-368,225 L-368,185 L-518,185 L-518,111 L-562,111 L-562,185 L-600,185 L-600,37 L-518,37 L-518,-111 L-562,-111 L-562,-37" vector-effect="non-scaling-stroke" fill-rule="evenodd"/>
   </g>
   <g stroke-linecap="round" stroke="#000000" stroke-width="2.5" stroke-opacity="1" font-family="MS Shell Dlg 2" transform="matrix(1,0,0,1,1497.9,900)" font-style="normal" font-size="29.1042" fill="none" stroke-linejoin="bevel" font-weight="400">
    <path d="M-562,185 L-600,185" vector-effect="none" fill-rule="evenodd"/>
   </g>
   <g stroke-linecap="round" stroke="#000000" stroke-width="2.5" stroke-opacity="1" font-family="MS Shell Dlg 2" transform="matrix(1,0,0,1,1497.9,900)" font-style="normal" font-size="29.1042" fill="none" stroke-linejoin="bevel" font-weight="400">
    <path d="M-600,185 L-600,37" vector-effect="none" fill-rule="evenodd"/>
   </g>
   <g stroke-linecap="round" stroke="#000000" stroke-width="2.5" stroke-opacity="1" font-family="MS Shell Dlg 2" transform="matrix(1,0,0,1,1497.9,900)" font-style="normal" font-size="29.1042" fill="none" stroke-linejoin="bevel" font-weight="400">
    <path d="M-600,37 L-518,37" vector-effect="none" fill-rule="evenodd"/>
   </g>
   <g stroke-linecap="round" stroke="#000000" stroke-width="2.5" stroke-opacity="1" font-family="MS Shell Dlg 2" transform="matrix(1,0,0,1,1497.9,900)" font-style="normal" font-size="29.1042" fill="none" stroke-linejoin="bevel" font-weight="400">
    <path d="M-518,-111 L-518,37" vector-effect="none" fill-rule="evenodd"/>
   </g>
   <g stroke-linecap="round" stroke="#000000" stroke-width="2.5" stroke-opacity="1" font-family="MS Shell Dlg 2" transform="matrix(1,0,0,1,1497.9,900)" font-style="normal" font-size="29.1042" fill="none" stroke-linejoin="bevel" font-weight="400">
    <path d="M-562,-111 L-518,-111" vector-effect="none" fill-rule="evenodd"/>
   </g>
   <g stroke-linecap="round" stroke="#000000" stroke-width="2.5" stroke-opacity="1" font-family="MS Shell Dlg 2" transform="matrix(1,0,0,1,1497.9,900)" font-style="normal" font-size="29.1042" fill="none" stroke-linejoin="bevel" font-weight="400">
    <path d="M-562,-37 L-562,-111" vector-effect="none" fill-rule="evenodd"/>
   </g>
   <g stroke-linecap="round" stroke="#000000" stroke-width="2.5" stroke-opacity="1" font-family="MS Shell Dlg 2" transform="matrix(1,0,0,1,1497.9,900)" font-style="normal" font-size="29.1042" fill="none" stroke-linejoin="bevel" font-weight="400">
    <path d="M-562,-37 L-600,-37" vector-effect="none" fill-rule="evenodd"/>
   </g>
   <g stroke-linecap="round" stroke="#000000" stroke-width="2.5" stroke-opacity="1" font-family="MS Shell Dlg 2" transform="matrix(1,0,0,1,1497.9,900)" font-style="normal" font-size="29.1042" fill="none" stroke-linejoin="bevel" font-weight="400">
    <path d="M-600,-37 L-600,-185" vector-effect="none" fill-rule="evenodd"/>
   </g>
   <g stroke-linecap="round" stroke="#000000" stroke-width="2.5" stroke-opacity="1" font-family="MS Shell Dlg 2" transform="matrix(1,0,0,1,1497.9,900)" font-style="normal" font-size="29.1042" fill="none" stroke-linejoin="bevel" font-weight="400">
    <path d="M-600,-185 L-368,-185" vector-effect="none" fill-rule="evenodd"/>
   </g>
   <g stroke-linecap="round" stroke="#000000" stroke-width="2.5" stroke-opacity="1" font-family="MS Shell Dlg 2" transform="matrix(1,0,0,1,1497.9,900)" font-style="normal" font-size="29.1042" fill="none" stroke-linejoin="bevel" font-weight="400">
    <path d="M-368,-185 L-368,-225" vector-effect="none" fill-rule="evenodd"/>
   </g>
   <g stroke-linecap="round" stroke="#000000" stroke-width="2.5" stroke-opacity="1" font-family="MS Shell Dlg 2" transform="matrix(1,0,0,1,1497.9,900)" font-style="normal" font-size="29.1042" fill="none" stroke-linejoin="bevel" font-weight="400">
    <path d="M-368,-225 L-224,-225" vector-effect="none" fill-rule="evenodd"/>
   </g>
   <g stroke-linecap="round" stroke="#000000" stroke-width="2.5" stroke-opacity="1" font-family="MS Shell Dlg 2" transform="matrix(1,0,0,1,1497.9,900)" font-style="normal" font-size="29.1042" fill="none" stroke-linejoin="bevel" font-weight="400">
    <path d="M-224,-225 L-224,-185" vector-effect="none" fill-rule="evenodd"/>
   </g>
   <g stroke-linecap="round" stroke="#000000" stroke-width="2.5" stroke-opacity="1" font-family="MS Shell Dlg 2" transform="matrix(1,0,0,1,1497.9,900)" font-style="normal" font-size="29.1042" fill="none" stroke-linejoin="bevel" font-weight="400">
    <path d="M-224,-185 L-72,-185" vector-effect="none" fill-rule="evenodd"/>
   </g>
   <g stroke-linecap="round" stroke="#000000" stroke-width="2.5" stroke-opacity="1" font-family="MS Shell Dlg 2" transform="matrix(1,0,0,1,1497.9,900)" font-style="normal" font-size="29.1042" fill="none" stroke-linejoin="bevel" font-weight="400">
    <path d="M-72,-185 L-72,-225" vector-effect="none" fill-rule="evenodd"/>
   </g>
   <g stroke-linecap="round" stroke="#000000" stroke-width="2.5" stroke-opacity="1" font-family="MS Shell Dlg 2" transform="matrix(1,0,0,1,1497.9,900)" font-style="normal" font-size="29.1042" fill="none" stroke-linejoin="bevel" font-weight="400">
    <path d="M-72,-225 L72,-225" vector-effect="none" fill-rule="evenodd"/>
   </g>
   <g stroke-linecap="round" stroke="#000000" stroke-width="2.5" stroke-opacity="1" font-family="MS Shell Dlg 2" transform="matrix(1,0,0,1,1497.9,900)" font-style="normal" font-size="29.1042" fill="none" stroke-linejoin="bevel" font-weight="400">
    <path d="M72,-225 L72,-185" vector-effect="none" fill-rule="evenodd"/>
   </g>
   <g stroke-linecap="round" stroke="#000000" stroke-width="2.5" stroke-opacity="1" font-family="MS Shell Dlg 2" transform="matrix(1,0,0,1,1497.9,900)" font-style="normal" font-size="29.1042" fill="none" stroke-linejoin="bevel" font-weight="400">
    <path d="M72,-185 L224,-185" vector-effect="none" fill-rule="evenodd"/>
   </g>
   <g stroke-linecap="round" stroke="#000000" stroke-width="2.5" stroke-opacity="1" font-family="MS Shell Dlg 2" transform="matrix(1,0,0,1,1497.9,900)" font-style="normal" font-size="29.1042" fill="none" stroke-linejoin="bevel" font-weight="400">
    <path d="M224,-185 L224,-225" vector-effect="none" fill-rule="evenodd"/>
   </g>
   <g stroke-linecap="round" stroke="#000000" stroke-width="2.5" stroke-opacity="1" font-family="MS Shell Dlg 2" transform="matrix(1,0,0,1,1497.9,900)" font-style="normal" font-size="29.1042" fill="none" stroke-linejoin="bevel" font-weight="400">
    <path d="M224,-225 L368,-225" vector-effect="none" fill-rule="evenodd"/>
   </g>
   <g stroke-linecap="round" stroke="#000000" stroke-width="2.5" stroke-opacity="1" font-family="MS Shell Dlg 2" transform="matrix(1,0,0,1,1497.9,900)" font-style="normal" font-size="29.1042" fill="none" stroke-linejoin="bevel" font-weight="400">
    <path d="M368,-225 L368,-185" vector-effect="none" fill-rule="evenodd"/>
   </g>
   <g stroke-linecap="round" stroke="#000000" stroke-width="2.5" stroke-opacity="1" font-family="MS Shell Dlg 2" transform="matrix(1,0,0,1,1497.9,900)" font-style="normal" font-size="29.1042" fill="none" stroke-linejoin="bevel" font-weight="400">
    <path d="M368,-185 L600,-185" vector-effect="none" fill-rule="evenodd"/>
   </g>
   <g stroke-linecap="round" stroke="#000000" stroke-width="2.5" stroke-opacity="1" font-family="MS Shell Dlg 2" transform="matrix(1,0,0,1,1497.9,900)" font-style="normal" font-size="29.1042" fill="none" stroke-linejoin="bevel" font-weight="400">
    <path d="M600,-185 L600,-37" vector-effect="none" fill-rule="evenodd"/>
   </g>
   <g stroke-linecap="round" stroke="#000000" stroke-width="2.5" stroke-opacity="1" font-family="MS Shell Dlg 2" transform="matrix(1,0,0,1,1497.9,900)" font-style="normal" font-size="29.1042" fill="none" stroke-linejoin="bevel" font-weight="400">
    <path d="M600,-37 L562,-37" vector-effect="none" fill-rule="evenodd"/>
   </g>
   <g stroke-linecap="round" stroke="#000000" stroke-width="2.5" stroke-opacity="1" font-family="MS Shell Dlg 2" transform="matrix(1,0,0,1,1497.9,900)" font-style="normal" font-size="29.1042" fill="none" stroke-linejoin="bevel" font-weight="400">
    <path d="M562,-37 L562,-111" vector-effect="none" fill-rule="evenodd"/>
   </g>
   <g stroke-linecap="round" stroke="#000000" stroke-width="2.5" stroke-opacity="1" font-family="MS Shell Dlg 2" transform="matrix(1,0,0,1,1497.9,900)" font-style="normal" font-size="29.1042" fill="none" stroke-linejoin="bevel" font-weight="400">
    <path d="M562,-111 L518,-111" vector-effect="none" fill-rule="evenodd"/>
   </g>
   <g stroke-linecap="round" stroke="#000000" stroke-width="2.5" stroke-opacity="1" font-family="MS Shell Dlg 2" transform="matrix(1,0,0,1,1497.9,900)" font-style="normal" font-size="29.1042" fill="none" stroke-linejoin="bevel" font-weight="400">
    <path d="M518,-111 L518,37" vector-effect="none" fill-rule="evenodd"/>
   </g>
   <g stroke-linecap="round" stroke="#000000" stroke-width="2.5" stroke-opacity="1" font-family="MS Shell Dlg 2" transform="matrix(1,0,0,1,1497.9,900)" font-style="normal" font-size="29.1042" fill="none" stroke-linejoin="bevel" font-weight="400">
    <path d="M518,37 L600,37" vector-effect="none" fill-rule="evenodd"/>
   </g>
   <g stroke-linecap="round" stroke="#000000" stroke-width="2.5" stroke-opacity="1" font-family="MS Shell Dlg 2" transform="matrix(1,0,0,1,1497.9,900)" font-style="normal" font-size="29.1042" fill="none" stroke-linejoin="bevel" font-weight="400">
    <path d="M600,37 L600,185" vector-effect="none" fill-rule="evenodd"/>
   </g>
   <g stroke-linecap="round" stroke="#000000" stroke-width="2.5" stroke-opacity="1" font-family="MS Shell Dlg 2" transform="matrix(1,0,0,1,1497.9,900)" font-style="normal" font-size="29.1042" fill="none" stroke-linejoin="bevel" font-weight="400">
    <path d="M562,185 L600,185" vector-effect="none" fill-rule="evenodd"/>
   </g>
   <g stroke-linecap="round" stroke="#000000" stroke-width="2.5" stroke-opacity="1" font-family="MS Shell Dlg 2" transform="matrix(1,0,0,1,1497.9,900)" font-style="normal" font-size="29.1042" fill="none" stroke-linejoin="bevel" font-weight="400">
    <path d="M562,185 L562,111" vector-effect="none" fill-rule="evenodd"/>
   </g>
   <g stroke-linecap="round" stroke="#000000" stroke-width="2.5" stroke-opacity="1" font-family="MS Shell Dlg 2" transform="matrix(1,0,0,1,1497.9,900)" font-style="normal" font-size="29.1042" fill="none" stroke-linejoin="bevel" font-weight="400">
    <path d="M518,111 L562,111" vector-effect="none" fill-rule="evenodd"/>
   </g>
   <g stroke-linecap="round" stroke="#000000" stroke-width="2.5" stroke-opacity="1" font-family="MS Shell Dlg 2" transform="matrix(1,0,0,1,1497.9,900)" font-style="normal" font-size="29.1042" fill="none" stroke-linejoin="bevel" font-weight="400">
    <path d="M518,185 L518,111" vector-effect="none" fill-rule="evenodd"/>
   </g>
   <g stroke-linecap="round" stroke="#000000" stroke-width="2.5" stroke-opacity="1" font-family="MS Shell Dlg 2" transform="matrix(1,0,0,1,1497.9,900)" font-style="normal" font-size="29.1042" fill="none" stroke-linejoin="bevel" font-weight="400">
    <path d="M-562,185 L-562,111" vector-effect="none" fill-rule="evenodd"/>
   </g>
   <g stroke-linecap="round" stroke="#000000" stroke-width="2.5" stroke-opacity="1" font-family="MS Shell Dlg 2" transform="matrix(1,0,0,1,1497.9,900)" font-style="normal" font-size="29.1042" fill="none" stroke-linejoin="bevel" font-weight="400">
    <path d="M-518,185 L-518,111" vector-effect="none" fill-rule="evenodd"/>
   </g>
   <g stroke-linecap="round" stroke="#000000" stroke-width="2.5" stroke-opacity="1" font-family="MS Shell Dlg 2" transform="matrix(1,0,0,1,1497.9,900)" font-style="normal" font-size="29.1042" fill="none" stroke-linejoin="bevel" font-weight="400">
    <path d="M-562,111 L-518,111" vector-effect="none" fill-rule="evenodd"/>
   </g>
   <g stroke-linecap="round" stroke="#000000" stroke-width="2.5" stroke-opacity="1" font-family="MS Shell Dlg 2" transform="matrix(1,0,0,1,1497.9,900)" font-style="normal" font-size="29.1042" fill="none" stroke-linejoin="bevel" font-weight="400">
    <path d="M368,185 L518,185" vector-effect="none" fill-rule="evenodd"/>
   </g>
   <g stroke-linecap="round" stroke="#000000" stroke-width="2.5" stroke-opacity="1" font-family="MS Shell Dlg 2" transform="matrix(1,0,0,1,1497.9,900)" font-style="normal" font-size="29.1042" fill="none" stroke-linejoin="bevel" font-weight="400">
    <path d="M368,185 L368,225" vector-effect="none" fill-rule="evenodd"/>
   </g>
   <g stroke-linecap="round" stroke="#000000" stroke-width="2.5" stroke-opacity="1" font-family="MS Shell Dlg 2" transform="matrix(1,0,0,1,1497.9,900)" font-style="normal" font-size="29.1042" fill="none" stroke-linejoin="bevel" font-weight="400">
    <path d="M224,225 L368,225" vector-effect="none" fill-rule="evenodd"/>
   </g>
   <g stroke-linecap="round" stroke="#000000" stroke-width="2.5" stroke-opacity="1" font-family="MS Shell Dlg 2" transform="matrix(1,0,0,1,1497.9,900)" font-style="normal" font-size="29.1042" fill="none" stroke-linejoin="bevel" font-weight="400">
    <path d="M224,225 L224,185" vector-effect="none" fill-rule="evenodd"/>
   </g>
   <g stroke-linecap="round" stroke="#000000" stroke-width="2.5" stroke-opacity="1" font-family="MS Shell Dlg 2" transform="matrix(1,0,0,1,1497.9,900)" font-style="normal" font-size="29.1042" fill="none" stroke-linejoin="bevel" font-weight="400">
    <path d="M224,185 L72,185" vector-effect="none" fill-rule="evenodd"/>
   </g>
   <g stroke-linecap="round" stroke="#000000" stroke-width="2.5" stroke-opacity="1" font-family="MS Shell Dlg 2" transform="matrix(1,0,0,1,1497.9,900)" font-style="normal" font-size="29.1042" fill="none" stroke-linejoin="bevel" font-weight="400">
    <path d="M72,185 L72,225" vector-effect="none" fill-rule="evenodd"/>
   </g>
   <g stroke-linecap="round" stroke="#000000" stroke-width="2.5" stroke-opacity="1" font-family="MS Shell Dlg 2" transform="matrix(1,0,0,1,1497.9,900)" font-style="normal" font-size="29.1042" fill="none" stroke-linejoin="bevel" font-weight="400">
    <path d="M-72,225 L72,225" vector-effect="none" fill-rule="evenodd"/>
   </g>
   <g stroke-linecap="round" stroke="#000000" stroke-width="2.5" stroke-opacity="1" font-family="MS Shell Dlg 2" transform="matrix(1,0,0,1,1497.9,900)" font-style="normal" font-size="29.1042" fill="none" stroke-linejoin="bevel" font-weight="400">
    <path d="M-72,225 L-72,185" vector-effect="none" fill-rule="evenodd"/>
   </g>
   <g stroke-linecap="round" stroke="#000000" stroke-width="2.5" stroke-opacity="1" font-family="MS Shell Dlg 2" transform="matrix(1,0,0,1,1497.9,900)" font-style="normal" font-size="29.1042" fill="none" stroke-linejoin="bevel" font-weight="400">
    <path d="M-224,185 L-72,185" vector-effect="none" fill-rule="evenodd"/>
   </g>
   <g stroke-linecap="round" stroke="#000000" stroke-width="2.5" stroke-opacity="1" font-family="MS Shell Dlg 2" transform="matrix(1,0,0,1,1497.9,900)" font-style="normal" font-size="29.1042" fill="none" stroke-linejoin="bevel" font-weight="400">
    <path d="M-224,185 L-224,225" vector-effect="none" fill-rule="evenodd"/>
   </g>
   <g stroke-linecap="round" stroke="#000000" stroke-width="2.5" stroke-opacity="1" font-family="MS Shell Dlg 2" transform="matrix(1,0,0,1,1497.9,900)" font-style="normal" font-size="29.1042" fill="none" stroke-linejoin="bevel" font-weight="400">
    <path d="M-368,225 L-224,225" vector-effect="none" fill-rule="evenodd"/>
   </g>
   <g stroke-linecap="round" stroke="#000000" stroke-width="2.5" stroke-opacity="1" font-family="MS Shell Dlg 2" transform="matrix(1,0,0,1,1497.9,900)" font-style="normal" font-size="29.1042" fill="none" stroke-linejoin="bevel" font-weight="400">
    <path d="M-368,225 L-368,185" vector-effect="none" fill-rule="evenodd"/>
   </g>
   <g stroke-linecap="round" stroke="#000000" stroke-width="2.5" stroke-opacity="1" font-family="MS Shell Dlg 2" transform="matrix(1,0,0,1,1497.9,900)" font-style="normal" font-size="29.1042" fill="none" stroke-linejoin="bevel" font-weight="400">
    <path d="M-518,185 L-368,185" vector-effect="none" fill-rule="evenodd"/>
   </g>
   <g stroke-linecap="square" stroke="#000000" stroke-width="1" stroke-opacity="1" font-family="MS Shell Dlg 2" transform="matrix(1,0,0,1,957.592,582.424)" font-style="normal" font-size="29.1042" fill="none" stroke-linejoin="bevel" font-weight="400">
    <text stroke="none" y="50" font-family="Arial" x="4" xml:space="preserve" font-style="normal" font-size="50" fill="#000000" fill-opacity="1" font-weight="400">23,2</text>
   </g>
   <g stroke-linecap="round" stroke="#000000" stroke-width="1.3" stroke-opacity="1" font-family="MS Shell Dlg 2" transform="matrix(1,0,0,1,1497.9,900)" font-style="normal" font-size="29.1042" fill="none" stroke-linejoin="bevel" font-weight="400">
    <path d="M-600,-253.726 L-368,-253.726 M-368,-185 L-368,-264.126 M-600,-185 L-600,-264.126" vector-effect="none" fill-rule="evenodd"/>
   </g>
   <g stroke-linecap="round" stroke="#000000" stroke-width="1.3" stroke-opacity="1" font-family="MS Shell Dlg 2" transform="matrix(1,0,0,1,1129.9,646.274)" font-style="normal" font-size="29.1042" fill="none" stroke-linejoin="bevel" font-weight="400">
    <path d="M-16,16 L16,-16" vector-effect="none" fill-rule="evenodd"/>
   </g>
   <g stroke-linecap="round" stroke="#000000" stroke-width="1.3" stroke-opacity="1" font-family="MS Shell Dlg 2" transform="matrix(1,0,0,1,897.898,646.274)" font-style="normal" font-size="29.1042" fill="none" stroke-linejoin="bevel" font-weight="400">
    <path d="M16,-16 L-16,16" vector-effect="none" fill-rule="evenodd"/>
   </g>
   <g stroke-linecap="square" stroke="#000000" stroke-width="1" stroke-opacity="1" font-family="MS Shell Dlg 2" transform="matrix(1,0,0,1,1146.34,582.424)" font-style="normal" font-size="29.1042" fill="none" stroke-linejoin="bevel" font-weight="400">
    <text stroke="none" y="50" font-family="Arial" x="4" xml:space="preserve" font-style="normal" font-size="50" fill="#000000" fill-opacity="1" font-weight="400">14,4</text>
   </g>
   <g stroke-linecap="round" stroke="#000000" stroke-width="1.3" stroke-opacity="1" font-family="MS Shell Dlg 2" transform="matrix(1,0,0,1,1497.9,900)" font-style="normal" font-size="29.1042" fill="none" stroke-linejoin="bevel" font-weight="400">
    <path d="M-368,-253.726 L-224,-253.726 M-224,-225 L-224,-264.126 M-368,-225 L-368,-264.126" vector-effect="none" fill-rule="evenodd"/>
   </g>
   <g stroke-linecap="round" stroke="#000000" stroke-width="1.3" stroke-opacity="1" font-family="MS Shell Dlg 2" transform="matrix(1,0,0,1,1273.9,646.274)" font-style="normal" font-size="29.1042" fill="none" stroke-linejoin="bevel" font-weight="400">
    <path d="M-16,16 L16,-16" vector-effect="none" fill-rule="evenodd"/>
   </g>
   <g stroke-linecap="round" stroke="#000000" stroke-width="1.3" stroke-opacity="1" font-family="MS Shell Dlg 2" transform="matrix(1,0,0,1,1129.9,646.274)" font-style="normal" font-size="29.1042" fill="none" stroke-linejoin="bevel" font-weight="400">
    <path d="M16,-16 L-16,16" vector-effect="none" fill-rule="evenodd"/>
   </g>
   <g stroke-linecap="square" stroke="#000000" stroke-width="1" stroke-opacity="1" font-family="MS Shell Dlg 2" transform="matrix(1,0,0,1,1294.59,582.424)" font-style="normal" font-size="29.1042" fill="none" stroke-linejoin="bevel" font-weight="400">
    <text stroke="none" y="50" font-family="Arial" x="4" xml:space="preserve" font-style="normal" font-size="50" fill="#000000" fill-opacity="1" font-weight="400">15,2</text>
   </g>
   <g stroke-linecap="round" stroke="#000000" stroke-width="1.3" stroke-opacity="1" font-family="MS Shell Dlg 2" transform="matrix(1,0,0,1,1497.9,900)" font-style="normal" font-size="29.1042" fill="none" stroke-linejoin="bevel" font-weight="400">
    <path d="M-224,-253.726 L-72,-253.726 M-72,-185 L-72,-264.126 M-224,-185 L-224,-264.126" vector-effect="none" fill-rule="evenodd"/>
   </g>
   <g stroke-linecap="round" stroke="#000000" stroke-width="1.3" stroke-opacity="1" font-family="MS Shell Dlg 2" transform="matrix(1,0,0,1,1425.9,646.274)" font-style="normal" font-size="29.1042" fill="none" stroke-linejoin="bevel" font-weight="400">
    <path d="M-16,16 L16,-16" vector-effect="none" fill-rule="evenodd"/>
   </g>
   <g stroke-linecap="round" stroke="#000000" stroke-width="1.3" stroke-opacity="1" font-family="MS Shell Dlg 2" transform="matrix(1,0,0,1,1273.9,646.274)" font-style="normal" font-size="29.1042" fill="none" stroke-linejoin="bevel" font-weight="400">
    <path d="M16,-16 L-16,16" vector-effect="none" fill-rule="evenodd"/>
   </g>
   <g stroke-linecap="square" stroke="#000000" stroke-width="1" stroke-opacity="1" font-family="MS Shell Dlg 2" transform="matrix(1,0,0,1,1449.34,1127.55)" font-style="normal" font-size="29.1042" fill="none" stroke-linejoin="bevel" font-weight="400">
    <text stroke="none" y="50" font-family="Arial" x="4" xml:space="preserve" font-style="normal" font-size="50" fill="#000000" fill-opacity="1" font-weight="400">120</text>
   </g>
   <g stroke-linecap="round" stroke="#000000" stroke-width="1.3" stroke-opacity="1" font-family="MS Shell Dlg 2" transform="matrix(1,0,0,1,1497.9,900)" font-style="normal" font-size="29.1042" fill="none" stroke-linejoin="bevel" font-weight="400">
    <path d="M-600,289.397 L600,289.397 M600,185 L600,299.797 M-600,185 L-600,299.797" vector-effect="none" fill-rule="evenodd"/>
   </g>
   <g stroke-linecap="round" stroke="#000000" stroke-width="1.3" stroke-opacity="1" font-family="MS Shell Dlg 2" transform="matrix(1,0,0,1,2097.9,1189.4)" font-style="normal" font-size="29.1042" fill="none" stroke-linejoin="bevel" font-weight="400">
    <path d="M-16,16 L16,-16" vector-effect="none" fill-rule="evenodd"/>
   </g>
   <g stroke-linecap="round" stroke="#000000" stroke-width="1.3" stroke-opacity="1" font-family="MS Shell Dlg 2" transform="matrix(1,0,0,1,897.898,1189.4)" font-style="normal" font-size="29.1042" fill="none" stroke-linejoin="bevel" font-weight="400">
    <path d="M16,-16 L-16,16" vector-effect="none" fill-rule="evenodd"/>
   </g>
   <g stroke-linecap="square" stroke="#000000" stroke-width="1" stroke-opacity="1" font-family="MS Shell Dlg 2" transform="matrix(0,-1,1,0,2118.13,917.962)" font-style="normal" font-size="29.1042" fill="none" stroke-linejoin="bevel" font-weight="400">
    <text stroke="none" y="50" font-family="Arial" x="4" xml:space="preserve" font-style="normal" font-size="50" fill="#000000" fill-opacity="1" font-weight="400">37</text>
   </g>
   <g stroke-linecap="round" stroke="#000000" stroke-width="1.3" stroke-opacity="1" font-family="MS Shell Dlg 2" transform="matrix(1,0,0,1,1497.9,900)" font-style="normal" font-size="29.1042" fill="none" stroke-linejoin="bevel" font-weight="400">
    <path d="M682.082,185 L682.082,-185 M600,-185 L692.482,-185 M600,185 L692.482,185" vector-effect="none" fill-rule="evenodd"/>
   </g>
   <g stroke-linecap="round" stroke="#000000" stroke-width="1.3" stroke-opacity="1" font-family="MS Shell Dlg 2" transform="matrix(1,0,0,1,2179.98,715)" font-style="normal" font-size="29.1042" fill="none" stroke-linejoin="bevel" font-weight="400">
    <path d="M16,16 L-16,-16" vector-effect="none" fill-rule="evenodd"/>
   </g>
   <g stroke-linecap="round" stroke="#000000" stroke-width="1.3" stroke-opacity="1" font-family="MS Shell Dlg 2" transform="matrix(1,0,0,1,2179.98,1085)" font-style="normal" font-size="29.1042" fill="none" stroke-linejoin="bevel" font-weight="400">
    <path d="M-16,-16 L16,16" vector-effect="none" fill-rule="evenodd"/>
   </g>
   <g stroke-linecap="square" stroke="#000000" stroke-width="1" stroke-opacity="1" font-family="MS Shell Dlg 2" transform="matrix(0,-1,1,0,2117.63,707.371)" font-style="normal" font-size="29.1042" fill="none" stroke-linejoin="bevel" font-weight="400">
    <text stroke="none" y="50" font-family="Arial" x="4" xml:space="preserve" font-style="normal" font-size="50" fill="#000000" fill-opacity="1" font-weight="400">4</text>
   </g>
   <g stroke-linecap="round" stroke="#000000" stroke-width="1.3" stroke-opacity="1" font-family="MS Shell Dlg 2" transform="matrix(1,0,0,1,1497.9,900)" font-style="normal" font-size="29.1042" fill="none" stroke-linejoin="bevel" font-weight="400">
    <path d="M681.582,-289 L681.582,-121 M368,-185 L691.982,-185 M368,-225 L691.982,-225" vector-effect="none" fill-rule="evenodd"/>
   </g>
   <g stroke-linecap="round" stroke="#000000" stroke-width="1.3" stroke-opacity="1" font-family="MS Shell Dlg 2" transform="matrix(1,0,0,1,2179.48,715)" font-style="normal" font-size="29.1042" fill="none" stroke-linejoin="bevel" font-weight="400">
    <path d="M16,16 L-16,-16" vector-effect="none" fill-rule="evenodd"/>
   </g>
   <g stroke-linecap="round" stroke="#000000" stroke-width="1.3" stroke-opacity="1" font-family="MS Shell Dlg 2" transform="matrix(1,0,0,1,2179.48,675)" font-style="normal" font-size="29.1042" fill="none" stroke-linejoin="bevel" font-weight="400">
    <path d="M-16,-16 L16,16" vector-effect="none" fill-rule="evenodd"/>
   </g>
   <g stroke-linecap="square" stroke="#000000" stroke-width="1" stroke-opacity="1" font-family="MS Shell Dlg 2" transform="matrix(0,-1,1,0,2119.73,1119.47)" font-style="normal" font-size="29.1042" fill="none" stroke-linejoin="bevel" font-weight="400">
    <text stroke="none" y="50" font-family="Arial" x="4" xml:space="preserve" font-style="normal" font-size="50" fill="#000000" fill-opacity="1" font-weight="400">4</text>
   </g>
   <g stroke-linecap="round" stroke="#000000" stroke-width="1.3" stroke-opacity="1" font-family="MS Shell Dlg 2" transform="matrix(1,0,0,1,1497.9,900)" font-style="normal" font-size="29.1042" fill="none" stroke-linejoin="bevel" font-weight="400">
    <path d="M683.684,121 L683.684,289 M368,225 L694.084,225 M368,185 L694.084,185" vector-effect="none" fill-rule="evenodd"/>
   </g>
   <g stroke-linecap="round" stroke="#000000" stroke-width="1.3" stroke-opacity="1" font-family="MS Shell Dlg 2" transform="matrix(1,0,0,1,2181.58,1125)" font-style="normal" font-size="29.1042" fill="none" stroke-linejoin="bevel" font-weight="400">
    <path d="M16,16 L-16,-16" vector-effect="none" fill-rule="evenodd"/>
   </g>
   <g stroke-linecap="round" stroke="#000000" stroke-width="1.3" stroke-opacity="1" font-family="MS Shell Dlg 2" transform="matrix(1,0,0,1,2181.58,1085)" font-style="normal" font-size="29.1042" fill="none" stroke-linejoin="bevel" font-weight="400">
    <path d="M-16,-16 L16,16" vector-effect="none" fill-rule="evenodd"/>
   </g>
  </g>
 </g>
</svg>
