<?xml version="1.0"?>
<!DOCTYPE svg PUBLIC "-//W3C//DTD SVG 1.1//EN" "http://www.w3.org/Graphics/SVG/1.1/DTD/svg11.dtd">
<svg width="122.4mm" height="98.6mm" viewBox="0 0 122.4 98.6" xmlns="http://www.w3.org/2000/svg" version="1.1">
<g id="Body001007003" transform="translate(1.200000,17.400000) scale(1,-1)">
<path id="Body001007003_f0000"  d="M 112.79999999998027 -1.1479706074624119e-12 L 112.79999999998027 -1.1479706074624119e-12 L 116.0 0.0 L 116.0 0.0 L 112.79999999998027 0.0 Z " stroke="#000000" stroke-width="0.7 px" style="stroke-width:0.7;stroke-miterlimit:4;stroke-dasharray:none;stroke-linecap:square;fill:#55aa7f;fill-opacity:0.19999999999999996;fill-rule: evenodd"/>
<path id="Body001007003_f0001"  d="M 111.80000000000257 -0.9999999999779258 A 1 1 0 0 0 112.8 -2.29594e-12L 112.79999999998027 -1.1479706074624119e-12 A 1 1 0 0 1 111.8 -1L 111.80000000000126 -0.9999999999779255 Z " stroke="#000000" stroke-width="0.7 px" style="stroke-width:0.7;stroke-miterlimit:4;stroke-dasharray:none;stroke-linecap:square;fill:#55aa7f;fill-opacity:0.19999999999999996;fill-rule: evenodd"/>
<path id="Body001007003_f0002"  d="M 116.0 0.0 A 4 4 0 0 0 120 -4L 120.0 -4.0 A 4 4 0 0 1 116 0L 116.0 0.0 Z " stroke="#000000" stroke-width="0.7 px" style="stroke-width:0.7;stroke-miterlimit:4;stroke-dasharray:none;stroke-linecap:square;fill:#55aa7f;fill-opacity:0.19999999999999996;fill-rule: evenodd"/>
<circle cx="14.0" cy="-56.00000000000001" r="1.7" stroke="#000000" stroke-width="0.7 px" style="stroke-width:0.7;stroke-miterlimit:4;stroke-dasharray:none;stroke-linecap:square;fill:#55aa7f"/>
<circle cx="14.0" cy="-56.0" r="3.05" stroke="#000000" stroke-width="0.7 px" style="stroke-width:0.7;stroke-miterlimit:4;stroke-dasharray:none;stroke-linecap:square;fill:#55aa7f"/>
<path id="Body001007003_f0005"  d="M 111.79999999999998 -8.200000000000001 L 111.79999999999998 -8.200000000000001 L 111.80000000000126 -0.9999999999779255 L 111.80000000000126 -0.9999999999779255 L 111.79999999999998 -8.200000000000001 Z " stroke="#000000" stroke-width="0.7 px" style="stroke-width:0.7;stroke-miterlimit:4;stroke-dasharray:none;stroke-linecap:square;fill:#55aa7f;fill-opacity:0.19999999999999996;fill-rule: evenodd"/>
<path id="Body001007003_f0006"  d="M 120.0 -4.0 L 120.0 -4.0 L 120.0 -76.0 L 120.0 -76.0 L 120.0 -4.0 Z " stroke="#000000" stroke-width="0.7 px" style="stroke-width:0.7;stroke-miterlimit:4;stroke-dasharray:none;stroke-linecap:square;fill:#55aa7f;fill-opacity:0.19999999999999996;fill-rule: evenodd"/>
<path id="Body001007003_f0007"  d="M 96.99999999999997 -8.200000000000001 L 96.99999999999997 -8.200000000000001 L 111.79999999999998 -8.200000000000001 L 111.79999999999998 -8.200000000000001 L 96.99999999999997 -8.200000000000001 Z " stroke="#000000" stroke-width="0.7 px" style="stroke-width:0.7;stroke-miterlimit:4;stroke-dasharray:none;stroke-linecap:square;fill:#55aa7f;fill-opacity:0.19999999999999996;fill-rule: evenodd"/>
<path id="Body001007003_f0008"  d="M 120.0 -76.0 A 4 4 0 0 0 116 -80L 116.0 -80.0 A 4 4 0 0 1 120 -76L 120.0 -76.0 Z " stroke="#000000" stroke-width="0.7 px" style="stroke-width:0.7;stroke-miterlimit:4;stroke-dasharray:none;stroke-linecap:square;fill:#55aa7f;fill-opacity:0.19999999999999996;fill-rule: evenodd"/>
<path id="Body001007003_f0009"  d="M 96.99999999999997 14.199999999999978 L 96.99999999999997 14.199999999999978 L 96.99999999999997 -8.200000000000001 L 96.99999999999997 -8.200000000000001 L 96.99999999999997 14.199999999999978 Z " stroke="#000000" stroke-width="0.7 px" style="stroke-width:0.7;stroke-miterlimit:4;stroke-dasharray:none;stroke-linecap:square;fill:#55aa7f;fill-opacity:0.19999999999999996;fill-rule: evenodd"/>
<path id="Body001007003_f0010"  d="M 116.0 -80.0 L 116.0 -80.0 L 3.9999999999999996 -80.0 L 3.9999999999999996 -80.0 L 116.0 -80.0 Z " stroke="#000000" stroke-width="0.7 px" style="stroke-width:0.7;stroke-miterlimit:4;stroke-dasharray:none;stroke-linecap:square;fill:#55aa7f;fill-opacity:0.19999999999999996;fill-rule: evenodd"/>
<path id="Body001007003_f0011"  d="M 94.99999999999997 16.199999999999978 A 2 2 0 0 0 97 14.2L 96.99999999999997 14.199999999999978 A 2 2 0 0 1 95 16.2L 94.99999999999997 16.199999999999978 Z " stroke="#000000" stroke-width="0.7 px" style="stroke-width:0.7;stroke-miterlimit:4;stroke-dasharray:none;stroke-linecap:square;fill:#55aa7f;fill-opacity:0.19999999999999996;fill-rule: evenodd"/>
<path id="Body001007003_f0012"  d="M 4.0 -80.0 A 4 4 0 0 0 0 -76L 0.0 -76.0 A 4 4 0 0 1 4 -80L 3.9999999999999996 -80.0 Z " stroke="#000000" stroke-width="0.7 px" style="stroke-width:0.7;stroke-miterlimit:4;stroke-dasharray:none;stroke-linecap:square;fill:#55aa7f;fill-opacity:0.19999999999999996;fill-rule: evenodd"/>
<path id="Body001007003_f0013"  d="M 84.19999999999999 16.199999999999978 L 84.19999999999999 16.199999999999978 L 94.99999999999997 16.199999999999978 L 94.99999999999997 16.199999999999978 L 84.19999999999999 16.199999999999978 Z " stroke="#000000" stroke-width="0.7 px" style="stroke-width:0.7;stroke-miterlimit:4;stroke-dasharray:none;stroke-linecap:square;fill:#55aa7f;fill-opacity:0.19999999999999996;fill-rule: evenodd"/>
<path id="Body001007003_f0014"  d="M 0.0 -76.0 L 0.0 -76.0 L 0.0 -4.0 L 0.0 -4.0 L 0.0 -76.0 Z " stroke="#000000" stroke-width="0.7 px" style="stroke-width:0.7;stroke-miterlimit:4;stroke-dasharray:none;stroke-linecap:square;fill:#55aa7f;fill-opacity:0.19999999999999996;fill-rule: evenodd"/>
<path id="Body001007003_f0015"  d="M 82.19999999999999 14.199999999999978 A 2 2 0 0 0 84.2 16.2L 84.19999999999999 16.199999999999978 A 2 2 0 0 1 82.2 14.2L 82.19999999999999 14.199999999999978 Z " stroke="#000000" stroke-width="0.7 px" style="stroke-width:0.7;stroke-miterlimit:4;stroke-dasharray:none;stroke-linecap:square;fill:#55aa7f;fill-opacity:0.19999999999999996;fill-rule: evenodd"/>
<path id="Body001007003_f0016"  d="M 0.0 -4.000000000000001 A 4 4 0 0 0 4 0L 4.0 0.0 A 4 4 0 0 1 0 -4L 0.0 -4.0 Z " stroke="#000000" stroke-width="0.7 px" style="stroke-width:0.7;stroke-miterlimit:4;stroke-dasharray:none;stroke-linecap:square;fill:#55aa7f;fill-opacity:0.19999999999999996;fill-rule: evenodd"/>
<path id="Body001007003_f0017"  d="M 82.19999999999999 -8.200000000000001 L 82.19999999999999 -8.200000000000001 L 82.19999999999999 14.199999999999978 L 82.19999999999999 14.199999999999978 L 82.19999999999999 -8.200000000000001 Z " stroke="#000000" stroke-width="0.7 px" style="stroke-width:0.7;stroke-miterlimit:4;stroke-dasharray:none;stroke-linecap:square;fill:#55aa7f;fill-opacity:0.19999999999999996;fill-rule: evenodd"/>
<path id="Body001007003_f0018"  d="M 4.0 0.0 L 7.199999999997724 0.0 L 7.199999999997724 -7.227551890309769e-14 L 4.0 0.0 L 4.0 0.0 Z " stroke="#000000" stroke-width="0.7 px" style="stroke-width:0.7;stroke-miterlimit:4;stroke-dasharray:none;stroke-linecap:square;fill:#55aa7f;fill-opacity:0.19999999999999996;fill-rule: evenodd"/>
<path id="Body001007003_f0019"  d="M 67.39999999999999 -8.200000000000001 L 67.39999999999999 -8.200000000000001 L 82.19999999999999 -8.200000000000001 L 82.19999999999999 -8.200000000000001 L 67.39999999999999 -8.200000000000001 Z " stroke="#000000" stroke-width="0.7 px" style="stroke-width:0.7;stroke-miterlimit:4;stroke-dasharray:none;stroke-linecap:square;fill:#55aa7f;fill-opacity:0.19999999999999996;fill-rule: evenodd"/>
<path id="Body001007003_f0020"  d="M 7.199999999997724 -1.4455103780619538e-13 A 1 1 0 0 0 8.2 -1L 8.199999999999788 -1.000000000002217 A 1 1 0 0 1 7.2 -1.44551e-13L 7.199999999997724 -7.227551890309769e-14 Z " stroke="#000000" stroke-width="0.7 px" style="stroke-width:0.7;stroke-miterlimit:4;stroke-dasharray:none;stroke-linecap:square;fill:#55aa7f;fill-opacity:0.19999999999999996;fill-rule: evenodd"/>
<path id="Body001007003_f0021"  d="M 67.39999999999999 14.2 L 67.39999999999999 14.2 L 67.39999999999999 -8.200000000000001 L 67.39999999999999 -8.200000000000001 L 67.39999999999999 14.2 Z " stroke="#000000" stroke-width="0.7 px" style="stroke-width:0.7;stroke-miterlimit:4;stroke-dasharray:none;stroke-linecap:square;fill:#55aa7f;fill-opacity:0.19999999999999996;fill-rule: evenodd"/>
<path id="Body001007003_f0022"  d="M 8.199999999999788 -1.000000000002217 L 8.199999999999788 -1.000000000002217 L 8.199999999999788 -8.200000000000001 L 8.199999999999788 -8.200000000000001 L 8.199999999999788 -1.000000000002217 Z " stroke="#000000" stroke-width="0.7 px" style="stroke-width:0.7;stroke-miterlimit:4;stroke-dasharray:none;stroke-linecap:square;fill:#55aa7f;fill-opacity:0.19999999999999996;fill-rule: evenodd"/>
<path id="Body001007003_f0023"  d="M 65.39999999999999 16.2 A 2 2 0 0 0 67.4 14.2L 67.39999999999999 14.2 A 2 2 0 0 1 65.4 16.2L 65.39999999999999 16.199999999999996 Z " stroke="#000000" stroke-width="0.7 px" style="stroke-width:0.7;stroke-miterlimit:4;stroke-dasharray:none;stroke-linecap:square;fill:#55aa7f;fill-opacity:0.19999999999999996;fill-rule: evenodd"/>
<path id="Body001007003_f0024"  d="M 8.199999999999788 -8.200000000000001 L 8.199999999999788 -8.200000000000001 L 22.999999999999996 -8.200000000000001 L 22.999999999999996 -8.200000000000001 L 8.199999999999788 -8.200000000000001 Z " stroke="#000000" stroke-width="0.7 px" style="stroke-width:0.7;stroke-miterlimit:4;stroke-dasharray:none;stroke-linecap:square;fill:#55aa7f;fill-opacity:0.19999999999999996;fill-rule: evenodd"/>
<path id="Body001007003_f0025"  d="M 54.59999999999999 16.199999999999996 L 54.59999999999999 16.199999999999996 L 65.39999999999999 16.199999999999996 L 65.39999999999999 16.199999999999996 L 54.59999999999999 16.199999999999996 Z " stroke="#000000" stroke-width="0.7 px" style="stroke-width:0.7;stroke-miterlimit:4;stroke-dasharray:none;stroke-linecap:square;fill:#55aa7f;fill-opacity:0.19999999999999996;fill-rule: evenodd"/>
<path id="Body001007003_f0026"  d="M 22.999999999999996 -8.200000000000001 L 22.999999999999996 -8.200000000000001 L 22.999999999999996 14.2 L 22.999999999999996 14.2 L 22.999999999999996 -8.200000000000001 Z " stroke="#000000" stroke-width="0.7 px" style="stroke-width:0.7;stroke-miterlimit:4;stroke-dasharray:none;stroke-linecap:square;fill:#55aa7f;fill-opacity:0.19999999999999996;fill-rule: evenodd"/>
<path id="Body001007003_f0027"  d="M 52.59999999999999 14.199999999999996 A 2 2 0 0 0 54.6 16.2L 54.59999999999999 16.199999999999996 A 2 2 0 0 1 52.6 14.2L 52.59999999999999 14.199999999999998 Z " stroke="#000000" stroke-width="0.7 px" style="stroke-width:0.7;stroke-miterlimit:4;stroke-dasharray:none;stroke-linecap:square;fill:#55aa7f;fill-opacity:0.19999999999999996;fill-rule: evenodd"/>
<path id="Body001007003_f0028"  d="M 22.999999999999996 14.2 A 2 2 0 0 0 25 16.2L 24.999999999999996 16.2 A 2 2 0 0 1 23 14.2L 22.999999999999996 14.2 Z " stroke="#000000" stroke-width="0.7 px" style="stroke-width:0.7;stroke-miterlimit:4;stroke-dasharray:none;stroke-linecap:square;fill:#55aa7f;fill-opacity:0.19999999999999996;fill-rule: evenodd"/>
<path id="Body001007003_f0029"  d="M 52.59999999999999 -8.200000000000001 L 52.59999999999999 -8.200000000000001 L 52.59999999999999 14.199999999999998 L 52.59999999999999 14.199999999999998 L 52.59999999999999 -8.200000000000001 Z " stroke="#000000" stroke-width="0.7 px" style="stroke-width:0.7;stroke-miterlimit:4;stroke-dasharray:none;stroke-linecap:square;fill:#55aa7f;fill-opacity:0.19999999999999996;fill-rule: evenodd"/>
<path id="Body001007003_f0030"  d="M 24.999999999999996 16.2 L 24.999999999999996 16.2 L 35.79999999999999 16.2 L 35.79999999999999 16.2 L 24.999999999999996 16.2 Z " stroke="#000000" stroke-width="0.7 px" style="stroke-width:0.7;stroke-miterlimit:4;stroke-dasharray:none;stroke-linecap:square;fill:#55aa7f;fill-opacity:0.19999999999999996;fill-rule: evenodd"/>
<path id="Body001007003_f0031"  d="M 37.79999999999999 -8.200000000000001 L 37.79999999999999 -8.200000000000001 L 52.59999999999999 -8.200000000000001 L 52.59999999999999 -8.200000000000001 L 37.79999999999999 -8.200000000000001 Z " stroke="#000000" stroke-width="0.7 px" style="stroke-width:0.7;stroke-miterlimit:4;stroke-dasharray:none;stroke-linecap:square;fill:#55aa7f;fill-opacity:0.19999999999999996;fill-rule: evenodd"/>
<path id="Body001007003_f0032"  d="M 35.79999999999999 16.2 A 2 2 0 0 0 37.8 14.2L 37.79999999999999 14.2 A 2 2 0 0 1 35.8 16.2L 35.79999999999999 16.2 Z " stroke="#000000" stroke-width="0.7 px" style="stroke-width:0.7;stroke-miterlimit:4;stroke-dasharray:none;stroke-linecap:square;fill:#55aa7f;fill-opacity:0.19999999999999996;fill-rule: evenodd"/>
<path id="Body001007003_f0033"  d="M 37.79999999999999 14.2 L 37.79999999999999 14.2 L 37.79999999999999 -8.200000000000001 L 37.79999999999999 -8.200000000000001 L 37.79999999999999 14.2 Z " stroke="#000000" stroke-width="0.7 px" style="stroke-width:0.7;stroke-miterlimit:4;stroke-dasharray:none;stroke-linecap:square;fill:#55aa7f;fill-opacity:0.19999999999999996;fill-rule: evenodd"/>
<path id="Body001007003_f0034"  d="M 37.79999999999999 -71.8 L 22.999999999999996 -71.8 L 22.999999999999996 -71.8 L 37.79999999999999 -71.8 L 37.79999999999999 -71.8 Z " stroke="#000000" stroke-width="0.7 px" style="stroke-width:0.7;stroke-miterlimit:4;stroke-dasharray:none;stroke-linecap:square;fill:#55aa7f;fill-opacity:0.19999999999999996;fill-rule: evenodd"/>
<path id="Body001007003_f0035"  d="M 22.999999999999996 -71.8 L 22.999999999999996 -76.2 L 22.999999999999996 -76.2 L 22.999999999999996 -71.8 L 22.999999999999996 -71.8 Z " stroke="#000000" stroke-width="0.7 px" style="stroke-width:0.7;stroke-miterlimit:4;stroke-dasharray:none;stroke-linecap:square;fill:#55aa7f;fill-opacity:0.19999999999999996;fill-rule: evenodd"/>
<path id="Body001007003_f0036"  d="M 37.79999999999999 -76.2 L 37.79999999999999 -71.8 L 37.79999999999999 -71.8 L 37.79999999999999 -76.2 L 37.79999999999999 -76.2 Z " stroke="#000000" stroke-width="0.7 px" style="stroke-width:0.7;stroke-miterlimit:4;stroke-dasharray:none;stroke-linecap:square;fill:#55aa7f;fill-opacity:0.19999999999999996;fill-rule: evenodd"/>
<path id="Body001007003_f0037"  d="M 22.999999999999996 -76.2 L 37.79999999999999 -76.2 L 37.79999999999999 -76.2 L 22.999999999999996 -76.2 L 22.999999999999996 -76.2 Z " stroke="#000000" stroke-width="0.7 px" style="stroke-width:0.7;stroke-miterlimit:4;stroke-dasharray:none;stroke-linecap:square;fill:#55aa7f;fill-opacity:0.19999999999999996;fill-rule: evenodd"/>
<path id="Body001007003_f0038"  d="M 67.39999999999999 -71.8 L 52.59999999999999 -71.8 L 52.59999999999999 -71.8 L 67.39999999999999 -71.8 L 67.39999999999999 -71.8 Z " stroke="#000000" stroke-width="0.7 px" style="stroke-width:0.7;stroke-miterlimit:4;stroke-dasharray:none;stroke-linecap:square;fill:#55aa7f;fill-opacity:0.19999999999999996;fill-rule: evenodd"/>
<path id="Body001007003_f0039"  d="M 52.59999999999999 -71.8 L 52.59999999999999 -76.2 L 52.59999999999999 -76.2 L 52.59999999999999 -71.8 L 52.59999999999999 -71.8 Z " stroke="#000000" stroke-width="0.7 px" style="stroke-width:0.7;stroke-miterlimit:4;stroke-dasharray:none;stroke-linecap:square;fill:#55aa7f;fill-opacity:0.19999999999999996;fill-rule: evenodd"/>
<path id="Body001007003_f0040"  d="M 67.39999999999999 -76.2 L 67.39999999999999 -71.8 L 67.39999999999999 -71.8 L 67.39999999999999 -76.2 L 67.39999999999999 -76.2 Z " stroke="#000000" stroke-width="0.7 px" style="stroke-width:0.7;stroke-miterlimit:4;stroke-dasharray:none;stroke-linecap:square;fill:#55aa7f;fill-opacity:0.19999999999999996;fill-rule: evenodd"/>
<path id="Body001007003_f0041"  d="M 52.59999999999999 -76.2 L 67.39999999999999 -76.2 L 67.39999999999999 -76.2 L 52.59999999999999 -76.2 L 52.59999999999999 -76.2 Z " stroke="#000000" stroke-width="0.7 px" style="stroke-width:0.7;stroke-miterlimit:4;stroke-dasharray:none;stroke-linecap:square;fill:#55aa7f;fill-opacity:0.19999999999999996;fill-rule: evenodd"/>
<path id="Body001007003_f0042"  d="M 8.2 -47.99999999999998 L 3.799999999999999 -47.99999999999998 L 3.799999999999999 -47.99999999999998 L 8.2 -47.99999999999998 L 8.2 -47.99999999999998 Z " stroke="#000000" stroke-width="0.7 px" style="stroke-width:0.7;stroke-miterlimit:4;stroke-dasharray:none;stroke-linecap:square;fill:#55aa7f;fill-opacity:0.19999999999999996;fill-rule: evenodd"/>
<path id="Body001007003_f0043"  d="M 3.799999999999999 -47.99999999999998 L 3.799999999999999 -64.0 L 3.799999999999999 -64.0 L 3.799999999999999 -47.99999999999998 L 3.799999999999999 -47.99999999999998 Z " stroke="#000000" stroke-width="0.7 px" style="stroke-width:0.7;stroke-miterlimit:4;stroke-dasharray:none;stroke-linecap:square;fill:#55aa7f;fill-opacity:0.19999999999999996;fill-rule: evenodd"/>
<path id="Body001007003_f0044"  d="M 8.2 -64.0 L 8.2 -47.99999999999998 L 8.2 -47.99999999999998 L 8.2 -64.0 L 8.2 -64.0 Z " stroke="#000000" stroke-width="0.7 px" style="stroke-width:0.7;stroke-miterlimit:4;stroke-dasharray:none;stroke-linecap:square;fill:#55aa7f;fill-opacity:0.19999999999999996;fill-rule: evenodd"/>
<path id="Body001007003_f0045"  d="M 3.799999999999999 -64.0 L 8.2 -64.0 L 8.2 -64.0 L 3.799999999999999 -64.0 L 3.799999999999999 -64.0 Z " stroke="#000000" stroke-width="0.7 px" style="stroke-width:0.7;stroke-miterlimit:4;stroke-dasharray:none;stroke-linecap:square;fill:#55aa7f;fill-opacity:0.19999999999999996;fill-rule: evenodd"/>
<circle cx="14.0" cy="-56.00000000000001" r="1.7" stroke="#000000" stroke-width="0.7 px" style="stroke-width:0.7;stroke-miterlimit:4;stroke-dasharray:none;stroke-linecap:square;fill:#55aa7f"/>
<path id="Body001007003_f0047"  d="M 96.99999999999997 -71.8 L 82.19999999999999 -71.8 L 82.19999999999999 -71.8 L 96.99999999999997 -71.8 L 96.99999999999997 -71.8 Z " stroke="#000000" stroke-width="0.7 px" style="stroke-width:0.7;stroke-miterlimit:4;stroke-dasharray:none;stroke-linecap:square;fill:#55aa7f;fill-opacity:0.19999999999999996;fill-rule: evenodd"/>
<path id="Body001007003_f0048"  d="M 82.19999999999999 -71.8 L 82.19999999999999 -76.2 L 82.19999999999999 -76.2 L 82.19999999999999 -71.8 L 82.19999999999999 -71.8 Z " stroke="#000000" stroke-width="0.7 px" style="stroke-width:0.7;stroke-miterlimit:4;stroke-dasharray:none;stroke-linecap:square;fill:#55aa7f;fill-opacity:0.19999999999999996;fill-rule: evenodd"/>
<path id="Body001007003_f0049"  d="M 96.99999999999997 -76.2 L 96.99999999999997 -71.8 L 96.99999999999997 -71.8 L 96.99999999999997 -76.2 L 96.99999999999997 -76.2 Z " stroke="#000000" stroke-width="0.7 px" style="stroke-width:0.7;stroke-miterlimit:4;stroke-dasharray:none;stroke-linecap:square;fill:#55aa7f;fill-opacity:0.19999999999999996;fill-rule: evenodd"/>
<path id="Body001007003_f0050"  d="M 82.19999999999999 -76.2 L 96.99999999999997 -76.2 L 96.99999999999997 -76.2 L 82.19999999999999 -76.2 L 82.19999999999999 -76.2 Z " stroke="#000000" stroke-width="0.7 px" style="stroke-width:0.7;stroke-miterlimit:4;stroke-dasharray:none;stroke-linecap:square;fill:#55aa7f;fill-opacity:0.19999999999999996;fill-rule: evenodd"/>
<circle cx="106.0" cy="-56.00000000000001" r="1.7" stroke="#000000" stroke-width="0.7 px" style="stroke-width:0.7;stroke-miterlimit:4;stroke-dasharray:none;stroke-linecap:square;fill:#55aa7f"/>
<path id="Body001007003_f0052"  d="M 116.2 -47.99999999999998 L 111.8 -47.99999999999998 L 111.8 -47.99999999999998 L 116.2 -47.99999999999998 L 116.2 -47.99999999999998 Z " stroke="#000000" stroke-width="0.7 px" style="stroke-width:0.7;stroke-miterlimit:4;stroke-dasharray:none;stroke-linecap:square;fill:#55aa7f;fill-opacity:0.19999999999999996;fill-rule: evenodd"/>
<path id="Body001007003_f0053"  d="M 111.8 -47.99999999999998 L 111.8 -63.999999999999986 L 111.8 -63.999999999999986 L 111.8 -47.99999999999998 L 111.8 -47.99999999999998 Z " stroke="#000000" stroke-width="0.7 px" style="stroke-width:0.7;stroke-miterlimit:4;stroke-dasharray:none;stroke-linecap:square;fill:#55aa7f;fill-opacity:0.19999999999999996;fill-rule: evenodd"/>
<path id="Body001007003_f0054"  d="M 116.2 -63.999999999999986 L 116.2 -47.99999999999998 L 116.2 -47.99999999999998 L 116.2 -63.999999999999986 L 116.2 -63.999999999999986 Z " stroke="#000000" stroke-width="0.7 px" style="stroke-width:0.7;stroke-miterlimit:4;stroke-dasharray:none;stroke-linecap:square;fill:#55aa7f;fill-opacity:0.19999999999999996;fill-rule: evenodd"/>
<path id="Body001007003_f0055"  d="M 111.8 -63.999999999999986 L 116.2 -63.999999999999986 L 116.2 -63.999999999999986 L 111.8 -63.999999999999986 L 111.8 -63.999999999999986 Z " stroke="#000000" stroke-width="0.7 px" style="stroke-width:0.7;stroke-miterlimit:4;stroke-dasharray:none;stroke-linecap:square;fill:#55aa7f;fill-opacity:0.19999999999999996;fill-rule: evenodd"/>
<path id="Body001007003_f0056"  d="M 8.2 -16.0 L 3.799999999999999 -16.0 L 3.799999999999999 -16.0 L 8.2 -16.0 L 8.2 -16.0 Z " stroke="#000000" stroke-width="0.7 px" style="stroke-width:0.7;stroke-miterlimit:4;stroke-dasharray:none;stroke-linecap:square;fill:#55aa7f;fill-opacity:0.19999999999999996;fill-rule: evenodd"/>
<path id="Body001007003_f0057"  d="M 3.799999999999999 -16.0 L 3.799999999999999 -32.0 L 3.799999999999999 -32.0 L 3.799999999999999 -16.0 L 3.799999999999999 -16.0 Z " stroke="#000000" stroke-width="0.7 px" style="stroke-width:0.7;stroke-miterlimit:4;stroke-dasharray:none;stroke-linecap:square;fill:#55aa7f;fill-opacity:0.19999999999999996;fill-rule: evenodd"/>
<path id="Body001007003_f0058"  d="M 8.2 -32.0 L 8.2 -16.0 L 8.2 -16.0 L 8.2 -32.0 L 8.2 -32.0 Z " stroke="#000000" stroke-width="0.7 px" style="stroke-width:0.7;stroke-miterlimit:4;stroke-dasharray:none;stroke-linecap:square;fill:#55aa7f;fill-opacity:0.19999999999999996;fill-rule: evenodd"/>
<path id="Body001007003_f0059"  d="M 3.799999999999999 -32.0 L 8.2 -32.0 L 8.2 -32.0 L 3.799999999999999 -32.0 L 3.799999999999999 -32.0 Z " stroke="#000000" stroke-width="0.7 px" style="stroke-width:0.7;stroke-miterlimit:4;stroke-dasharray:none;stroke-linecap:square;fill:#55aa7f;fill-opacity:0.19999999999999996;fill-rule: evenodd"/>
<circle cx="34.0" cy="-14.0" r="1.7" stroke="#000000" stroke-width="0.7 px" style="stroke-width:0.7;stroke-miterlimit:4;stroke-dasharray:none;stroke-linecap:square;fill:#55aa7f"/>
<path id="Body001007003_f0061"  d="M 116.2 -16.0 L 111.8 -16.0 L 111.8 -16.0 L 116.2 -16.0 L 116.2 -16.0 Z " stroke="#000000" stroke-width="0.7 px" style="stroke-width:0.7;stroke-miterlimit:4;stroke-dasharray:none;stroke-linecap:square;fill:#55aa7f;fill-opacity:0.19999999999999996;fill-rule: evenodd"/>
<path id="Body001007003_f0062"  d="M 111.8 -16.0 L 111.8 -32.0 L 111.8 -32.0 L 111.8 -16.0 L 111.8 -16.0 Z " stroke="#000000" stroke-width="0.7 px" style="stroke-width:0.7;stroke-miterlimit:4;stroke-dasharray:none;stroke-linecap:square;fill:#55aa7f;fill-opacity:0.19999999999999996;fill-rule: evenodd"/>
<path id="Body001007003_f0063"  d="M 116.2 -32.0 L 116.2 -16.0 L 116.2 -16.0 L 116.2 -32.0 L 116.2 -32.0 Z " stroke="#000000" stroke-width="0.7 px" style="stroke-width:0.7;stroke-miterlimit:4;stroke-dasharray:none;stroke-linecap:square;fill:#55aa7f;fill-opacity:0.19999999999999996;fill-rule: evenodd"/>
<path id="Body001007003_f0064"  d="M 111.8 -32.0 L 116.2 -32.0 L 116.2 -32.0 L 111.8 -32.0 L 111.8 -32.0 Z " stroke="#000000" stroke-width="0.7 px" style="stroke-width:0.7;stroke-miterlimit:4;stroke-dasharray:none;stroke-linecap:square;fill:#55aa7f;fill-opacity:0.19999999999999996;fill-rule: evenodd"/>
<path id="Body001007003_f0065"  d="M 95.0 -12.25 L 95.0 -12.25 A 1 1 0 0 0 96 -11.25L 96.0 -11.25 A 1 1 0 0 1 95 -12.25Z " stroke="#000000" stroke-width="0.7 px" style="stroke-width:0.7;stroke-miterlimit:4;stroke-dasharray:none;stroke-linecap:square;fill:#55aa7f;fill-opacity:0.19999999999999996;fill-rule: evenodd"/>
<path id="Body001007003_f0066"  d="M 95.0 -12.25 L 95.0 -24.25 L 95.0 -24.25 L 95.0 -12.25 L 95.0 -12.25 Z " stroke="#000000" stroke-width="0.7 px" style="stroke-width:0.7;stroke-miterlimit:4;stroke-dasharray:none;stroke-linecap:square;fill:#55aa7f;fill-opacity:0.19999999999999996;fill-rule: evenodd"/>
<path id="Body001007003_f0067"  d="M 96.0 -25.25 L 96.0 -25.25 A 1 1 0 0 0 95 -24.25L 95.0 -24.25 A 1 1 0 0 1 96 -25.25Z " stroke="#000000" stroke-width="0.7 px" style="stroke-width:0.7;stroke-miterlimit:4;stroke-dasharray:none;stroke-linecap:square;fill:#55aa7f;fill-opacity:0.19999999999999996;fill-rule: evenodd"/>
<path id="Body001007003_f0068"  d="M 96.0 -25.25 L 100.0 -25.25 L 100.0 -25.25 L 96.0 -25.25 L 96.0 -25.25 Z " stroke="#000000" stroke-width="0.7 px" style="stroke-width:0.7;stroke-miterlimit:4;stroke-dasharray:none;stroke-linecap:square;fill:#55aa7f;fill-opacity:0.19999999999999996;fill-rule: evenodd"/>
<path id="Body001007003_f0069"  d="M 101.0 -24.25 L 101.0 -24.25 A 1 1 0 0 0 100 -25.25L 100.0 -25.25 A 1 1 0 0 1 101 -24.25Z " stroke="#000000" stroke-width="0.7 px" style="stroke-width:0.7;stroke-miterlimit:4;stroke-dasharray:none;stroke-linecap:square;fill:#55aa7f;fill-opacity:0.19999999999999996;fill-rule: evenodd"/>
<path id="Body001007003_f0070"  d="M 101.0 -24.25 L 101.0 -12.25 L 101.0 -12.25 L 101.0 -24.25 L 101.0 -24.25 Z " stroke="#000000" stroke-width="0.7 px" style="stroke-width:0.7;stroke-miterlimit:4;stroke-dasharray:none;stroke-linecap:square;fill:#55aa7f;fill-opacity:0.19999999999999996;fill-rule: evenodd"/>
<path id="Body001007003_f0071"  d="M 100.0 -11.25 L 100.0 -11.25 A 1 1 0 0 0 101 -12.25L 101.0 -12.25 A 1 1 0 0 1 100 -11.25Z " stroke="#000000" stroke-width="0.7 px" style="stroke-width:0.7;stroke-miterlimit:4;stroke-dasharray:none;stroke-linecap:square;fill:#55aa7f;fill-opacity:0.19999999999999996;fill-rule: evenodd"/>
<path id="Body001007003_f0072"  d="M 100.0 -11.25 L 96.0 -11.25 L 96.0 -11.25 L 100.0 -11.25 L 100.0 -11.25 Z " stroke="#000000" stroke-width="0.7 px" style="stroke-width:0.7;stroke-miterlimit:4;stroke-dasharray:none;stroke-linecap:square;fill:#55aa7f;fill-opacity:0.19999999999999996;fill-rule: evenodd"/>
<circle cx="106.0" cy="-14.0" r="1.7" stroke="#000000" stroke-width="0.7 px" style="stroke-width:0.7;stroke-miterlimit:4;stroke-dasharray:none;stroke-linecap:square;fill:#55aa7f"/>
<circle cx="14.0" cy="-56.0" r="3.05" stroke="#000000" stroke-width="0.7 px" style="stroke-width:0.7;stroke-miterlimit:4;stroke-dasharray:none;stroke-linecap:square;fill:#55aa7f"/>
<circle cx="106.0" cy="-56.0" r="3.05" stroke="#000000" stroke-width="0.7 px" style="stroke-width:0.7;stroke-miterlimit:4;stroke-dasharray:none;stroke-linecap:square;fill:#55aa7f"/>
<circle cx="34.0" cy="-14.0" r="3.05" stroke="#000000" stroke-width="0.7 px" style="stroke-width:0.7;stroke-miterlimit:4;stroke-dasharray:none;stroke-linecap:square;fill:#55aa7f"/>
<circle cx="106.0" cy="-14.0" r="3.05" stroke="#000000" stroke-width="0.7 px" style="stroke-width:0.7;stroke-miterlimit:4;stroke-dasharray:none;stroke-linecap:square;fill:#55aa7f"/>
<title>b'B-Top backmount'</title>
</g>
</svg>